<svg width="320" height="240" viewBox="0 0 320 240" fill="none" xmlns="http://www.w3.org/2000/svg">
<g clip-path="url(#clip0_4880_18920)">
<path d="M227.778 173.863C220.224 173.863 215.735 170 215.463 164.514H222.564C222.564 166.219 223.64 168.739 228.221 168.821C231.282 168.821 232.721 167.027 232.721 165.682C232.54 163.525 229.841 163.347 226.96 162.895C224.092 162.442 221.664 161.909 219.867 161.008C217.615 159.839 216.086 157.317 216.086 154.447C216.086 149.589 220.315 145.725 227.33 145.725C234.152 145.725 238.47 149.319 238.921 154.624H232.091C231.998 153.193 231.731 150.934 227.684 150.934C224.985 150.934 223.197 151.483 223.011 153.365C223.011 156.157 228.674 155.973 233.077 157.138C237.301 158.219 240 160.827 240 164.514C240 171.254 234.517 173.863 227.778 173.863Z" fill="#231815"/>
<path d="M97.2573 128.74L120.9 115.166L133.391 136.739H101.846L97.2573 128.74Z" fill="#231815"/>
<path d="M150.206 173.233H143.461V145.994H150.206V173.233Z" fill="#231815"/>
<path fill-rule="evenodd" clip-rule="evenodd" d="M86.4716 159.745C86.4716 163.972 90.066 167.474 94.2941 167.474C98.6089 167.474 102.203 163.972 102.203 159.745C102.203 155.52 98.6089 151.925 94.2941 151.925C90.066 151.925 86.4716 155.52 86.4716 159.745ZM94.1099 173.863C86.3851 173.863 80 167.474 80 159.745C80 151.925 86.3851 145.725 94.1099 145.725C97.0781 145.725 99.8655 146.534 102.203 148.155V145.994H108.853V173.233H102.203V171.431C99.9544 172.964 97.1699 173.863 94.1099 173.863Z" fill="#231815"/>
<path d="M184.9 136.739L152 79.6618L175.645 66L216.545 136.739H184.9Z" fill="#231815"/>
<path fill-rule="evenodd" clip-rule="evenodd" d="M117.66 159.745C117.66 163.972 121.255 167.474 125.574 167.474C129.797 167.474 133.391 163.972 133.391 159.745C133.391 155.52 129.797 151.925 125.574 151.925C121.255 151.925 117.66 155.52 117.66 159.745ZM125.393 173.863C117.573 173.863 111.195 167.474 111.195 159.745C111.195 151.925 117.573 145.725 125.393 145.725C128.358 145.725 131.06 146.534 133.391 148.155V136.739H140.128V173.233H133.391V171.431C131.06 172.964 128.358 173.863 125.393 173.863Z" fill="#231815"/>
<path d="M124.852 104.466L148.588 90.8971L175.098 136.739H150.205V143.482H143.461V136.739L124.852 104.466Z" fill="#231815"/>
<path fill-rule="evenodd" clip-rule="evenodd" d="M190.562 159.745C190.562 163.972 194.157 167.474 198.382 167.474C202.608 167.474 206.109 163.972 206.109 159.745C206.109 155.52 202.608 151.925 198.382 151.925C194.157 151.925 190.562 155.52 190.562 159.745ZM198.114 173.863C190.387 173.863 183.999 167.474 183.999 159.745C183.999 151.925 190.387 145.725 198.114 145.725C201.082 145.725 203.859 146.534 206.109 148.155V145.994H212.854V173.233H206.109V171.431C203.859 172.964 201.171 173.863 198.114 173.863Z" fill="#231815"/>
<path fill-rule="evenodd" clip-rule="evenodd" d="M159.463 159.745C159.463 163.972 163.05 167.474 167.197 167.474C171.507 167.474 175.098 163.972 175.098 159.745C175.098 155.52 171.507 151.925 167.197 151.925C163.05 151.925 159.463 155.52 159.463 159.745ZM175.098 136.739H181.752V173.233H175.098V171.431C172.854 172.964 170.068 173.863 167.011 173.863C159.278 173.863 152.896 167.474 152.896 159.745C152.896 151.925 159.278 145.725 167.011 145.725C170.068 145.725 172.766 146.534 175.098 148.155V136.739Z" fill="#231815"/>
</g>
<defs>
<clipPath id="clip0_4880_18920">
<rect width="160" height="107.863" fill="white" transform="translate(80 66)"/>
</clipPath>
</defs>
</svg>
