<svg width="320" height="240" viewBox="0 0 320 240" fill="none" xmlns="http://www.w3.org/2000/svg">
<g clip-path="url(#clip0_4880_18928)">
<path d="M24.0646 123.612C22.1792 123.612 21.8305 123.612 21.8305 123.057C21.8305 122.356 27.4186 108.946 27.8246 108.946H27.9422L34.1816 123.612H24.0646ZM34.9524 125.264C35.893 127.363 39.4215 134.465 39.4215 135.668C39.4215 136.512 38.6546 136.762 36.3011 136.762C35.12 136.762 33.8281 136.861 33.8281 137.363C33.8281 137.872 33.8899 138.27 34.1266 138.27C34.5395 138.27 34.9525 138.166 42.8945 138.166C50.0127 138.166 50.4879 138.27 51.0722 138.27C51.605 138.27 51.7218 137.659 51.7218 137.31C51.7218 136.916 50.4879 136.762 49.9559 136.762C47.661 136.762 46.4225 136.214 45.4868 134.365C41.3665 126.358 31.539 103.452 31.1234 102.594C30.8325 102 30.6531 102 30.1212 102C29.4147 102 29.1855 102 29.0061 102.446C23.2986 114.557 18.7661 125.354 15.1777 134.213C14.4073 136.171 13.2923 136.762 12.1772 136.762C10.5853 136.762 10 137.01 10 137.414C10 138.015 10.115 138.27 10.4108 138.27C10.8832 138.27 11.4686 138.166 15.0604 138.166C22.0646 138.166 22.8262 138.27 23.2986 138.27C23.8862 138.27 24.0074 138.063 24.0074 137.465C24.0074 136.962 23.7663 136.762 20.2387 136.762C17.1786 136.762 17.1786 135.617 17.1786 134.966C17.1786 134.113 17.942 131.811 20.4127 126.311C20.8857 125.264 21.1241 125.264 22.8262 125.264H34.9524Z" fill="#231815"/>
<path d="M81.4987 107.749C81.4987 104.302 81.4987 103.997 87.3252 103.997C91.0899 103.997 95.0953 104.405 98.3875 106.196C101.512 107.855 105.861 111.954 106.095 119.911C106.391 130.56 97.6211 136.762 87.0317 136.762C83.2607 136.762 81.4987 136.171 81.4987 134.416V107.749ZM75.6718 126.655C75.6718 128.811 75.6118 132.061 75.4977 134.562C75.4355 135.913 74.0847 136.762 71.3178 136.762C69.6726 136.762 69.6726 137.06 69.6726 137.617C69.6726 138.063 69.6726 138.27 70.1389 138.27C70.5535 138.27 70.7898 138.166 79.4387 138.166C86.4441 138.166 88.6764 138.27 90.2067 138.27C97.3871 138.27 103.388 135.668 106.745 133.013C110.807 129.763 113.101 125.058 113.101 119.559C113.101 114.952 110.807 109.011 105.274 105.851C100.273 103.006 95.8591 102.503 86.9126 102.503C85.1462 102.503 82.4987 102.703 79.4387 102.703C75.7291 102.703 70.6091 102.503 70.1389 102.503C69.7303 102.503 69.6157 102.856 69.6157 103.151C69.6157 103.604 69.6157 103.997 70.2649 103.997C74.5016 103.997 75.4977 104.405 75.5572 107.354C75.6118 109.654 75.6718 110.851 75.6718 114.407V126.655Z" fill="#231815"/>
<path d="M175.948 120.458C175.948 126.411 175.012 137.56 161.117 137.56C150.283 137.56 146.347 127.414 146.347 120.502C146.347 116.404 147.408 103.35 161.117 103.35C172.003 103.35 175.948 113.306 175.948 120.458ZM182.954 121.208C182.954 108.403 173.592 102.056 161.117 102.056C149.877 102.056 139.345 109.399 139.345 121.459C139.345 128.161 145.287 138.861 161.117 138.861C177.005 138.861 182.954 128.161 182.954 121.208Z" fill="#231815"/>
<path d="M220.727 120.81V107.557C220.727 104.251 221.558 103.997 225.141 103.997C231.908 103.997 235.207 107.706 235.207 112.31C235.207 116.855 232.617 120.81 225.556 120.81H220.727ZM214.901 126.655C214.901 128.811 214.845 132.061 214.722 134.562C214.666 135.913 214.314 136.762 210.548 136.762C208.904 136.762 208.904 137.06 208.904 137.617C208.904 138.063 208.904 138.27 209.375 138.27C209.785 138.27 210.019 138.166 217.782 138.166C226.5 138.166 226.731 138.27 227.143 138.27C227.612 138.27 227.612 138.063 227.612 137.617C227.612 137.06 227.612 136.762 225.962 136.762C221.321 136.762 220.962 135.913 220.902 134.562C220.793 132.061 220.727 128.811 220.727 126.655V122.307C223.146 122.254 224.494 122.254 226.912 124.307C229.025 126.113 232.906 132.465 237.795 137.872C238.148 138.27 238.327 138.27 238.851 138.27C239.146 138.27 239.438 138.166 243.034 138.166C247.324 138.166 247.562 138.27 247.853 138.27C248.381 138.27 248.566 138.063 248.566 137.514C248.566 137.214 248.566 136.916 248.148 136.916C244.615 136.861 244.088 136.269 239.848 131.915C234.377 126.311 231.438 121.711 231.438 121.408C231.438 121.208 231.787 121.105 232.082 121.006C238.558 118.803 241.561 116.45 241.561 111.658C241.561 104.445 233.197 102.503 226.372 102.503C222.911 102.503 219.314 102.703 217.782 102.703C214.077 102.703 209.845 102.503 209.375 102.503C208.961 102.503 208.849 102.856 208.849 103.151C208.849 103.604 208.849 103.997 209.491 103.997C213.723 103.997 214.722 104.405 214.786 107.354C214.845 109.654 214.901 110.851 214.901 114.407V126.655Z" fill="#231815"/>
<path d="M281.99 138.166C273.335 138.166 273.095 138.27 272.688 138.27C272.217 138.27 272.217 138.063 272.217 137.617C272.217 137.06 272.217 136.762 273.451 136.762C278.108 136.762 278.461 135.913 278.519 134.562C278.643 132.061 278.693 128.811 278.693 126.655V114.407C278.693 110.851 278.643 109.654 278.577 107.354C278.519 104.405 277.516 103.997 272.809 103.997C272.16 103.997 272.16 103.604 272.16 103.151C272.16 102.856 272.279 102.503 272.688 102.503C273.16 102.503 278.282 102.703 281.99 102.703C288.87 102.703 297.463 102.503 301.755 102.503C303.109 102.503 303.88 102.503 304.001 102.895C305.526 107.508 306.584 109.654 306.584 109.952C306.584 110.248 306.234 110.298 305.706 110.298C304.76 110.298 304.294 108.853 299.112 105.15C298.225 104.499 296.818 103.997 295.052 103.997C293.524 103.997 288.459 104.198 286.222 104.302C284.871 104.349 284.518 105.357 284.518 108.154V119.658H288.459C294.818 119.658 295.288 117.46 295.41 116.905C296.114 113.209 296.289 113.209 296.699 113.209C297.404 113.209 297.818 113.253 297.818 113.561V121.057C297.818 124.062 298.112 125.762 298.112 127.005C298.112 127.363 297.699 127.414 297.341 127.414C296.641 127.414 296.52 127.21 296.463 126.852C295.582 121.459 294.524 121.163 288.81 121.163H284.518V134.069C284.518 136.014 285.225 136.665 287.397 136.665H301.406C303.65 136.665 307.062 131.864 308.288 130.511C308.532 130.315 308.699 130.213 309.052 130.213C309.647 130.213 310 130.262 310 130.56C310 130.708 306.937 138.166 306.294 138.166H281.99Z" fill="#231815"/>
</g>
<defs>
<clipPath id="clip0_4880_18928">
<rect width="300" height="36.8611" fill="white" transform="translate(10 102)"/>
</clipPath>
</defs>
</svg>
