<svg width="320" height="240" viewBox="0 0 320 240" fill="none" xmlns="http://www.w3.org/2000/svg">
<g clip-path="url(#clip0_4880_18935)">
<path d="M126.344 83.6115C126.689 82.7217 126.195 82 125.241 82H122.025C121.071 82 120.018 82.7215 119.673 83.6112C118.803 85.8554 102.073 129.028 101.04 131.748C100.22 133.804 98.4512 136.254 94.6828 136.255C93.0652 136.255 91.7251 135.648 91.0073 134.592C90.4664 133.796 90.2784 132.751 90.4793 131.565C90.647 130.574 92.0111 127.025 91.9936 126.972C95.6557 117.488 102.024 101.033 105.644 91.6801C105.989 90.7902 105.494 90.0688 104.54 90.0688H101.326C100.372 90.0688 99.3192 90.7898 98.9747 91.6797C93.7411 105.202 84.5215 129.028 83.4888 131.748C82.6687 133.804 80.8991 136.255 77.1291 136.255C75.5106 136.255 74.1696 135.649 73.4515 134.592C72.9107 133.796 72.7019 132.747 72.9236 131.565C73.1244 130.493 74.2553 127.615 74.2559 127.613L80.8655 110.617C81.2113 109.728 80.7182 109.007 79.7639 109.007H76.5453C75.5911 109.007 74.5372 109.728 74.1913 110.617L72.4673 115.051C72.0746 114.42 71.6358 113.814 71.144 113.242C68.2904 109.92 64.1573 108.091 59.5051 108.091C50.267 108.091 41.6079 115.593 40.2027 124.815C39.4859 129.518 40.6839 133.96 43.5746 137.325C46.4288 140.646 50.5619 142.475 55.2141 142.475C59.8903 142.475 64.4161 140.551 67.9296 137.457C69.4711 140.238 72.6713 142.475 77.1291 142.475C80.7423 142.475 83.9354 141.107 86.3062 138.662C88.2375 141.086 91.2382 142.475 94.6805 142.475C94.6813 142.475 94.6822 142.475 94.6831 142.475C94.6837 142.475 94.6843 142.475 94.6849 142.475C98.273 142.475 101.447 141.126 103.812 138.713C105.745 141.106 108.729 142.475 112.147 142.475C112.153 142.475 112.159 142.475 112.166 142.475C112.17 142.475 112.174 142.475 112.178 142.475C117.151 142.475 121.332 139.891 123.657 135.457C124.059 136.109 124.511 136.735 125.018 137.325C127.872 140.646 132.005 142.475 136.658 142.475C145.896 142.475 154.555 134.973 155.959 125.752C156.071 125.016 156.131 124.288 156.15 123.568C159.522 123.159 162.616 122.137 165.347 120.71C164.204 123.654 163.199 126.244 162.663 127.615C161.139 131.463 161.387 135.182 163.361 138.088C165.256 140.876 168.471 142.475 172.183 142.475C177.679 142.475 182.217 139.326 184.339 134.005C185.183 131.782 189.133 121.612 192.321 113.41C194.116 115.662 197.539 118.08 200.084 118.841C198.907 122.007 197.03 127.052 196.811 127.614C195.286 131.462 195.534 135.182 197.508 138.087C199.403 140.876 202.619 142.475 206.331 142.475C210.076 142.475 213.697 140.84 216.239 138.209C219.037 140.966 222.826 142.475 227.045 142.475C231.752 142.475 236.307 140.525 239.83 137.394C241.448 140.217 244.608 142.475 249.077 142.475C249.083 142.475 249.089 142.475 249.095 142.475C249.099 142.475 249.103 142.475 249.106 142.475C254.602 142.475 259.139 139.327 261.262 134.005C261.416 133.601 264.756 125.192 266.275 121.195C267.046 122.91 267.97 124.645 268.915 126.414C271.307 130.887 273.78 135.512 273.78 140.023C273.78 150.029 266.999 151.788 264.921 152.088C263.222 152.334 262.043 153.912 262.288 155.612C262.512 157.161 263.842 158.277 265.363 158.277C265.511 158.277 265.661 158.266 265.812 158.245C272.357 157.298 280 151.957 280 140.023C280 133.954 277.025 128.39 274.4 123.481C272.17 119.309 270.136 115.48 270.666 112.651C271.049 110.605 272.503 109.445 274.755 109.299C275.094 109.277 275.384 109.045 275.507 108.728L276.611 105.859C276.81 105.345 276.714 105.042 276.284 104.697C275.807 104.316 274.361 103.891 273.138 103.891C269.883 103.891 265.913 104.954 262.454 113.564C262.313 113.913 255.652 131.182 255.437 131.748C254.618 133.801 252.852 136.248 249.093 136.255C247.481 136.251 246.145 135.646 245.429 134.592C244.888 133.796 244.679 132.747 244.901 131.565C245.052 130.757 245.427 129.706 245.832 128.647C248.379 122.125 257.473 98.8439 260.273 91.678C260.62 90.7893 260.128 90.0688 259.174 90.0688H255.952C254.997 90.0688 253.942 90.7893 253.595 91.6781C251.415 97.2593 247.552 107.146 244.402 115.212C243.984 114.522 243.509 113.863 242.975 113.242C240.121 109.92 235.988 108.091 231.336 108.091C222.098 108.091 213.439 115.593 212.034 124.815C211.613 127.576 211.857 130.246 212.712 132.663C211.426 134.764 208.854 136.255 206.331 136.255C204.712 136.255 203.371 135.649 202.653 134.592C201.873 133.443 201.851 131.779 202.599 129.892C202.929 129.046 206.143 120.391 206.47 119.51C206.708 118.938 207.294 117.42 206.564 115.83C205.804 114.172 204.265 113.713 203.051 113.279C200.045 112.203 195.789 110.086 195.756 105.921C195.746 104.727 195.321 103.885 194.298 103.885H191.08C190.125 103.885 189.071 104.605 188.726 105.495C185.518 113.74 179.592 128.984 178.542 131.749C177.722 133.805 175.953 136.255 172.183 136.255C170.564 136.255 169.224 135.649 168.506 134.592C167.725 133.443 167.704 131.779 168.451 129.891C169.756 126.548 173.826 116.049 175.931 110.618C176.275 109.728 175.781 109.007 174.827 109.007H171.307C170.353 109.007 169.168 109.665 168.564 110.404C165.269 114.435 159.93 116.831 155.102 117.411C154.507 115.9 153.665 114.496 152.587 113.242C149.734 109.92 145.601 108.091 140.949 108.091C138.465 108.091 136.025 108.637 133.755 109.609C136.3 103.03 138.852 96.4359 140.693 91.6801C141.038 90.7902 140.543 90.0688 139.589 90.0688H136.344C135.389 90.0688 134.337 90.7898 133.992 91.6797C128.759 105.202 119.539 129.028 118.506 131.749C117.688 133.802 115.922 136.247 112.163 136.255C110.544 136.255 109.202 135.649 108.484 134.592C107.943 133.796 107.735 132.747 107.956 131.565C108.157 130.493 109.288 127.615 109.289 127.613C109.289 127.613 122.633 93.1868 126.344 83.6115ZM55.6613 136.255C52.9456 136.255 50.5704 135.196 48.9731 133.272C47.3394 131.304 46.6728 128.633 47.0968 125.752C48.0261 119.443 53.7282 114.311 59.8079 114.311C62.523 114.311 64.8982 115.371 66.4961 117.295C68.1298 119.263 68.7957 121.933 68.3717 124.815C67.443 131.123 61.7416 136.255 55.6613 136.255ZM148.941 124.815C148.018 131.123 142.35 136.255 136.305 136.255C133.605 136.255 131.243 135.196 129.655 133.272C128.031 131.304 127.334 128.628 127.79 125.752C128.084 123.894 128.711 122.653 128.986 121.941C131.145 117.503 135.664 114.311 140.427 114.311C143.126 114.311 145.488 115.371 147.077 117.295C148.701 119.263 149.363 121.933 148.941 124.815ZM227.579 136.255C224.882 136.255 222.523 135.196 220.937 133.272C219.314 131.304 218.652 128.633 219.073 125.752C219.996 119.443 225.659 114.311 231.698 114.311C234.394 114.311 236.753 115.371 238.34 117.295C239.963 119.263 240.624 121.933 240.203 124.815C239.281 131.123 233.618 136.255 227.579 136.255ZM172.192 98.4322C172.565 95.9825 174.854 93.9966 177.304 93.9966C179.753 93.9966 181.437 95.9825 181.063 98.4322C180.69 100.882 178.402 102.868 175.952 102.868C173.502 102.868 171.819 100.882 172.192 98.4322Z" fill="black"/>
</g>
<defs>
<clipPath id="clip0_4880_18935">
<rect width="240" height="76.2769" fill="white" transform="translate(40 82)"/>
</clipPath>
</defs>
</svg>
