<svg width="320" height="240" viewBox="0 0 320 240" fill="none" xmlns="http://www.w3.org/2000/svg">
<g clip-path="url(#clip0_4880_19306)">
<path d="M56.562 99.5647C54.3286 98.9372 52.1374 98.5488 50.2976 98.3069C49.5982 101.642 49.0805 104.994 48.7861 108.385C52.8908 106.534 55.2371 102.881 56.562 99.5647Z" fill="#0054A7"/>
<path d="M45.1029 97.9081C36.4604 97.7567 32.7272 99.8592 31.1206 101.663C29.4056 103.586 29.6741 105.676 29.6862 105.766C29.6862 105.766 29.6838 105.751 29.6789 105.723C29.7073 105.889 29.7215 106.056 29.7197 106.225C29.7042 107.644 30.2398 108.671 31.4071 109.448C33.8845 111.098 38.5869 111.293 43.4825 110.153C43.7182 106.016 44.2794 101.954 45.1029 97.9081Z" fill="#00A0E9"/>
<path d="M45.4909 92.4578C45.5957 92.4578 45.8966 92.462 46.3583 92.482C46.8587 90.5393 47.4098 88.5986 48.0067 86.6489C47.9769 86.6434 47.9483 86.6426 47.9193 86.6392C43.722 86.0911 39.5503 85.4124 35.606 84.0724C32.6843 85.9557 30.1782 88.5703 28.3948 91.8365C27.053 94.2949 26.2429 96.899 25.9209 99.5192C26.2039 99.0747 26.5315 98.6303 26.9116 98.1866C30.3555 94.1836 36.6068 92.2561 45.4909 92.4578Z" fill="#0054A7"/>
<path d="M24.7072 121.783C24.7 121.721 24.6965 121.66 24.6955 121.6C23.9901 121.414 23.2911 121.185 22.6041 120.898C20.9613 122.847 19.5455 124.987 18.3965 127.288C20.6482 126.653 22.9386 126.257 25.246 126.021C25.0452 124.611 24.863 123.199 24.7072 121.783Z" fill="#0054A7"/>
<path d="M53.2461 87.1991C53.1552 87.4831 53.0647 87.7672 52.9769 88.054C52.4717 89.6947 52.0013 91.3306 51.5684 92.9686C53.497 93.2416 55.729 93.668 58.0318 94.3232C58.2005 93.3487 58.2475 92.7364 58.2495 92.7108V92.7164C58.3446 91.2131 59.6414 90.0714 61.144 90.1667C62.6475 90.2607 63.7886 91.5594 63.6939 93.0612C63.6829 93.2292 63.5957 94.4448 63.2367 96.2218C65.1578 97.1044 67.0038 98.1963 68.6441 99.5371C68.0878 95.0365 66.1212 90.7528 62.9416 87.385C59.715 87.5163 56.4892 87.4471 53.2461 87.1991Z" fill="#0054A7"/>
<path d="M64.6064 82.1199L67.1892 74.0164L61.7165 71.0307C58.756 74.2438 56.675 78.0643 55.0439 82.1365C58.2397 82.3265 61.4189 82.33 64.6064 82.1199Z" fill="#0054A7"/>
<path d="M49.6931 81.6561C51.4931 76.8493 53.7904 72.3196 57.0609 68.488L54.3371 67L43.3457 80.7176C45.1372 81.0466 46.9514 81.3016 48.768 81.5401C49.0773 81.5815 49.3859 81.6174 49.6931 81.6561Z" fill="#0054A7"/>
<path d="M69.6947 137.802C67.5992 139.968 64.815 141.032 61.4216 140.971C61.3614 140.97 61.301 140.965 61.2394 140.961C60.623 140.9 55.1554 140.251 53.3754 136.496C53.3761 136.499 53.3781 136.502 53.3781 136.504C53.3775 136.501 53.3754 136.495 53.3719 136.493C53.3744 136.493 53.3754 136.494 53.3754 136.496C53.1615 136.047 51.3583 131.959 54.1242 127.46C54.2963 127.19 55.8918 124.761 59.025 123.133C61.9669 121.605 66.812 120.534 73.1936 124.107C73.2333 124.128 73.2706 124.151 73.3069 124.177C73.4016 124.237 74.2103 124.766 75.3959 125.828C72.8273 121.29 69.1937 117.436 64.8326 114.605C65.3144 113.928 65.7632 113.217 66.1734 112.47C67.0802 110.804 67.7447 109.075 68.1787 107.315C66.8003 104.73 64.4127 102.855 61.6856 101.496C59.9446 105.912 56.7177 110.914 50.7577 113.481C43.0064 116.825 34.7535 117.254 29.6084 114.692C28.3613 115.508 27.1753 116.409 26.055 117.388C31.4026 118.564 36.9628 118.868 42.4272 119.281C43.6121 119.328 44.5338 120.333 44.485 121.517C44.438 122.716 43.4335 123.635 42.2479 123.589C39.5089 123.454 36.8387 123.312 34.0746 122.881C32.4106 122.63 30.746 122.504 29.1053 122.334C29.2321 123.476 29.3807 124.615 29.5466 125.752C30.3341 125.728 31.1224 125.718 31.9085 125.718C35.4157 125.718 38.7891 125.97 42.3312 126.591C45.1558 127.095 48.0022 127.717 49.701 130.322C50.6834 131.844 50.6458 133.315 50.587 134.846C50.576 136.03 49.6056 136.988 48.421 136.975C47.2254 136.975 46.2675 135.994 46.2799 134.808C46.3145 133.841 46.6027 132.74 45.6576 132.191C42.7818 130.478 39.5932 130.509 36.4347 130.224C36.7962 130.64 37.018 131.178 37.018 131.771C37.018 133.074 35.9516 134.141 34.6496 134.141C33.3461 134.141 32.28 133.074 32.28 131.771C32.28 131.075 32.5838 130.453 33.0644 130.018C32.1262 129.997 31.1883 129.999 30.2471 130.026C30.6372 132.217 31.0605 134.404 31.4787 136.591C31.5858 137.778 30.7129 138.819 29.5383 138.938C28.3554 139.044 27.3032 138.171 27.1953 136.988C26.7278 134.757 26.2993 132.519 25.9133 130.273C23.2618 130.515 20.6472 130.975 18.126 131.915C17.5803 132.12 16.9262 132.354 16.291 132.643C15.4517 135.517 15 138.558 15 141.704C15 146.86 16.2108 151.733 18.36 156.058C24.5345 154.857 30.7889 154.231 37.0371 153.525C38.212 153.365 39.2988 154.189 39.4598 155.367C39.6209 156.539 38.804 157.625 37.6193 157.797C31.9535 158.409 26.2969 159.039 20.6859 160.001C24.218 165.127 29.1948 169.182 35.0272 171.578C33.785 168.842 32.7161 166.023 31.6763 163.21C31.3352 162.071 31.9811 160.868 33.1208 160.527C34.2601 160.184 35.463 160.833 35.8034 161.972C37.185 165.63 38.5617 169.327 40.405 172.78C40.962 171.724 41.4838 170.649 41.8173 169.491C42.1137 168.343 43.2891 167.652 44.446 167.947C45.5957 168.245 46.2861 169.417 45.9893 170.567C45.6402 171.697 45.2059 172.809 44.6983 173.885C45.5515 173.952 46.414 173.987 47.2845 173.987C49.9142 173.987 52.4676 173.671 54.9152 173.078C53.0903 167.582 49.5407 165.195 49.3713 165.083C49.3783 165.09 49.3741 165.086 49.3824 165.09C48.3453 164.429 48.0412 163.051 48.7023 162.014C49.3651 160.978 50.7418 160.671 51.7782 161.334C52.0084 161.481 56.8097 164.622 59.1595 171.733C64.8945 169.463 69.8236 165.596 73.4009 160.683C74.3826 156.592 73.9846 153.484 72.1897 151.423C67.6369 146.188 54.693 147.72 49.7072 148.822C49.7272 150.219 49.7272 151.616 49.6454 153.008C49.6022 154.197 48.5928 155.122 47.4027 155.078C46.226 155.037 45.2889 154.023 45.3445 152.847C45.5701 148.773 45.1216 144.687 45.4917 140.611C45.6555 139.439 46.7471 138.609 47.9214 138.772C49.0938 138.934 49.9215 140.026 49.7584 141.201C49.6789 142.23 49.6499 143.261 49.6454 144.295C54.1042 143.437 69.1805 141.192 75.5444 148.495C76.5445 149.641 77.2779 150.95 77.7478 152.409C78.9258 149.059 79.5662 145.456 79.5662 141.704C79.5662 140.817 79.5285 139.933 79.4566 139.062C77.4848 134.687 75.0393 131.715 73.2679 129.951C72.8746 132.38 71.9316 135.494 69.6947 137.802ZM55.3164 114.382C55.6983 113.311 56.885 112.746 57.9569 113.136C59.6813 113.808 61.4036 114.499 63.0689 115.3C64.1117 115.768 64.5717 116.994 64.1021 118.036C63.6335 119.07 62.4088 119.543 61.3645 119.063C59.7957 118.308 58.1784 117.664 56.5601 117.024C55.4879 116.64 54.9242 115.454 55.3164 114.382ZM23.1509 131.525C24.2584 131.525 25.1645 132.434 25.1645 133.543C25.1645 134.651 24.2584 135.555 23.1509 135.555C22.0443 135.555 21.1383 134.651 21.1383 133.543C21.1383 132.434 22.0443 131.525 23.1509 131.525ZM19.6817 135.636C21.1621 135.636 22.374 136.847 22.374 138.326C22.374 139.809 21.1621 141.022 19.6817 141.022C18.2007 141.022 16.9897 139.809 16.9897 138.326C16.9897 136.847 18.2007 135.636 19.6817 135.636ZM34.1177 151.966C31.149 152.295 28.1581 152.35 25.1859 152.607C24.0131 152.799 22.9058 152.002 22.7144 150.829C22.5237 149.658 23.3188 148.551 24.491 148.358C27.5834 148.012 30.706 148.037 33.7991 147.672C34.9841 147.582 36.0197 148.475 36.1099 149.658C36.1935 150.847 35.3068 151.876 34.1177 151.966ZM43.1639 150.769C43.0503 151.955 41.997 152.821 40.812 152.709C39.6274 152.588 38.7597 151.534 38.8807 150.352C39.1841 148.796 39.0403 147.031 37.7604 145.924C36.293 145.148 34.5704 145.446 32.9922 145.398C31.867 145.369 30.7498 145.41 29.6178 145.507C26.556 145.758 23.4795 146.074 20.6027 147.157C19.5622 147.724 18.2514 147.341 17.6837 146.294C17.1159 145.254 17.4974 143.945 18.5445 143.376C20.8781 142.214 23.4325 141.977 26.035 141.547C28.3554 141.157 30.5871 141.103 32.8723 141.085C35.5525 141.061 38.5386 140.893 40.7287 142.856C42.9832 144.889 43.6774 147.935 43.1639 150.769ZM40.1423 140.637C38.1868 140.637 36.5878 139.037 36.5878 137.083C36.5878 135.129 38.1868 133.528 40.1423 133.528C42.0961 133.528 43.6958 135.129 43.6958 137.083C43.6958 139.037 42.0961 140.637 40.1423 140.637ZM55.0762 150.732C55.6983 149.719 57.0235 149.395 58.0374 150.016C59.0503 150.641 59.3734 151.966 58.7504 152.981C58.5039 153.337 58.2666 153.747 58.0654 154.18C61.2236 153.556 64.4722 153.583 67.6217 152.844C68.7794 152.592 69.9232 153.319 70.1851 154.487C70.4349 155.65 69.7085 156.792 68.5371 157.051C65.2359 157.851 61.8065 157.793 58.4918 158.487C58.5696 158.546 58.6504 158.603 58.7379 158.654C61.0107 160.033 63.6134 160.78 66.2474 161.034C67.4434 161.116 68.3384 162.147 68.2482 163.328C68.1697 164.512 67.1386 165.408 65.9546 165.329C61.8349 164.81 57.1721 163.859 54.4549 160.37C52.186 157.47 53.1992 153.566 55.0762 150.732Z" fill="#0054A7"/>
<path d="M57.8946 129.828C56.3762 132.31 57.3469 134.485 57.3905 134.575C57.3905 134.575 57.3856 134.565 57.3763 134.548C57.3828 134.561 57.3883 134.573 57.3956 134.587C57.8912 135.635 60.1536 136.349 61.5874 136.519C63.6783 136.542 65.2835 135.953 66.4861 134.717C68.6963 132.45 69.0394 128.62 69.0837 127.059C61.9602 124.179 58.3687 129.113 57.8946 129.828Z" fill="#F5A200"/>
<path d="M23.1513 135.555C24.2588 135.555 25.1649 134.651 25.1649 133.543C25.1649 132.434 24.2588 131.525 23.1513 131.525C22.0448 131.525 21.1387 132.434 21.1387 133.543C21.1387 134.651 22.0448 135.555 23.1513 135.555Z" fill="#E60012"/>
<path d="M19.6822 141.022C21.1626 141.022 22.3745 139.809 22.3745 138.326C22.3745 136.847 21.1626 135.636 19.6822 135.636C18.2011 135.636 16.9902 136.847 16.9902 138.326C16.9902 139.809 18.2011 141.022 19.6822 141.022Z" fill="white"/>
<path d="M33.0647 130.018C32.584 130.453 32.2803 131.075 32.2803 131.771C32.2803 133.074 33.3464 134.141 34.6499 134.141C35.9519 134.141 37.0183 133.074 37.0183 131.771C37.0183 131.178 36.7965 130.64 36.435 130.224C36.3238 130.213 36.2094 130.202 36.096 130.192C35.0804 130.095 34.0717 130.04 33.0647 130.018Z" fill="white"/>
<path d="M34.6496 129.404C34.0414 129.404 33.4857 129.636 33.0645 130.018C34.0715 130.04 35.0802 130.095 36.0958 130.192C36.2091 130.202 36.3235 130.213 36.4347 130.224C36.0007 129.72 35.3611 129.404 34.6496 129.404Z" fill="white"/>
<path d="M40.1424 133.528C38.1868 133.528 36.5879 135.129 36.5879 137.083C36.5879 139.037 38.1868 140.637 40.1424 140.637C42.0962 140.637 43.6959 139.037 43.6959 137.083C43.6959 135.129 42.0962 133.528 40.1424 133.528Z" fill="#E60012"/>
<path d="M65.9544 165.329C67.1384 165.408 68.1695 164.512 68.248 163.328C68.3382 162.147 67.4432 161.116 66.2471 161.034C63.6132 160.78 61.0105 160.033 58.7377 158.654C58.6502 158.603 58.5694 158.546 58.4916 158.487C61.8063 157.793 65.2357 157.851 68.5369 157.051C69.7083 156.792 70.4347 155.65 70.1849 154.487C69.923 153.319 68.7791 152.592 67.6215 152.844C64.472 153.583 61.2233 153.556 58.0652 154.18C58.2664 153.747 58.5037 153.337 58.7501 152.981C59.3732 151.966 59.0501 150.641 58.0372 150.016C57.0233 149.395 55.6981 149.719 55.076 150.732C53.1989 153.566 52.1858 157.47 54.4547 160.37C57.1719 163.859 61.8347 164.81 65.9544 165.329Z" fill="#7FBE26"/>
<path d="M40.7288 142.856C38.5386 140.893 35.5525 141.061 32.8723 141.085C30.5871 141.103 28.3555 141.157 26.035 141.547C23.4325 141.977 20.8781 142.214 18.5445 143.376C17.4975 143.945 17.116 145.254 17.6837 146.294C18.2515 147.341 19.5622 147.724 20.6027 147.157C23.4796 146.074 26.5561 145.758 29.6178 145.507C30.7499 145.41 31.8671 145.369 32.9923 145.398C34.5704 145.446 36.2931 145.148 37.7604 145.924C39.0404 147.031 39.1841 148.796 38.8807 150.352C38.7598 151.534 39.6274 152.588 40.8121 152.709C41.997 152.821 43.0503 151.955 43.164 150.769C43.6775 147.935 42.9832 144.889 40.7288 142.856Z" fill="white"/>
<path d="M33.7995 147.672C30.7063 148.037 27.5838 148.012 24.4914 148.358C23.3192 148.551 22.524 149.658 22.7148 150.829C22.9062 152.002 24.0134 152.799 25.1863 152.607C28.1585 152.35 31.1494 152.295 34.1181 151.966C35.3072 151.876 36.1939 150.847 36.1103 149.658C36.0201 148.475 34.9844 147.582 33.7995 147.672Z" fill="white"/>
<path d="M53.3783 136.504C53.3783 136.502 53.3762 136.499 53.3755 136.496C53.3755 136.494 53.3745 136.493 53.3721 136.493C53.3755 136.495 53.3777 136.501 53.3783 136.504Z" fill="white"/>
<path d="M114.929 137.806C113.632 137.806 112.305 137.92 110.971 138.133C110.47 136.148 110.111 134.647 109.878 133.566L129.475 133.617L130.03 133.619L130.277 133.123C130.526 132.625 130.653 131.807 130.653 130.694C130.653 129.507 130.526 128.65 130.277 128.151L130.083 127.761L129.655 127.674C127.378 127.206 123.815 126.979 118.764 126.979C118.76 126.979 110.958 127.021 108.531 127.033C107.888 124.331 107.336 122.313 107.064 121.706L106.829 121.171H106.246C104.913 121.171 103.357 121.416 101.342 121.934L100.6 122.126L100.675 122.89C100.776 123.892 100.998 125.308 101.333 127.105L92.5898 127.204L91.9546 127.215L91.7525 127.816C91.4968 128.58 91.3682 129.362 91.3682 130.128C91.3682 131.348 91.4435 132.102 91.8457 132.607L91.9916 132.788L92.2055 132.876C93.5528 133.425 96.9163 133.756 102.468 133.886L103.018 136.58C103.345 138.194 103.602 139.451 103.809 140.398C100.886 141.806 98.4163 143.711 96.4763 146.083C94.16 148.784 92.7694 152.55 92.7694 156.14C92.7694 158.13 93.5684 159.668 95.1424 160.717C96.4013 161.601 98.0542 162.052 100.038 162.052C102.452 162.052 105.288 161.244 108.472 159.665C108.705 160.323 108.985 160.984 109.329 161.67L109.502 162.016L109.873 162.129C110.665 162.364 111.656 162.225 112.901 161.7C114.04 161.323 114.846 160.837 115.299 160.229L115.537 159.913C115.538 159.916 115.463 159.526 115.463 159.526L114.78 155.917L114.71 155.555C116.596 153.834 118.494 151.781 120.361 149.422L120.818 148.843L120.338 148.283C119.269 147.035 118.005 145.953 116.581 145.064L115.977 144.685L115.474 145.19C114.414 146.249 113.566 147.061 112.924 147.654L112.418 144.888C114.225 144.553 115.54 144.333 116.113 144.333C118.889 144.333 121.194 145.283 122.961 147.151C124.419 148.703 125.361 151.458 125.361 154.165C125.361 155.205 125.225 156.289 124.932 157.576L124.79 158.198L125.332 158.534C126.643 159.347 128.237 159.742 130.202 159.742H130.847L131.052 159.13C131.679 157.24 132 155.342 132 153.49C132 149.795 130.772 146.02 128.714 143.394C125.723 139.683 121.088 137.806 114.929 137.806ZM99.952 155.322C99.9441 155.304 99.9182 155.235 99.9182 155.068C99.9182 152.228 101.99 149.321 105.391 147.29L106.559 152.903C106.132 153.254 105.346 153.765 103.924 154.356C102.403 155.011 101.124 155.357 100.206 155.357C100.04 155.357 99.9707 155.331 99.952 155.322Z" fill="#0054A7"/>
<path d="M170.637 128.274L170.305 128.043C169.782 127.675 168.348 127.284 156.933 126.52C156.315 122.272 155.913 121.68 155.462 121.377L155.264 121.248C155.261 121.247 155.029 121.23 155.029 121.23L154.482 121.187C153.929 121.147 153.491 121.115 153.159 121.115C152.455 121.115 151.629 121.264 150.482 121.603L149.84 121.792V122.463C149.84 123.611 149.901 124.808 150.019 126.08C142.442 125.687 137.277 125.629 135.059 125.913L134.757 125.953L134.541 126.171C133.969 126.739 133.715 127.668 133.715 129.17C133.715 130.334 133.894 131.127 134.276 131.662L134.386 131.821L134.553 131.917C135.125 132.25 136.862 132.641 150.654 133.403L150.762 134.479C150.968 136.558 151.123 138.134 151.252 139.212C145.456 143.773 142.51 148.324 142.51 152.736C142.51 156.689 145.773 159.697 152.481 161.933C154.339 162.589 155.845 162.936 156.826 162.936H157.421L157.652 162.386C158.198 161.073 158.619 159.752 158.937 158.351L159.112 157.585L158.375 157.312C150.069 154.244 149.624 152.889 149.6 152.733C149.602 151.87 150.132 150.246 152.645 147.412C154.238 145.6 155.921 144.078 157.791 142.756L158.059 142.568L158.143 142.253C158.339 141.507 158.472 139.836 157.825 133.669C167.258 134.141 169.283 133.946 169.975 133.754L170.549 133.595C170.549 133.592 170.625 133.002 170.625 133.002L170.68 132.557C170.776 131.826 170.856 131.198 170.856 130.579C170.856 130.328 170.817 129.867 170.682 128.676L170.637 128.274Z" fill="#0054A7"/>
<path d="M214.642 135.097L214.039 134.951C210.563 134.114 208.617 133.688 207.627 133.688C205.039 133.688 204.761 135.457 204.761 136.219C204.761 140.425 204.194 143.975 203.076 146.768C201.522 150.755 198.917 152.691 195.11 152.691C191.332 152.691 188.606 151.88 187.012 150.288C185.779 149.055 185.179 147.347 185.179 145.071C185.179 141.595 186.668 136.777 189.599 130.746C190.941 127.784 191.324 126.766 191.324 126.181C191.324 125.694 191.148 125.255 190.808 124.915C190.297 124.407 189.474 124.159 188.288 124.159C186.218 124.159 183.847 124.452 180.83 125.079C177.989 125.658 175.613 126.364 173.777 127.164L173.162 127.434L173.248 128.1C173.559 130.534 173.99 132.047 174.603 132.865L174.931 133.303L175.47 133.212L181.204 132.238C179.218 137.155 178.202 141.432 178.202 144.958C178.202 149.547 179.953 153.2 183.406 155.819C186.473 158.179 190.286 159.328 195.055 159.328C200.796 159.328 205.213 156.712 208.179 151.549C210.017 148.359 211.085 144.812 211.384 140.991L212.998 141.273L213.64 141.386L213.942 140.812C214.539 139.69 214.837 138.467 214.837 137.177C214.837 136.669 214.777 136.183 214.718 135.71L214.642 135.097Z" fill="#0054A7"/>
<path d="M255.826 128.636C253.283 126.726 251.886 125.77 250.996 125.325L250.463 125.059C250.467 125.058 250.016 125.442 250.016 125.442L249.162 126.173C248.88 126.414 248.656 126.607 248.513 126.722L248.402 126.815C248.405 126.805 248.329 126.927 248.329 126.927L247.644 127.967L247.145 128.731L246.88 129.133C246.876 129.139 247.065 129.578 247.065 129.578C247.465 130.511 248.747 131.749 251.351 133.717C253.75 135.662 255.147 136.646 256.149 137.092L256.535 137.263L256.914 137.076C257.624 136.719 258.273 136.184 258.893 135.438C259.412 134.805 259.816 134.12 260.108 133.393L260.266 133L260.063 132.632C259.905 132.342 259.427 131.463 255.826 128.636Z" fill="#0054A7"/>
<path d="M239.68 132.082C242.218 127.48 242.707 126.365 242.83 125.911L242.934 125.533L242.726 125.198C242.364 124.621 241.634 124.038 240.43 123.369L240.362 123.335L240.291 123.307C239.189 122.919 238.427 122.692 237.793 122.692H237.369L237.103 123.019C236.586 123.654 235.158 125.994 232.366 130.789C227.463 130.049 223.27 129.685 219.583 129.685H218.97L218.75 130.256C218.322 131.352 218.122 132.188 218.122 132.89C218.122 134.436 218.332 135.275 218.837 135.782L218.977 135.922L219.168 135.989C220.081 136.314 221.609 136.547 223.59 136.66C224.956 136.833 226.61 137.083 228.584 137.401C220.242 151.763 218.832 154.678 218.51 155.604L218.4 155.926L218.533 156.24C218.882 157.082 219.554 157.793 220.587 158.413C221.44 159.026 222.288 159.328 223.192 159.328H223.402L223.59 159.234C224.048 159.005 224.675 158.682 235.996 138.639L243.402 140.191L245.848 140.705L244.459 154.906L244.4 155.531L244.966 155.801C246.169 156.375 247.336 156.678 248.339 156.678C249.015 156.678 249.604 156.569 250.194 156.333L250.654 156.15L250.743 155.66C252.193 147.591 252.898 141.288 252.898 136.388V135.92L252.515 135.651C252.001 135.296 250.467 134.23 239.68 132.082Z" fill="#0054A7"/>
<path d="M301.037 135.224C298.702 133.561 295.698 132.73 292.095 132.73C289.203 132.73 286.463 133.12 283.915 133.89C283.957 133.821 283.997 133.756 284.039 133.689L284.559 132.863L285.102 132.01C285.102 132.006 284.189 131.574 284.189 131.574C283.125 131.072 281.382 130.64 278.891 130.261V122.055L278.37 121.815C277.582 121.457 276.722 121.284 275.741 121.284C274.919 121.284 274.051 121.436 273.315 121.584L272.619 121.722L272.592 122.429L272.345 129.375C268.627 129.039 266.114 128.899 264.713 128.952L264.082 128.977L263.895 129.579C263.601 130.518 263.457 131.342 263.457 132.101C263.457 133.122 263.59 134.004 263.849 134.718L264.033 135.225L264.567 135.301L264.897 135.349L272.223 136.322L272.153 138.173L264.814 148.491L264.518 148.905C264.511 148.915 264.718 149.38 264.718 149.38C264.977 149.963 265.444 150.541 266.23 151.259C266.732 151.759 267.451 152.221 268.343 152.602L268.893 152.839L269.323 152.419L272.154 149.621L272.536 160.663L272.548 160.984L272.762 161.227C273.38 161.922 274.317 162.261 275.628 162.261C276.282 162.261 278.266 162.261 278.831 160.851L278.891 160.695V160.522L278.949 143.83C282.694 140.952 287.071 139.537 292.32 139.537C294.638 139.537 296.296 140.017 297.243 140.966C297.916 141.643 298.247 142.56 298.247 143.775C298.247 145.978 297.677 148.432 296.511 151.271C295.873 152.754 294.688 155.087 292.887 158.401L292.612 158.905L292.955 159.366C293.516 160.113 294.153 160.703 294.847 161.119C295.199 161.353 295.834 161.634 297.087 162.09L297.765 162.343L298.152 161.729C302.697 154.483 305 148.383 305 143.603C305 140.095 303.628 137.2 301.037 135.224Z" fill="#0054A7"/>
<path d="M101.91 110.643C103.501 110.263 104.931 109.391 106.162 108.271C107.348 107.174 108.041 105.943 108.041 104.196C108.041 103.104 107.638 101.516 106.251 100.687C105.938 100.506 105.604 100.373 105.357 100.284C104.485 102.7 101.734 105.522 101.15 106.033C101.62 106.727 101.734 106.904 101.734 107.331C101.734 107.98 101.306 108.717 100.771 108.717C100.01 108.717 99.5842 107.777 99.3828 107.353C98.1981 108.203 96.5422 109.367 95.0649 109.367C94.1941 109.367 93.8582 108.63 93.7009 108.292C93.5227 107.891 93.4781 107.847 93.0748 107.443C92.874 107.24 92.6943 106.95 92.6943 106.372C92.6943 104.958 94.4166 102.207 98.4888 100.373C98.5334 99.6802 98.5776 99.0119 98.8471 97.2861C97.9511 97.4416 97.414 97.5321 96.7215 97.5321C95.6471 97.5321 94.9087 97.3967 94.2165 96.6834C93.6578 96.1236 93.5665 95.7635 93.5227 95.541C94.5286 96.0109 96.0059 96.0109 96.1171 96.0109C96.3404 96.0109 97.3694 95.9896 99.1149 95.6743C99.4508 93.8173 99.4726 93.7067 99.4726 93.3474C99.4726 92.2539 98.9363 92.0487 97.7503 91.6479C97.9973 91.446 98.5112 90.9982 99.3828 90.9982C100.771 90.9982 102.18 91.9181 102.18 92.6099C102.18 92.9244 102.135 93.037 101.664 93.9079C101.485 94.2666 101.284 94.7358 101.128 95.1816C101.576 95.0475 102.426 94.7801 103.411 94.2666C103.813 94.0412 103.992 93.9756 104.238 93.9756C104.863 93.9756 105.983 94.5575 105.983 95.1387C105.983 95.5859 105.402 95.8105 105.043 95.9667C103.992 96.3662 102.068 96.7284 100.568 96.9945C100.346 97.8701 100.189 98.6054 100.056 99.7914C100.905 99.544 101.8 99.3215 103.298 99.2309C103.186 98.7845 103.119 98.6269 102.785 98.0906C104.105 97.9579 104.954 98.4949 105.357 99.3215C105.916 99.41 106.946 99.5897 108.154 100.284C109.631 101.154 110.636 102.722 110.636 104.51C110.636 106.28 109.608 110.084 101.91 110.799V110.643ZM100.457 104.601C101.061 103.955 102.65 102.052 103.277 99.9705C101.8 99.9705 100.86 100.196 99.9881 100.484C99.898 102.343 100.123 103.574 100.457 104.601ZM98.4442 101.201C95.2895 103.124 94.4166 106.033 94.4166 106.727C94.4166 107.018 94.4844 107.711 95.379 107.711C95.737 107.711 97.1241 107.422 98.9583 105.967C98.5334 104.221 98.3989 102.813 98.4442 101.201Z" fill="#0054A7"/>
<path d="M114.394 104.625C116.005 104.958 117.481 105.294 118.8 106.372C119.897 107.263 120.277 108.182 120.277 108.963C120.277 109.726 119.673 110.53 118.754 110.53C117.793 110.53 117.527 109.858 117.011 108.561C116.139 106.303 114.885 105.317 114.28 104.869L114.394 104.625Z" fill="#0054A7"/>
<path d="M134.372 94.7358V92.8787H130.591C129.225 92.8787 128.734 92.9244 128.175 93.037L127.816 92.2076C129.203 92.3418 130.769 92.3418 130.994 92.3418H140.434L141.262 91.1578C141.329 91.0438 141.44 90.8869 141.597 90.8869C141.754 90.8869 141.888 90.9767 142.022 91.088L143.478 92.2982C143.587 92.388 143.7 92.498 143.7 92.6334C143.7 92.8573 143.521 92.8787 143.364 92.8787H136.586L136.608 94.7358H142.335L143.207 93.9984C143.32 93.9079 143.455 93.7765 143.61 93.7765C143.79 93.7765 143.923 93.9079 144.081 94.0868L145.558 95.72C145.645 95.8319 145.781 95.9896 145.781 96.1699C145.781 96.7283 144.997 96.7283 144.64 96.7283C144.527 96.7283 144.437 96.7048 144.192 96.6834C143.856 96.9267 143.767 96.9723 143.052 97.4195C142.38 97.8231 141.955 98.1348 141.709 98.3138L141.554 98.2488C141.888 97.4879 142.201 96.19 142.425 95.2721H136.608C136.608 95.6743 136.608 97.4879 136.632 97.8701C136.632 98.1811 136.699 100.395 136.699 100.506C136.699 101.648 135.423 101.784 135.132 101.784C134.752 101.784 134.26 101.625 134.26 101.022C134.26 100.865 134.328 100.217 134.328 100.083C134.328 99.8364 134.372 98.7409 134.372 95.2721H128.532C128.577 95.4981 128.623 95.72 128.623 96.0787C128.623 97.2411 128.131 98.7174 126.831 98.7174C126.272 98.7174 125.603 98.3373 125.603 97.5093C125.603 97.04 125.692 96.9723 126.43 96.3019C126.853 95.9218 127.659 94.9376 127.839 93.8387H127.995C128.197 94.1767 128.263 94.3563 128.398 94.7358H134.372ZM130.524 109.726C129.137 109.726 128.645 109.768 128.108 109.883L127.637 109.055C129.046 109.142 130.009 109.186 130.926 109.186H140.59V106.372H130.836C129.472 106.372 128.981 106.412 128.419 106.525L127.973 105.699C129.383 105.787 130.345 105.831 131.24 105.831H140.59V103.329H130.679C129.316 103.329 128.823 103.371 128.263 103.483L127.816 102.655C129.225 102.746 130.189 102.79 131.082 102.79H140.412L141.194 101.693C141.284 101.537 141.397 101.402 141.554 101.402C141.709 101.402 141.843 101.492 141.977 101.604L143.478 102.768C143.587 102.856 143.744 102.99 143.744 103.192C143.744 103.483 143.253 103.75 142.894 103.976C142.894 104.377 142.873 105.741 142.873 107.042C142.873 107.554 142.961 109.413 142.961 109.588C142.961 109.947 142.961 111.065 141.463 111.065C140.434 111.065 140.523 110.239 140.568 109.726H130.524ZM131.284 99.9048L131.866 99.0976C131.979 98.9392 132.067 98.8073 132.202 98.8073C132.336 98.8073 132.448 98.8964 132.536 98.9849L133.341 99.8591C133.432 99.9476 133.544 100.06 133.544 100.196C133.544 100.395 133.365 100.442 133.208 100.442H129.695C129.606 100.442 129.159 100.442 128.667 100.506L128.309 99.8364C129.137 99.8813 129.919 99.9048 130.099 99.9048H131.284ZM140.032 99.8813L140.657 99.054C140.77 98.9199 140.859 98.7623 141.016 98.7623C141.172 98.7623 141.329 98.9199 141.44 99.0298L142.133 99.8143C142.315 100.06 142.335 100.105 142.335 100.172C142.335 100.373 142.156 100.415 141.977 100.415H138.689C138.577 100.415 138.152 100.415 137.66 100.484L137.279 99.8143C138.107 99.8591 138.912 99.8813 139.092 99.8813H140.032ZM131.35 97.2211L131.888 96.4125C131.955 96.3019 132.089 96.1236 132.268 96.1236C132.403 96.1236 132.536 96.2577 132.649 96.3662L133.386 97.1506C133.454 97.2211 133.611 97.3966 133.611 97.5093C133.611 97.7111 133.432 97.7547 133.252 97.7547H130.031C129.941 97.7547 129.495 97.7547 129.002 97.8231L128.645 97.1506C129.472 97.1976 130.255 97.2211 130.434 97.2211H131.35ZM139.472 97.2211L140.011 96.5024C140.143 96.322 140.231 96.2113 140.368 96.2113C140.523 96.2113 140.657 96.3475 140.747 96.4125L141.463 97.1748C141.577 97.2861 141.665 97.3753 141.665 97.5093C141.665 97.7111 141.486 97.7547 141.329 97.7547H138.556C138.444 97.7547 137.994 97.7547 137.525 97.8231L137.144 97.1506C137.973 97.1976 138.778 97.2211 138.957 97.2211H139.472Z" fill="#0054A7"/>
<path d="M157.525 109.01C160.814 107.711 164.571 105.095 164.571 100.263C164.571 97.0187 162.535 94.2665 158.195 94.2665C157.57 94.2665 157.391 94.3101 157.123 94.3992C157.548 94.601 157.993 94.8471 158.486 95.3606C158.865 95.7635 159.114 96.2777 159.114 96.7048C159.114 97.5093 157.525 100.733 156.964 101.805C156.473 102.746 154.28 106.771 152.96 107.422C152.759 107.531 152.559 107.579 152.357 107.579C151.664 107.579 151.374 107.13 150.768 106.167C150.479 105.719 150.456 105.699 149.874 105.205C149.202 104.647 148.866 103.574 148.866 102.522C148.866 97.577 153.117 93.5063 158.709 93.5063C163.027 93.5063 167.234 96.0331 167.234 100.821C167.234 103.08 166.361 105.004 164.571 106.525C162.334 108.426 158.912 108.963 157.57 109.163L157.525 109.01ZM150.813 102.207C150.813 103.146 151.238 105.339 152.178 105.339C153.073 105.339 154.191 103.014 155.108 101.109C155.622 100.04 156.921 97.2861 156.921 95.9896C156.921 95.2279 156.54 94.7358 156.384 94.536C153.789 95.2963 150.813 98.5177 150.813 102.207Z" fill="#0054A7"/>
<path d="M183.474 98.9199C183.585 99.0119 183.677 99.1432 183.677 99.3215C183.677 99.7472 183.274 99.7244 182.423 99.656C180.253 100.709 178.689 101.358 176.561 101.872V104.021C176.561 104.78 177.031 104.78 179.045 104.78C181.776 104.78 182.133 104.689 182.826 101.561H183.052C183.518 103.574 183.563 103.797 183.988 104.087C184.258 104.266 184.572 104.467 184.572 104.78C184.572 105.183 184.211 105.766 183.833 106.079C182.826 106.904 181.261 107.042 178.575 107.042C174.772 107.042 174.237 106.5 174.237 104.175C174.237 102.543 174.258 99.9048 174.237 98.271C174.237 97.9344 174.237 97.8017 174.214 97.577C172.535 99.8813 170.924 101.087 169.738 101.894L169.583 101.739C172.245 98.3836 173.877 94.4905 174.661 91.7377C174.863 90.9767 174.863 90.6872 174.863 90.2628L178.017 91.558C178.331 91.6679 178.441 91.804 178.441 91.9823C178.441 92.3418 177.973 92.4302 177.257 92.6099C176.697 93.6162 176.539 93.8857 176.204 94.4462H186.362L187.168 93.5063C187.344 93.3038 187.436 93.2147 187.592 93.2147C187.748 93.2147 187.95 93.3936 188.039 93.4607L189.603 94.6902C189.718 94.7801 189.917 94.9611 189.917 95.1387C189.917 95.4981 189.268 95.832 189.046 95.9667C189 100.172 188.958 106.75 186.987 109.367C185.69 111.112 183.452 111.181 182.58 111.202C182.492 110.575 182.334 109.3 180.499 108.138L180.589 107.959C181.238 108.046 182.847 108.271 183.633 108.271C184.326 108.271 185.197 108.271 185.713 106.412C186.563 103.329 186.585 101.176 186.563 94.9812H175.89C175.397 95.8105 175.265 96.0109 174.93 96.5252L176.808 96.9945C176.942 97.04 177.301 97.1271 177.301 97.4637C177.301 97.7789 176.877 98.047 176.561 98.226V101.47C177.792 100.687 178.957 99.656 179.581 99.054C180.658 97.9807 180.832 97.5321 181.035 97.0635L183.474 98.9199Z" fill="#0054A7"/>
<path d="M202.222 99.8363C202.199 99.8591 202.109 100.06 202.109 100.083C201.17 102.566 201.056 102.833 200.208 104.98C200.029 105.542 200.007 105.719 200.007 105.809C200.007 106.056 200.32 107.086 200.32 107.31C200.32 107.935 199.872 108.338 199.246 108.338C197.39 108.338 195.107 105.611 194.816 101.625C194.773 100.933 194.704 97.9129 194.636 97.2861C194.481 95.72 194.235 95.2721 193.631 94.1311C195.354 94.2665 196.315 95.118 196.695 95.541C196.898 95.7428 197.255 96.1699 197.255 97.04C197.255 97.2861 197.209 97.4879 197.165 97.7319C196.852 99.0976 196.606 100.284 196.606 101.447C196.606 103.548 197.59 104.98 198.016 104.98C198.306 104.98 198.866 104.266 199.179 103.839C199.94 102.856 201.66 100.373 202.043 99.77L202.222 99.8363ZM206.247 102.387C206.45 102.363 208.507 102.143 208.753 102.052C208.865 102.027 209.113 101.872 209.113 101.447C209.113 101.067 208.823 99.6559 208.037 98.3836C207.277 97.1271 206.247 96.2342 205.602 95.72C208.529 95.6743 211.841 99.1666 211.841 102.387C211.841 103.708 211.148 104.714 210.544 104.714C210.12 104.714 209.895 104.49 209.358 103.839C209.067 103.503 208.912 103.307 208.127 103.014C207.412 102.746 206.674 102.609 206.247 102.543V102.387Z" fill="#0054A7"/>
</g>
<defs>
<clipPath id="clip0_4880_19306">
<rect width="290" height="106.987" fill="white" transform="translate(15 67)"/>
</clipPath>
</defs>
</svg>
