<svg width="320" height="240" viewBox="0 0 320 240" fill="none" xmlns="http://www.w3.org/2000/svg">
<g clip-path="url(#clip0_4880_18942)">
<path d="M89.0021 166.327L90.5771 166.238C90.4219 167.703 91.0874 168.457 92.4183 168.457C93.8604 168.457 95.014 167.703 95.014 166.505C95.014 165.573 94.5703 165.173 93.7052 164.907L92.3074 164.486C91.1095 164.131 90.3775 163.177 90.3775 161.89C90.3775 159.872 92.1522 158.563 94.6146 158.563C96.5668 158.563 97.9866 159.65 97.7204 161.691L96.212 161.779C96.2786 160.67 95.613 159.983 94.4371 159.983C92.9287 159.983 92.0412 160.692 92.0412 161.735C92.0412 162.533 92.5516 163.044 93.4833 163.332L94.659 163.687C95.8569 164.042 96.7 164.73 96.7 166.238C96.7 168.568 94.7033 169.921 92.2631 169.921C90.0668 169.921 88.647 168.568 89.0021 166.327Z" fill="black"/>
<path d="M98.5625 165.884C98.5625 161.935 101.025 158.563 104.619 158.563C106.793 158.563 108.279 160.093 108.279 162.578C108.279 166.549 105.839 169.921 102.201 169.921C100.027 169.921 98.5625 168.39 98.5625 165.884ZM106.615 162.733C106.615 161.003 105.706 160.027 104.308 160.027C101.912 160.027 100.226 162.844 100.226 165.75C100.226 167.481 101.114 168.457 102.489 168.457C104.929 168.457 106.615 165.662 106.615 162.733Z" fill="black"/>
<path d="M109.676 165.728L111.451 158.829H113.092L111.34 165.595C110.896 167.325 111.672 168.634 113.358 168.634C114.845 168.634 115.998 167.436 116.486 165.551L118.217 158.829H119.858L117.063 169.655H115.51L115.932 168.013H115.843C115.266 169.034 114.334 169.921 112.56 169.921C110.386 169.921 109.099 167.968 109.676 165.728Z" fill="black"/>
<path d="M122.32 158.829H123.872L123.429 160.47H123.518C124.117 159.45 125.048 158.563 126.823 158.563C129.019 158.563 130.284 160.515 129.707 162.755L127.932 169.655H126.291L128.043 162.889C128.487 161.158 127.71 159.849 126.002 159.849C124.516 159.849 123.362 161.047 122.874 162.933L121.166 169.655H119.524L122.32 158.829Z" fill="black"/>
<path d="M131.126 165.75C131.126 161.89 133.544 158.563 136.983 158.563C138.713 158.563 139.578 159.583 139.845 160.848H139.933L141.686 154.125H143.327L139.312 169.655H137.759L138.247 167.725H138.158C137.559 168.989 136.339 169.921 134.631 169.921C132.701 169.921 131.126 168.39 131.126 165.75ZM139.334 162.711C139.334 161.003 138.402 160.027 136.96 160.027C134.565 160.027 132.812 162.622 132.812 165.617C132.812 167.414 133.699 168.457 135.075 168.457C137.759 168.457 139.334 165.351 139.334 162.711Z" fill="black"/>
<path d="M149.027 158.829H150.58L150.159 160.382H150.247C150.891 159.383 151.889 158.563 153.309 158.563C154.773 158.563 155.527 159.295 155.771 160.382H155.86C156.392 159.45 157.479 158.563 159.054 158.563C161.051 158.563 161.961 160.115 161.428 162.201L159.498 169.655H157.856L159.742 162.334C160.119 160.848 159.609 159.849 158.256 159.849C156.991 159.849 155.971 160.825 155.549 162.445L153.686 169.655H152.044L153.93 162.334C154.307 160.848 153.797 159.849 152.421 159.849C151.157 159.849 150.136 160.825 149.715 162.445L147.874 169.655H146.232L149.027 158.829Z" fill="black"/>
<path d="M164.666 158.829H166.308L163.513 169.655H161.871L164.666 158.829ZM165.309 155.124C165.309 154.503 165.819 153.992 166.441 153.992C167.062 153.992 167.572 154.503 167.572 155.124C167.572 155.745 167.084 156.255 166.463 156.255C165.842 156.255 165.309 155.745 165.309 155.124Z" fill="black"/>
<path d="M168.791 158.829H170.344L169.9 160.47H169.989C170.588 159.45 171.52 158.563 173.295 158.563C175.491 158.563 176.755 160.515 176.179 162.755L174.404 169.655H172.762L174.515 162.889C174.959 161.158 174.182 159.849 172.474 159.849C170.987 159.849 169.834 161.047 169.346 162.933L167.638 169.655H165.996L168.791 158.829Z" fill="black"/>
<path d="M177.598 165.75C177.598 161.89 180.016 158.563 183.454 158.563C185.185 158.563 186.05 159.583 186.316 160.848H186.405L188.157 154.125H189.799L185.784 169.655H184.231L184.719 167.725H184.63C184.031 168.989 182.811 169.921 181.103 169.921C179.173 169.921 177.598 168.39 177.598 165.75ZM185.806 162.711C185.806 161.003 184.874 160.027 183.432 160.027C181.036 160.027 179.284 162.622 179.284 165.617C179.284 167.414 180.171 168.457 181.547 168.457C184.231 168.457 185.806 165.351 185.806 162.711Z" fill="black"/>
<path d="M189.243 167.68H191.085L188.245 172.25H186.958L189.243 167.68Z" fill="black"/>
<path d="M197.45 166.327L199.025 166.238C198.87 167.703 199.536 168.457 200.867 168.457C202.309 168.457 203.462 167.703 203.462 166.505C203.462 165.573 203.018 165.173 202.153 164.907L200.756 164.486C199.558 164.131 198.826 163.177 198.826 161.89C198.826 159.872 200.601 158.563 203.063 158.563C205.015 158.563 206.435 159.65 206.169 161.691L204.66 161.779C204.727 160.67 204.061 159.983 202.886 159.983C201.377 159.983 200.49 160.692 200.49 161.735C200.49 162.533 201 163.044 201.931 163.332L203.108 163.687C204.306 164.042 205.148 164.73 205.148 166.238C205.148 168.568 203.152 169.921 200.712 169.921C198.515 169.921 197.096 168.568 197.45 166.327Z" fill="black"/>
<path d="M207.011 165.884C207.011 161.935 209.473 158.563 213.067 158.563C215.241 158.563 216.727 160.093 216.727 162.578C216.727 166.549 214.287 169.921 210.649 169.921C208.475 169.921 207.011 168.39 207.011 165.884ZM215.064 162.733C215.064 161.003 214.154 160.027 212.757 160.027C210.361 160.027 208.675 162.844 208.675 165.75C208.675 167.481 209.562 168.457 210.937 168.457C213.378 168.457 215.064 165.662 215.064 162.733Z" fill="black"/>
<path d="M218.124 165.728L219.899 158.829H221.541L219.788 165.595C219.344 167.325 220.121 168.634 221.807 168.634C223.293 168.634 224.447 167.436 224.935 165.551L226.665 158.829H228.307L225.511 169.655H223.958L224.38 168.013H224.291C223.715 169.034 222.783 169.921 221.008 169.921C218.834 169.921 217.547 167.968 218.124 165.728Z" fill="black"/>
<path d="M230.768 158.829H232.321L231.877 160.47H231.966C232.565 159.45 233.497 158.563 235.272 158.563C237.468 158.563 238.732 160.515 238.156 162.755L236.381 169.655H234.739L236.492 162.889C236.936 161.158 236.159 159.849 234.451 159.849C232.964 159.849 231.811 161.047 231.323 162.933L229.615 169.655H227.973L230.768 158.829Z" fill="black"/>
<path d="M239.575 165.75C239.575 161.89 241.993 158.563 245.431 158.563C247.162 158.563 248.027 159.583 248.293 160.848H248.382L250.134 154.125H251.776L247.761 169.655H246.208L246.696 167.725H246.607C246.008 168.989 244.788 169.921 243.08 169.921C241.15 169.921 239.575 168.39 239.575 165.75ZM247.783 162.711C247.783 161.003 246.851 160.027 245.409 160.027C243.014 160.027 241.261 162.622 241.261 165.617C241.261 167.414 242.148 168.457 243.524 168.457C246.208 168.457 247.783 165.351 247.783 162.711Z" fill="black"/>
<path d="M256.899 167.37H256.81L256.233 169.655H254.68L258.695 154.125H260.337L258.673 160.448H258.762C259.383 159.428 260.448 158.563 262.157 158.563C264.064 158.563 265.595 160.16 265.595 162.888C265.595 166.504 263.554 169.921 259.893 169.921C258.163 169.921 257.142 168.723 256.899 167.37ZM263.909 162.977C263.909 161.003 262.933 160.027 261.491 160.027C258.984 160.027 257.475 162.8 257.475 165.528C257.475 167.325 258.496 168.457 259.916 168.457C262.422 168.457 263.909 165.928 263.909 162.977Z" fill="black"/>
<path d="M267.014 165.884C267.014 161.935 269.476 158.563 273.07 158.563C275.244 158.563 276.73 160.093 276.73 162.578C276.73 166.549 274.29 169.921 270.652 169.921C268.478 169.921 267.014 168.39 267.014 165.884ZM275.067 162.733C275.067 161.003 274.157 160.027 272.76 160.027C270.364 160.027 268.678 162.844 268.678 165.75C268.678 167.481 269.565 168.457 270.94 168.457C273.381 168.457 275.067 165.662 275.067 162.733Z" fill="black"/>
<path d="M278.105 165.75C278.105 161.89 280.524 158.563 283.962 158.563C285.693 158.563 286.558 159.583 286.824 160.848H286.912L288.665 154.125H290.307L286.291 169.655H284.738L285.227 167.725H285.138C284.539 168.989 283.319 169.921 281.611 169.921C279.681 169.921 278.105 168.39 278.105 165.75ZM286.314 162.711C286.314 161.003 285.382 160.027 283.94 160.027C281.544 160.027 279.792 162.622 279.792 165.617C279.792 167.414 280.679 168.457 282.054 168.457C284.738 168.457 286.314 165.351 286.314 162.711Z" fill="black"/>
<path d="M286.845 173.869L287.222 172.428C287.688 172.583 288.087 172.65 288.686 172.65C289.663 172.65 290.261 172.228 291.215 170.719L291.504 170.232L290.439 158.829H292.081L292.79 167.88H292.879L298.203 158.829H300L292.702 170.853C291.326 173.115 290.217 174.047 288.398 174.047C287.71 174.047 287.288 173.98 286.845 173.869Z" fill="black"/>
<path d="M105.654 117.904C105.654 108.127 113.813 100.287 123.59 100.287C125.854 100.287 128.038 100.692 129.972 101.58V98.5897C129.972 94.2274 127.229 91.9641 123.024 91.9641H116.241V80.9729H123.511C133.532 80.9729 141.289 88.2466 141.289 98.5897V118.065C141.289 122.023 144.197 124.931 147.671 124.931V135.922C137.651 135.922 129.972 127.921 129.972 118.065C129.972 114.509 127.229 111.601 123.511 111.601C119.873 111.601 117.129 114.427 117.129 118.144C117.129 121.7 119.55 124.931 123.511 124.931H129.249V135.922H123.511C113.57 135.922 105.654 127.681 105.654 117.904ZM149.29 124.931H150.422C154.139 124.931 156.883 122.023 156.883 118.388C156.883 111.196 144.441 112.894 144.441 98.6719C144.441 88.9736 153.086 80.9729 162.785 80.9729H168.357V91.964H162.785C158.58 91.964 155.916 95.1979 155.916 98.6719C155.916 106.508 168.357 104.57 168.357 118.549C168.357 128.247 160.442 135.922 150.658 135.922H149.29V124.931ZM169.976 80.9729H181.286V91.964H169.976V80.9729ZM169.976 93.5793H181.286V135.922H169.976V93.5793ZM182.74 108.528C182.74 93.4181 195.103 80.9729 210.217 80.9729V91.964C201.328 91.964 194.215 99.4779 194.215 108.528C194.215 117.417 201.328 124.931 210.217 124.931H213.612V135.922H210.217C195.103 135.922 182.74 123.641 182.74 108.528ZM215.224 124.931H216.355C220.073 124.931 222.823 122.023 222.823 118.388C222.823 111.196 210.375 112.894 210.375 98.6719C210.375 88.9736 219.02 80.9729 228.718 80.9729H234.298V91.9641H228.718C224.521 91.9641 221.849 95.1979 221.849 98.6719C221.849 106.508 234.298 104.57 234.298 118.549C234.298 128.247 226.376 135.922 216.599 135.922H215.224V124.931Z" fill="black"/>
<path d="M83.309 65C69.7904 65.0047 54.8899 73.2684 45.5442 81.0954L46.283 82.1604C60.7908 71.9951 80.9395 65.3883 86.4941 75.3035C89.4264 80.5392 84.4462 91.0996 77.4366 99.453C79.1155 95.763 78.0089 88.6857 68.2349 88.6857C51.9808 88.6857 20 110.192 20 132.194C20 141.012 26.1178 146.765 36.2033 146.765C63.1923 146.765 99.7953 102.564 99.7953 80.364C99.7926 72.5236 95.2796 65 83.309 65ZM45.44 122.988C40.7685 122.988 38.5275 119.403 39.6947 115.248C42.1154 106.65 57.6641 93.9065 68.251 93.9065C75.9845 93.9065 75.3997 100.808 70.8755 106.698L68.3616 109.473C59.3901 118.282 51.0583 122.988 45.44 122.988Z" fill="black"/>
</g>
<defs>
<clipPath id="clip0_4880_18942">
<rect width="280" height="109.047" fill="white" transform="translate(20 65)"/>
</clipPath>
</defs>
</svg>
