<svg width="320" height="240" viewBox="0 0 320 240" fill="none" xmlns="http://www.w3.org/2000/svg">
<g clip-path="url(#clip0_4880_18988)">
<path d="M280.741 146.696L298.861 94.1567C300.831 88.4316 300.231 82.6904 297.173 78.4128C294.265 74.3408 289.413 72 283.858 72H65.2106C54.9437 72 44.162 79.9354 40.6739 90.0554L21.1415 146.637C19.1593 152.368 19.7821 158.117 22.827 162.397C25.7386 166.466 30.5899 168.813 36.1485 168.813H254.79C263.925 168.813 273.458 162.677 277.963 153.894L278.127 153.578L278.257 153.242L280.669 146.862L280.695 146.784L280.741 146.696Z" fill="white"/>
<path d="M249.429 133.378V132.093H265.789V133.378H249.429ZM265.118 125.384C265.118 123.646 263.716 122.234 261.982 122.234H253.094C251.36 122.234 249.958 123.646 249.958 125.384V130.822H265.131L265.118 125.384ZM262.301 115.433C262.823 115.433 263.24 115.003 263.24 114.488V103.807C263.24 103.282 262.823 102.862 262.301 102.862H252.879C252.357 102.862 251.94 103.282 251.94 103.807V114.488C251.94 115.003 252.357 115.433 252.879 115.433H262.301ZM250.936 103.256C250.936 103.256 250.936 102.777 249.971 102.777C249.971 102.777 247.754 102.568 249.971 101.46L250.936 100.69C250.936 100.69 251.288 99.5195 252.944 99.4479C252.944 99.4479 254.196 98.8219 253.022 98.3395C253.022 98.3395 252.188 97.6418 253.987 97.1623C253.987 97.1623 254.959 96.8853 255.37 96.1944C255.37 96.1944 255.337 95.9139 257.561 95.9139C259.771 95.9139 259.745 96.1944 259.745 96.1944C260.156 96.8853 261.121 97.1623 261.121 97.1623C262.921 97.6418 262.086 98.3395 262.086 98.3395C260.912 98.8219 262.157 99.4479 262.157 99.4479C263.827 99.5195 264.172 100.69 264.172 100.69L265.137 101.46C267.354 102.568 265.137 102.777 265.137 102.777C264.172 102.777 264.179 103.279 264.179 103.279L264.199 115.407C264.199 115.929 263.781 116.349 263.253 116.349C263.253 116.349 261.538 117.129 261.538 118.207V121.204H253.636V118.279C253.636 116.972 251.907 116.349 251.907 116.349C251.386 116.349 250.962 115.929 250.962 115.407V103.295M87.3934 119.736C89.7991 114.781 93.8094 111.752 96.3327 112.988C98.866 114.224 98.9705 119.238 96.558 124.197C94.1516 129.149 90.1517 132.165 87.6183 130.939C85.0882 129.7 84.987 124.676 87.3934 119.736ZM125.31 119.254H135.824C136.294 116.265 135.691 113.81 134.022 112.988C131.56 111.798 127.739 114.585 125.31 119.254ZM196.561 113.689C194.52 112.688 190.941 115.808 188.56 120.659C186.194 125.51 185.92 130.254 187.961 131.249C190.001 132.246 193.581 129.123 195.955 124.275C198.328 119.424 198.602 114.68 196.561 113.689ZM292.908 92.1157L274.782 144.648H48.8796L46.9399 151.016H272.375C269.024 157.539 261.629 162.517 254.79 162.517H36.1485C28.5129 162.517 24.4574 156.33 27.0916 148.694L46.6204 92.1157C49.2547 84.4769 57.5747 78.2891 65.2107 78.2891H283.858C291.494 78.2891 295.549 84.4769 292.908 92.1157ZM43.5592 147.452C43.5592 145.16 41.6975 143.292 39.4023 143.292C37.1072 143.292 35.2423 145.16 35.2423 147.452C35.2423 149.747 37.1072 151.608 39.4023 151.608C41.6975 151.608 43.5592 149.747 43.5592 147.452ZM63.1077 111.087C66.7818 101.46 74.0227 95.2714 79.2687 97.2768C81.4629 98.1078 82.9624 100.25 83.6897 103.155L90.7481 99.373C89.0821 94.8051 86.1153 91.3527 82.063 89.8369C72.4288 86.2309 60.2677 94.9392 54.9049 109.281C51.0903 119.496 51.7391 129.804 55.9156 136.201C55.9156 136.201 61.9177 147.99 77.1692 135.911L73.1457 129.243C63.4335 136.726 61.5038 126.208 61.5038 126.208C60.5027 122.169 60.9786 116.659 63.1077 111.087ZM101.96 127.261C106.508 118.677 105.729 109.343 100.209 106.422C94.6964 103.491 86.5456 108.081 81.9945 116.662C77.4362 125.25 78.2287 134.581 83.7353 137.512C89.2579 140.433 97.4086 135.839 101.96 127.261ZM108.93 137.384L125.039 90.4597H117.684L101.572 137.384H108.93ZM139.388 127.708H132.017C129.796 130.447 127.146 131.832 125.297 130.939C123.634 130.13 123.031 127.695 123.474 124.731H140.806C143.978 116.917 142.867 109.05 137.888 106.422C132.378 103.491 124.218 108.081 119.677 116.662C115.118 125.25 115.908 134.581 121.421 137.512C126.829 140.374 134.794 135.999 139.388 127.708ZM173.296 137.476L180.684 116.232C183.174 108.847 177.332 106.445 177.332 106.445C171.51 104.228 166.736 109.027 166.736 109.027C164.207 103.458 158.46 106.663 156.312 108.137L156.892 106.445H149.371L138.72 137.476H146.241L154.16 114.39C154.77 113.646 155.758 112.867 157.802 112.819C161.233 112.721 158.943 118.273 158.943 118.273L152.302 137.476H159.805L166.371 118.273C166.371 118.273 168.125 111.707 171.907 112.913C171.907 112.913 174.398 113.373 172.416 118.458L165.771 137.476H173.296ZM199.482 137.619L209.993 106.487H202.88L202.077 108.864C201.38 107.889 200.493 107.126 199.43 106.644C194.175 104.264 186.618 109.454 182.562 118.259C179.38 125.139 179.269 132.181 181.884 136.071C181.884 136.071 186.05 142.004 193.06 135.63L192.382 137.619H199.482ZM232.215 108.195C228.336 104.039 222.676 106.758 220.517 108.228L221.098 106.536H213.652L203.003 137.561H210.457L218.77 114.504C219.37 113.76 220.433 112.939 222.48 112.929C226.764 112.913 224.443 118.387 224.443 118.387L217.798 137.589H225.317L233.05 114.573C234.524 110.51 232.215 108.195 232.215 108.195ZM276.216 115.414C276.216 114.315 276.138 113.232 276.02 112.169H268.111C267.732 112.169 267.433 111.873 267.433 111.495C267.433 111.129 267.732 110.83 268.111 110.83H275.864C275.388 107.742 274.449 104.87 273.138 102.333L268.548 105.15C268.228 105.356 267.798 105.264 267.609 104.942C267.413 104.622 267.524 104.205 267.85 104.009L272.473 101.173C269.089 95.4151 263.716 91.6725 257.646 91.6725C251.575 91.6725 246.202 95.4151 242.811 101.183L247.539 104.071C247.858 104.28 247.969 104.694 247.78 105.01C247.584 105.323 247.167 105.421 246.841 105.219L242.146 102.343C240.842 104.876 239.903 107.742 239.427 110.83H247.2C247.578 110.83 247.884 111.129 247.884 111.495C247.884 111.873 247.578 112.169 247.2 112.169H239.271C239.154 113.232 239.075 114.315 239.075 115.414C239.075 117.689 239.343 119.893 239.812 121.98L246.769 117.712C247.095 117.507 247.513 117.605 247.702 117.921C247.904 118.233 247.793 118.661 247.467 118.856L240.158 123.333C242.714 132.55 249.566 139.165 257.646 139.165C265.705 139.165 272.551 132.576 275.121 123.388L267.85 118.928C267.524 118.729 267.413 118.302 267.609 117.986C267.798 117.67 268.228 117.585 268.548 117.777L275.472 122.022C275.942 119.926 276.216 117.712 276.216 115.414ZM39.699 146.132H38.4633V147.231H39.6305C40.1553 147.231 40.3998 147.077 40.3998 146.669C40.3998 146.448 40.289 146.132 39.699 146.132ZM39.4023 144.205C37.6091 144.205 36.155 145.653 36.155 147.452C36.155 149.238 37.6091 150.703 39.4023 150.703C41.1988 150.703 42.6526 149.238 42.6526 147.452C42.6526 145.653 41.1988 144.205 39.4023 144.205ZM41.4758 149.519H40.3802C40.3086 149.333 40.2597 149.121 40.2597 148.697C40.2597 148.14 40.2237 147.921 39.4936 147.921H38.4633V149.519H37.4851V145.431H39.8979C41.1692 145.431 41.3973 146.226 41.3973 146.582C41.3973 147.034 41.1367 147.426 40.6608 147.559C41.0519 147.716 41.2672 147.84 41.2672 148.597C41.2672 149.203 41.2672 149.353 41.4758 149.412V149.519Z" fill="#E71F10"/>
</g>
<defs>
<clipPath id="clip0_4880_18988">
<rect width="280" height="96.8133" fill="white" transform="translate(20 72)"/>
</clipPath>
</defs>
</svg>
