<svg width="320" height="240" viewBox="0 0 320 240" fill="none" xmlns="http://www.w3.org/2000/svg">
<g clip-path="url(#clip0_4880_19011)">
<path d="M176.438 132.294C170.964 132.416 168.83 126.539 168.801 118.837C168.986 112.207 170.751 106.413 176.168 106.413C179.007 106.413 181.815 108.496 182.574 112.498H190.887C190.254 108.236 185.179 101.065 176.357 101.065C171.425 101.065 167.484 103.109 164.787 106.287C161.75 109.857 160.84 113.812 160.84 119.594C160.84 124.587 162.047 129.683 165.337 133.033C168.604 136.36 172.371 137.862 176.83 137.862C183.72 137.862 189.921 133.46 191.062 126.306H182.638C181.636 130.588 179.089 132.236 176.438 132.294ZM238.145 122.517L225.348 101.989H218.313V136.948H225.613V116.231L238.39 136.948H245.555V101.989H238.145L238.145 122.517ZM192.296 136.948H216.831V130.713H199.947V121.93H215.213V115.78H199.953V108.229H216.831V101.989H192.296V136.948ZM105.955 136.948H130.458V130.713H113.588V121.93H128.834V115.78H113.602V108.229H130.458V101.989H105.955V136.948ZM300 108.229V101.989H275.491V136.948H300V130.713H283.146V121.93H298.392V115.78H283.146V108.229L300 108.229ZM53.3527 101.989H59.3163V99H27.9151V101.989H33.8787L23.1628 112.68L20 109.717V123.768H33.9615L31.078 120.709L37.1633 114.641V126.949H29.5335L43.6157 141.423L57.6989 126.949H50.0681V114.641L56.1514 120.709L53.2719 123.768H67.2314V109.717L64.0665 112.68L53.3527 101.989ZM150.289 116.648L144.319 114.732C141.191 113.735 140.427 113.318 139.9 112.83C139.237 112.219 138.938 111.375 138.938 110.466C138.938 108.633 140.462 106.624 145.209 106.685C149.599 106.738 152.04 108.925 152.298 112.563H159.162C158.757 106.605 155.168 101.016 145.209 101.002C134.9 100.986 131.932 107.256 131.889 110.973C131.863 113.274 132.552 115.237 134.266 117.126C135.715 118.723 138.219 119.875 142.03 121.089L147.004 122.677C149.576 123.507 150.702 123.982 151.411 124.684C152.162 125.426 152.52 126.291 152.52 127.419C152.52 129.325 151.255 131.758 145.474 131.705C141.605 131.673 139.066 130.117 138.081 126.481H130.769C131.26 134.529 138.688 137.899 146.056 137.933C154.893 137.974 160.278 133.077 160.278 126.549C160.278 124.517 159.405 122.325 158.108 120.767C156.613 118.975 155.126 118.195 150.289 116.648ZM246.989 108.158H256.915V136.948H264.17V108.158H274.121V101.989H246.964L246.989 108.158ZM99.0186 105.349C96.3167 103.056 93.074 101.989 86.9398 101.989H75.6045V136.948H86.6346C92.8316 136.941 96.2239 136.238 98.836 134.269C103.331 130.888 104.695 126.13 104.695 120.173C104.695 113.116 103.005 108.73 99.0186 105.349ZM95.3159 127.593C93.7156 129.879 91.9096 130.703 87.735 130.703H83.2023L83.2352 108.216H87.5195C90.4868 108.243 92.4854 108.58 94.5038 110.752C96.2638 112.648 97.4691 116.212 97.4691 119.46C97.4451 122.279 96.8864 125.344 95.3159 127.593Z" fill="black"/>
</g>
<defs>
<clipPath id="clip0_4880_19011">
<rect width="280" height="42.4232" fill="white" transform="translate(20 99)"/>
</clipPath>
</defs>
</svg>
