<svg width="320" height="240" viewBox="0 0 320 240" fill="none" xmlns="http://www.w3.org/2000/svg">
<g clip-path="url(#clip0_4880_19012)">
<path d="M47.5706 115.467L47.468 115.523L47.1218 115.713C43.7523 117.467 41.4302 120.806 40.7139 125.077C39.7961 131.122 39.7649 136.599 40.6107 141.397C41.4724 146.285 43.3798 151.446 46.272 156.756C48.4295 160.569 51.7358 162.911 55.5971 163.428C94.0921 167.141 132.638 166.337 161.492 161.249L171.576 159.407C201.631 154.107 238.46 141.746 272.576 125.491C276.363 123.531 278.657 120.236 279.364 115.908C280.235 110.376 280.212 105.384 279.292 99.7077L279.203 99.1161C278.105 93.4366 276.425 88.741 273.752 83.8433C271.593 80.05 268.306 77.6872 264.443 77.1693C226.508 73.5313 187.596 74.5071 157.516 79.8109C157.541 79.8064 147.459 81.5157 147.459 81.5157C118.636 86.5978 82.2346 98.968 47.5706 115.467Z" fill="#221E1F"/>
<path d="M104.381 116.968C105.033 116.52 105.614 116.073 105.815 115.723C106.008 115.382 106.015 114.87 105.932 114.398L105.639 112.628C105.244 110.388 104.551 109.73 102.639 110.473C101.986 110.747 100.301 111.612 98.3554 112.852C94.0442 115.548 78.0479 125.302 69.1281 130.703C68.3709 131.127 67.8223 131.475 67.495 132.244C66.839 133.787 67.2592 136.171 67.3761 136.834C67.5165 137.63 68.288 140.38 69.227 141.04C69.9412 141.447 70.3772 141.498 71.0586 141.651C81.2896 143.675 99.6607 147.367 104.632 148.447C106.881 148.929 108.763 149.179 109.466 149.189C111.518 149.245 111.943 148.378 111.55 146.149L111.221 144.389C111.136 143.909 110.955 143.436 110.656 143.177C110.348 142.923 109.65 142.701 108.884 142.506C103.167 141.216 80.0588 136.79 74.0021 135.567L73.9866 135.479C79.2566 132.241 99.448 120.125 104.381 116.968Z" fill="#FFDD00"/>
<path d="M151.144 100.871C151.088 100.554 150.902 99.4205 150.846 99.1061C150.519 97.2503 149.332 96.4502 147.72 96.8947C143.657 97.7794 140.534 98.5142 135.912 99.9462C131.344 101.359 128.951 102.35 124.572 103.943C123.766 104.253 122.032 104.931 121.109 105.42C118.589 106.699 117.324 107.355 115.837 108.436C114.462 109.442 113.008 110.578 112.247 111.878C110.504 114.793 110.392 116.414 110.978 119.741L114.148 137.718C114.737 141.059 115.395 142.531 118.03 144.677C119.189 145.634 120.944 146.202 122.579 146.672C124.347 147.19 125.759 147.365 128.568 147.719C129.599 147.849 131.464 147.912 132.325 147.911C136.985 147.911 139.573 148.032 144.351 147.804C149.181 147.554 152.368 147.18 156.489 146.625C158.154 146.479 158.999 145.343 158.668 143.468C158.612 143.147 158.401 142.028 158.346 141.717C158.028 139.911 157.107 139.27 155.453 139.442C151.075 139.895 147.511 140.534 143.276 140.839C139.107 141.144 135.914 141.392 130.903 141.657C128.403 141.796 126.132 141.492 124.325 140.834C122.506 140.189 121.43 138.724 121.205 137.448L117.703 117.582C117.477 116.3 117.988 114.568 119.475 113.326C120.948 112.096 122.979 111.04 125.376 110.312C130.176 108.852 133.26 107.985 137.282 106.843C141.368 105.696 144.936 105.077 149.203 103.995C150.815 103.586 151.462 102.676 151.144 100.871Z" fill="#FFDD00"/>
<path d="M143.931 127.087C145.583 126.796 146.065 125.728 145.891 123.788L145.498 121.558C145 119.687 144.18 118.84 142.528 119.131C139.839 119.737 124.907 122.855 123.941 123.098C122.186 123.522 122.138 123.856 122.056 124.404C121.995 124.826 122.12 125.777 122.317 126.895C122.526 128.079 122.716 129.015 122.94 129.422C123.205 129.909 123.784 129.95 125.122 129.797C126.151 129.684 141.197 127.441 143.931 127.087Z" fill="#FFDD00"/>
<path d="M64.8272 127.001C64.8309 126.97 64.84 126.953 64.84 126.953C65.1167 125.414 64.445 124.712 62.4854 125.058L60.3658 125.432C58.4035 125.778 57.1081 126.669 56.6863 128.391C55.8611 131.98 55.8672 135.425 56.423 138.579C56.9864 141.774 58.1578 145.006 60.1602 148.092C61.1441 149.557 62.6647 149.944 64.627 149.598L66.7465 149.224C68.7061 148.878 69.0978 147.992 68.3139 146.655C63.9841 140.081 63.2869 133.621 64.8272 127.001Z" fill="#FFDD00"/>
<path d="M251.162 113.153C251.811 113.449 253.124 113.984 253.361 112.988C253.543 111.958 253.498 111.196 253.464 109.975C253.431 108.757 253.354 106.773 253.06 106.145C252.888 105.677 252.252 105.423 251.779 105.277C246.623 103.457 241.761 101.858 236.314 100.099C229.488 97.8889 214.91 92.9827 214.555 92.886C213.135 92.477 212.087 92.341 211.106 92.5231C210.779 92.5807 210.61 92.6105 210.284 92.6872C210.046 92.7409 209.571 92.8838 209.196 93.2094C208.743 93.5983 208.475 93.9014 208.293 94.3495C208.126 94.7837 208.035 95.1969 208.121 95.6811L208.347 96.9684C209.245 102.059 210.395 107.084 211.293 112.177C212.161 117.103 212.804 122.24 213.7 127.326C213.953 128.761 214.742 129.443 216.365 129.144C217.031 129.022 217.688 128.906 218.351 128.789C219.98 128.485 220.832 127.516 220.74 126.048C220.311 121.694 219.719 117.385 219.157 113.21C218.401 108.922 217.674 104.795 216.747 100.531C223.424 102.757 230.062 105.006 236.744 107.405C241.121 108.93 246.9 111.361 251.162 113.153Z" fill="#FFDD00"/>
<path d="M272.398 114.54C271.858 117.351 271.239 117.834 268.114 119.523C234.266 135.896 200.3 147.153 170.478 152.411C170.468 152.413 160.277 154.282 160.277 154.282C131.732 159.316 97.943 160.255 59.7247 156.557C56.2336 156.174 54.3789 156.072 52.673 153.497C50.4133 148.732 48.5344 144.37 47.805 140.233C47.0921 136.19 46.9149 131.443 47.8785 126.22C48.3608 123.596 49.8466 122.294 51.284 121.652C86.2182 105.179 120.214 93.7099 148.711 88.6852L158.953 86.9507C188.757 81.6953 224.741 80.6104 262.357 84.4334C264.949 84.5475 266.485 85.1367 267.546 86.8639C270.071 90.953 271.251 95.1735 272.194 100.066L272.285 100.538C273.063 105.449 273.361 109.609 272.398 114.54ZM270.485 85.6373C268.951 82.9335 266.663 81.2636 264.029 80.9071C226.538 77.3262 188.025 78.2773 158.278 83.5226L148.198 85.238C119.718 90.2598 83.6796 102.525 49.3187 118.88L49.2786 118.892L49.058 119.022C46.6673 120.255 45.1127 122.561 44.5951 125.655C43.7493 131.252 43.7074 136.281 44.4832 140.681C45.2717 145.153 47.0432 149.932 49.7395 154.875C51.2688 157.566 53.5473 159.228 56.1896 159.571C94.2559 163.244 132.401 162.459 160.927 157.429C160.942 157.427 170.976 155.594 170.976 155.594C200.75 150.344 237.221 138.093 271.021 121.984C273.597 120.647 275.177 118.331 275.689 115.23C276.485 110.127 276.464 105.508 275.619 100.257L275.526 99.7299C274.523 94.5015 272.966 90.1651 270.485 85.6373Z" fill="#FFDD00"/>
<path d="M197.901 94.0151C193.575 93.4633 189.04 93.2539 184.781 93.2012C180.548 93.1269 177.756 93.1754 173.534 93.2691C172.692 93.2466 170.246 93.304 169.258 93.4782C167.457 93.7958 165.853 94.2402 164.459 94.9754C163.064 95.7054 161.884 96.7472 160.911 97.9116C158.98 100.374 158.156 103.472 158.799 107.117L163.402 133.223C164.047 136.877 165.881 139.51 168.539 141.175C169.849 141.92 171.315 142.494 172.875 142.701C174.436 142.917 176.097 142.795 177.898 142.478C178.886 142.304 181.203 141.515 181.988 141.209C185.986 139.849 188.626 138.94 192.577 137.415C196.56 135.9 200.749 134.152 204.627 132.163C206.174 131.392 206.208 130.257 205.957 128.832L205.817 128.036C205.536 126.447 204.771 125.928 203.195 126.545C199.394 128.031 189.387 131.545 179.734 134.373C177.318 135.093 175.169 135.324 173.371 134.896C171.584 134.437 170.643 133.567 170.279 131.838C169.713 129.147 166.147 108.688 165.746 105.956C165.492 104.22 166.084 103.069 167.609 102.034C169.155 101.011 171.26 100.495 173.747 100.332C183.791 99.6995 194.396 99.6877 198.476 99.7814C200.168 99.8227 200.71 99.0727 200.43 97.4893L200.291 96.695C200.039 95.2697 199.619 94.2157 197.901 94.0151Z" fill="#FFDD00"/>
<path d="M256.729 90.8378L254.605 91.2122C252.973 91.5001 252.435 92.436 253.188 93.7713C254.562 96.0692 255.468 98.8459 256.054 101.746C256.248 102.605 256.396 103.445 256.509 104.401C257.007 107.982 257.081 111.566 257.006 114.494C256.936 114.865 256.957 115.225 257.189 115.501C257.769 115.892 258.112 115.841 258.873 115.718C260.537 115.445 261.844 115.141 262.746 114.49C263.792 113.647 264.259 112.309 264.45 110.635C264.74 107.476 264.849 105.298 264.171 101.455C263.52 97.7606 262.273 95.2886 260.755 92.4373C259.963 90.9213 258.541 90.518 256.729 90.8378Z" fill="#FFDD00"/>
<path d="M192.591 118.009C194.239 117.718 194.719 116.654 194.606 114.895L194.394 113.691C193.897 111.992 193.081 111.154 191.434 111.445C188.859 111.899 178.797 113.324 172.382 114.215C172.382 114.215 171.152 114.324 171.039 115.306C170.925 116.078 171.193 117.596 171.363 118.566C171.51 119.398 171.757 120.569 172.263 121.441C172.7 122.18 173.717 121.97 173.717 121.97C180.043 120.587 190.017 118.463 192.591 118.009Z" fill="#FFDD00"/>
</g>
<defs>
<clipPath id="clip0_4880_19012">
<rect width="240" height="90.7334" fill="white" transform="translate(40 75)"/>
</clipPath>
</defs>
</svg>
