<svg width="320" height="240" viewBox="0 0 320 240" fill="none" xmlns="http://www.w3.org/2000/svg">
<g clip-path="url(#clip0_4880_19229)">
<path d="M49.1739 103.928C49.4375 103.858 49.6168 103.613 49.8114 103.477C50.8405 102.762 50.7712 102.758 50.974 102.438C51.1803 102.114 50.96 102.233 51.2224 102.091C51.4873 101.951 51.3666 101.81 51.6538 101.409C51.9385 101.011 52.3253 100.821 51.9174 100.517C51.8143 100.439 51.5869 100.388 51.5576 100.26C51.4838 99.9145 50.8673 99.5319 50.5122 99.4018C50.4372 99.3748 50.4677 99.2553 50.3962 99.2091C49.5853 98.691 48.5457 97.9791 47.1839 97.9791C45.3439 97.9791 42.8347 99.4587 41.7576 99.8114C40.6853 100.164 39.5391 100.165 37.576 102.492C36.6444 103.597 36.4147 104.503 36.5729 105.076C36.717 105.595 36.3127 107.048 37.7683 108.813C38.175 109.308 39.4582 110.735 41.3767 111.589C43.3386 112.462 45.6814 113.346 46.4209 113.346C47.1616 113.346 49.7798 113.574 51.342 111.775C52.7484 110.156 53.216 108.952 53.3742 108.273C53.543 107.536 53.2289 107.38 53.2547 106.087C53.2781 104.795 52.2503 104.348 51.9643 104.018C51.6772 103.69 51.533 103.408 50.9834 103.408C50.4349 103.408 50.4313 103.062 50.3388 103.739C50.2685 104.253 49.9685 104.358 49.6461 104.207C49.5208 104.149 49.2711 104.164 49.1739 103.928Z" fill="#D80C18"/>
<path d="M43.7292 89.8919C43.7292 89.0012 43.9624 88.8424 44.7289 88.3648C45.493 87.8854 46.3626 87 48.567 87C50.768 87 50.6708 87.4782 51.0317 87.4331C51.4947 87.3738 51.2802 87.3996 52.0091 87.6476C53.2913 88.083 54.4023 89.4693 57.0158 90.4216C57.7752 90.6982 58.8851 91.5133 59.4289 91.7735C60.6278 92.3478 63.021 92.547 64.9395 95.546C65.8184 96.9207 65.6216 97.3315 66.1384 98.245C66.8545 99.5096 66.9904 99.9193 66.9975 101.738C67.001 102.743 67.2037 104.011 67.2179 104.632C67.2389 105.586 66.3727 107.859 66.1818 108.575C65.9896 109.293 66.0552 110.473 65.5513 111.276C64.8141 112.445 59.3843 124.01 45.6442 124.01C35.1129 124.01 30.4999 118.624 28.5052 116.555C27.2747 115.279 24.7222 107.954 24.7222 106.522C24.7222 105.088 25.1558 99.0678 27.0216 96.7262C28.8873 94.3852 31.5278 89.8468 39.5382 88.1029C40.8544 87.8157 44.041 88.0783 45.0207 88.6993C46.0028 89.3205 48.1546 92.9777 47.2545 93.5174C46.243 94.1233 45.9653 93.9967 45.357 93.6932C44.8261 93.4271 44.28 93.4781 43.4151 93.4781C42.5537 93.4781 34.8057 94.0904 31.9004 100.931C29.6514 106.235 32.2392 110.058 33.0513 111.587C33.8658 113.115 34.4882 114.93 39.4679 117.08C44.4476 119.233 50.7774 116.767 52.3092 116.08C55.0375 114.854 57.8479 111.969 59.402 108.756C60.0805 107.351 59.6679 106.912 60.4122 105.041C61.0123 103.537 60.2926 102.58 60.2926 101.002C60.2926 100.453 59.5508 99.7844 59.4313 99.4012C59.3105 99.0192 59.2144 98.6154 58.9742 98.544C58.7374 98.4712 58.7679 98.1338 55.2614 97.2049C54.4644 96.9941 54.4715 96.3676 52.0537 95.5379C51.2861 95.2753 48.7077 93.8103 48.3479 93.7635C47.9893 93.7166 45.6934 93.6932 45.1413 93.4781C44.5882 93.2619 44.423 93.9316 43.9695 93.6199C43.5123 93.3099 43.7292 90.4433 43.7292 89.8919Z" fill="#007F41"/>
<path d="M13.6633 129.293C13.6633 128.957 14.6335 126.437 15.5395 125.453C16.6013 124.299 16.5721 124.198 18.0511 124.391C19.5278 124.582 20.0516 125.117 23.0507 124.94C26.1377 124.756 31.04 124.594 35.1689 127.42C36.1979 128.122 36.1908 128.086 36.8143 128.212C37.0522 128.26 37.1237 128.885 37.7894 129.317C38.4574 129.75 40.4931 130.74 40.9056 134.818C40.9948 135.71 41.0452 136.701 40.8529 137.477C40.7135 138.05 40.5881 138.34 40.581 138.614C40.5482 139.849 39.7911 140.707 39.1501 141.769C38.8758 142.225 38.3261 142.878 37.6394 143.719C34.8689 147.118 27.8019 152.664 18.868 152.537C14.2926 152.474 14.5199 151.954 13.5343 151.825C12.401 151.675 11.1845 151.841 10.4684 150.783C9.75466 149.724 9.98676 149.117 10.3114 148.535C10.5364 148.126 10.1579 147.731 10.4883 147.802C10.7157 147.849 10.548 147.717 10.7415 147.477C10.9302 147.235 10.8106 146.778 11.0731 146.492C11.3357 146.204 10.834 145.988 11.4083 145.409C11.978 144.834 11.8174 144.261 12.8206 144.38C13.8226 144.5 15.7891 145.405 19.182 145.229C21.3466 145.116 23.0285 144.734 25.1063 143.724C27.5077 142.553 33.0722 140.072 33.0757 136.438C33.0769 135.836 33.2047 135.592 33.2198 135.187C33.2293 134.929 33.2773 134.979 33.0945 134.212C32.798 132.976 29.7567 131.577 28.4934 131.458C27.7878 131.39 26.753 131.143 24.702 131.143C21.554 131.143 20.1008 131.385 17.049 130.711C14.8516 130.227 13.6633 129.701 13.6633 129.293Z" fill="#004098"/>
<path d="M76.8983 124.61C76.9837 124.392 76.7377 124.286 76.1844 123.75C75.9805 123.551 75.7157 123.584 75.6805 123.539C75.05 122.728 73.462 121.75 71.445 121.673C68.9476 121.578 59.5402 123.813 52.3947 127.905C48.1427 130.338 45.5703 133.076 45.5703 136.666C45.5703 143.614 51.3082 150.655 62.6833 150.655C66.5379 150.655 66.3247 150.453 68.6545 150.17C70.9856 149.883 73.2346 148.487 74.1406 148.059C75.0441 147.631 78.0714 145.665 78.5659 145.21C79.0125 144.799 79.4097 145.058 79.7426 144.769C80.0766 144.483 81.994 142.379 81.9928 141.528C81.9928 140.935 80.9649 140.478 80.6309 140.238C80.2488 139.967 79.6664 139.828 79.2035 139.524C78.546 139.091 77.7104 137.334 75.2094 137.25C73.946 137.205 72.9229 137.691 71.8786 138.517C70.6669 139.476 68.9629 140.506 66.3832 141.277C64.2609 141.91 63.7135 141.925 61.2875 141.925C58.3014 141.925 56.2891 139.517 56.2891 137.803C56.2891 134.947 57.2243 133.477 61.9684 131.605C63.26 131.095 65.5758 130.061 67.2833 129.539C76.4775 126.736 76.5115 125.622 76.8983 124.61Z" fill="#004098"/>
<path d="M120.078 148.977L105.86 131.831L120.078 119.345H129.046L114.448 132.111L128.709 148.977H120.078Z" fill="#231815"/>
<path d="M175.596 125.025V119.128H144.886V125.025H156.493V148.977H163.64V125.025H175.596Z" fill="#231815"/>
<path d="M286.218 138.129C286.64 142.969 289.87 144.316 294.106 144.316C298.341 144.316 301.775 142.848 301.775 140.405C301.775 137.961 299.761 136.433 294.176 136.057C284.685 135.423 278.938 133.064 278.938 126.663C278.938 121.63 285.728 117.485 294.106 117.552C303.167 117.63 307.878 119.907 309.278 127.249H301.278C301.278 124.167 298.069 122.696 294.106 122.696C290.144 122.696 287.074 124.104 287.074 126.295C287.074 128.487 289.687 129.602 294.101 129.984C304.531 130.895 310 133.218 310 139.896C310 145.396 302.884 149.856 294.101 149.856C285.323 149.856 278.45 145.981 278.207 138.157L286.218 138.129Z" fill="#231815"/>
<path d="M140.667 119.271H133.553V148.977H140.667V119.271Z" fill="#231815"/>
<path d="M105.782 119.345H99.2168V148.977H105.782V119.345Z" fill="#231815"/>
<path d="M238.336 132.601H224.069V137.665L231.501 137.66C229.856 141.582 226.459 144.223 221.49 144.223C215.12 144.223 210.537 139.506 210.537 133.687C210.537 127.872 215.12 123.152 221.49 123.152C226.549 123.152 230.107 125.042 231.342 128.972L239.051 128.98C237.748 121.819 231.515 117.221 221.49 117.221C210.982 117.221 203.055 123.663 203.055 133.687C203.055 142.558 210.982 149.743 221.49 149.743C226.851 149.743 229.732 147.608 232.015 144.875L232.024 148.801H238.341L238.336 132.601Z" fill="#231815"/>
<path d="M276.805 148.629L262.249 118.568H256.043L241.487 148.629L248.72 148.623L251.92 141.68L266.37 141.684L269.506 148.623L276.805 148.629ZM254.341 136.343L259.179 125.778L263.956 136.343H254.341Z" fill="#231815"/>
<path d="M203.039 148.629L188.483 118.568H182.277L167.721 148.629L174.954 148.623L178.154 141.68L192.604 141.684L195.74 148.623L203.039 148.629ZM180.575 136.343L185.413 125.778L190.19 136.343H180.575Z" fill="#231815"/>
</g>
<defs>
<clipPath id="clip0_4880_19229">
<rect width="300" height="65.5393" fill="white" transform="translate(10 87)"/>
</clipPath>
</defs>
</svg>
