<svg width="320" height="240" viewBox="0 0 320 240" fill="none" xmlns="http://www.w3.org/2000/svg">
<g clip-path="url(#clip0_4880_19035)">
<path d="M88.5605 115.852H81.4648V150.914H88.5605V115.852Z" fill="#03071F"/>
<path d="M258.832 128.052V126.053H251.768V150.913H258.832V137.017C258.832 134.257 261.093 131.692 263.863 131.692V125.638C260.24 125.638 258.832 128.052 258.832 128.052Z" fill="#03071F"/>
<path d="M273.265 115.852L266.182 120.605V143.269C266.182 146.474 266.302 147.694 266.401 148.15C266.531 148.747 266.871 149.288 267.413 149.752C267.973 150.244 268.629 150.559 269.367 150.694C270.155 150.84 271.522 150.914 273.424 150.914H275.916V145.77C274.149 145.77 273.265 144.536 273.265 142.069V131.194H275.916V126.053H273.265L273.265 115.852Z" fill="#03071F"/>
<path d="M285.295 126.054H278.235V150.914H285.295V126.054Z" fill="#03071F"/>
<path d="M285.295 115.852H278.235V122.33H285.295V115.852Z" fill="#03071F"/>
<path d="M298.693 121.009H300V115.869L295.479 115.868C292.35 115.867 290.268 118.451 290.268 121.637V126.052H287.615V131.195H290.268V150.914H297.314V131.195H300V126.052H297.353V122.313C297.353 121.628 298.051 121.009 298.693 121.009Z" fill="#03071F"/>
<path d="M158.462 131.084C158.233 130.072 157.726 129.104 156.955 128.214C156.19 127.327 155.19 126.659 153.98 126.234C152.742 125.8 151.293 125.578 149.669 125.578C148.045 125.578 146.595 125.8 145.358 126.234C144.147 126.659 143.146 127.327 142.381 128.214C141.611 129.104 141.104 130.072 140.875 131.084C140.631 132.141 140.507 133.855 140.507 136.176V140.792C140.507 143.112 140.631 144.825 140.875 145.883C141.104 146.896 141.611 147.863 142.381 148.754C143.146 149.64 144.147 150.306 145.358 150.734C146.595 151.167 148.045 151.389 149.669 151.389C151.293 151.389 152.742 151.167 153.98 150.734C155.19 150.306 156.19 149.64 156.955 148.754C157.726 147.863 158.233 146.896 158.462 145.883C158.707 144.825 158.83 143.112 158.83 140.792V136.176C158.83 133.855 158.707 132.141 158.462 131.084ZM151.794 143.797C151.794 145.19 151.693 145.641 151.453 146.182C151.301 146.521 150.817 147.309 149.61 147.309H149.563C148.355 147.309 147.872 146.521 147.72 146.183C147.479 145.641 147.379 145.19 147.379 143.797V133.25C147.379 131.717 147.487 131.233 147.729 130.727C147.921 130.33 148.415 129.663 149.586 129.663C150.758 129.663 151.253 130.33 151.443 130.727C151.685 131.233 151.794 131.717 151.794 133.25V143.797Z" fill="#03071F"/>
<path d="M131.152 143.797C131.152 145.19 131.052 145.641 130.811 146.182C130.658 146.52 130.176 147.309 128.969 147.309H128.921C127.714 147.309 127.231 146.52 127.079 146.183C126.838 145.641 126.738 145.19 126.738 143.797V133.25C126.738 131.717 126.846 131.233 127.088 130.727C127.279 130.33 127.774 129.663 128.945 129.663C130.116 129.663 130.611 130.33 130.802 130.727C131.044 131.233 131.152 131.717 131.152 133.25V134.962H138.174C138.138 133.252 138.02 131.946 137.821 131.084C137.592 130.072 137.084 129.104 136.314 128.214C135.549 127.327 134.549 126.659 133.338 126.234C132.101 125.8 130.651 125.578 129.027 125.578C127.404 125.578 125.953 125.8 124.716 126.234C123.506 126.659 122.505 127.327 121.74 128.214C120.97 129.104 120.464 130.072 120.234 131.084C119.989 132.141 119.865 133.855 119.865 136.175V140.792C119.865 143.112 119.989 144.825 120.234 145.883C120.464 146.896 120.97 147.863 121.74 148.754C122.505 149.64 123.506 150.306 124.716 150.734C125.953 151.167 127.404 151.389 129.027 151.389C130.651 151.389 132.101 151.167 133.338 150.734C134.549 150.306 135.549 149.64 136.314 148.754C137.084 147.863 137.592 146.896 137.821 145.883C138.056 144.871 138.177 143.251 138.187 141.082H131.152L131.152 143.797Z" fill="#03071F"/>
<path d="M102.167 138.661H109.204V135.732C109.204 135.608 109.202 135.491 109.202 135.37C109.188 133.236 109.068 132.087 108.836 131.085C108.606 130.073 108.099 129.106 107.33 128.215C106.565 127.329 105.564 126.662 104.354 126.235C103.117 125.8 101.666 125.58 100.042 125.58C98.4178 125.58 96.9673 125.8 95.7324 126.235C94.521 126.662 93.5196 127.329 92.7545 128.215C91.9859 129.106 91.4779 130.073 91.248 131.085C91.0035 132.143 90.8804 133.857 90.8804 136.177V140.793C90.8804 143.114 91.0035 144.827 91.248 145.885C91.4779 146.897 91.9859 147.865 92.7545 148.755C93.5196 149.642 94.521 150.309 95.7324 150.736C96.9673 151.169 98.4178 151.391 100.042 151.391C101.666 151.391 103.117 151.169 104.354 150.736C105.564 150.309 106.565 149.642 107.33 148.755C108.099 147.865 108.606 146.897 108.836 145.885C109.076 144.849 109.198 143.181 109.203 140.934H102.167V143.799C102.167 145.191 102.067 145.643 101.826 146.184C101.675 146.522 101.192 147.31 99.9832 147.31H99.9371C98.7284 147.31 98.2458 146.522 98.0937 146.185C97.8537 145.643 97.7523 145.191 97.7523 143.799V138.661L102.167 138.661ZM97.7523 133.251C97.7523 131.719 97.861 131.235 98.1027 130.729C98.2937 130.331 98.789 129.665 99.9597 129.665C101.131 129.665 101.626 130.331 101.816 130.729C102.059 131.235 102.167 131.719 102.167 133.251V135.37H97.7523L97.7523 133.251Z" fill="#03071F"/>
<path d="M172.379 126.053V127.321C171.952 126.871 171.468 126.5 170.917 126.233C170.017 125.8 168.96 125.578 167.777 125.578C166.594 125.578 165.539 125.8 164.636 126.233C163.754 126.659 163.026 127.327 162.467 128.213C161.908 129.104 161.539 130.071 161.371 131.084C161.193 132.142 161.103 133.855 161.103 136.176V140.791C161.103 143.111 161.193 144.826 161.371 145.883C161.539 146.895 161.908 147.862 162.467 148.753C163.026 149.64 163.754 150.308 164.636 150.733C165.539 151.167 166.594 151.389 167.777 151.389C168.96 151.389 170.017 151.167 170.917 150.733C171.468 150.467 171.952 150.096 172.379 149.647V158.62H179.44V126.053L172.379 126.053ZM172.048 146.182C171.896 146.521 171.414 147.307 170.205 147.307H170.159C168.95 147.307 168.468 146.521 168.316 146.182C168.075 145.641 167.976 145.19 167.976 143.796V133.249C167.976 131.716 168.083 131.233 168.325 130.728C168.516 130.329 169.012 129.663 170.181 129.663C171.353 129.663 171.847 130.329 172.039 130.728C172.174 131.008 172.266 131.291 172.323 131.745L172.31 145.297C172.256 145.658 172.17 145.909 172.048 146.182Z" fill="#03071F"/>
<path d="M210.468 126.053V158.621H217.528V149.647C217.955 150.096 218.44 150.468 218.99 150.734C219.891 151.167 220.948 151.389 222.131 151.389C223.314 151.389 224.37 151.167 225.271 150.734C226.153 150.307 226.882 149.64 227.439 148.753C228 147.863 228.369 146.896 228.536 145.883C228.715 144.825 228.805 143.111 228.805 140.791V136.176C228.805 133.855 228.715 132.142 228.536 131.084C228.369 130.072 228 129.104 227.439 128.213C226.882 127.327 226.153 126.659 225.271 126.232C224.37 125.799 223.314 125.578 222.131 125.578C220.948 125.578 219.891 125.799 218.99 126.232C218.44 126.499 217.955 126.87 217.528 127.32V126.053H210.468ZM217.597 145.297L217.585 131.744C217.641 131.29 217.733 131.009 217.869 130.727C218.06 130.33 218.554 129.663 219.725 129.663C220.897 129.663 221.39 130.33 221.582 130.727C221.824 131.233 221.932 131.717 221.932 133.249V143.797C221.932 145.19 221.832 145.641 221.591 146.182C221.438 146.521 220.957 147.308 219.748 147.308H219.701C218.493 147.308 218.011 146.521 217.859 146.182C217.737 145.909 217.653 145.657 217.597 145.297Z" fill="#03071F"/>
<path d="M249.079 131.084C248.85 130.072 248.342 129.104 247.573 128.214C246.808 127.327 245.807 126.659 244.596 126.234C243.36 125.8 241.91 125.578 240.285 125.578C238.661 125.578 237.211 125.8 235.975 126.234C234.764 126.659 233.764 127.327 232.999 128.214C232.229 129.104 231.721 130.072 231.491 131.084C231.248 132.141 231.124 133.855 231.124 136.176V140.792C231.124 143.112 231.248 144.825 231.491 145.883C231.721 146.896 232.229 147.863 232.999 148.754C233.764 149.64 234.764 150.306 235.975 150.734C237.211 151.167 238.661 151.389 240.285 151.389C241.91 151.389 243.36 151.167 244.596 150.734C245.807 150.306 246.808 149.64 247.573 148.754C248.342 147.863 248.85 146.896 249.079 145.883C249.325 144.825 249.447 143.112 249.447 140.792V136.176C249.447 133.855 249.325 132.141 249.079 131.084ZM242.41 143.797C242.41 145.19 242.31 145.641 242.07 146.182C241.917 146.521 241.434 147.309 240.226 147.309H240.179C238.972 147.309 238.489 146.521 238.338 146.183C238.096 145.641 237.996 145.19 237.996 143.797V133.25C237.996 131.717 238.104 131.233 238.347 130.727C238.538 130.33 239.032 129.663 240.203 129.663C241.374 129.663 241.869 130.33 242.061 130.727C242.302 131.233 242.41 131.717 242.41 133.25V143.797Z" fill="#03071F"/>
<path d="M196.867 132.876C196.867 131.344 196.976 131.305 197.217 130.799C197.408 130.402 197.904 129.733 199.074 129.733C200.245 129.733 200.739 130.402 200.93 130.799H200.931C201.173 131.305 201.282 131.789 201.282 133.321V133.955H208.089C208.089 132.706 208.106 131.828 207.95 131.155C207.721 130.143 207.214 129.176 206.444 128.285C205.678 127.397 204.679 126.731 203.467 126.305C202.232 125.872 200.78 125.65 199.156 125.65C197.532 125.65 196.082 125.872 194.846 126.305C193.636 126.731 192.634 127.397 191.869 128.285C191.101 129.176 190.602 130.144 190.362 131.155C188.377 139.522 201.282 140.19 201.282 144.314C201.282 145.707 201.181 145.713 200.94 146.252C200.788 146.592 200.306 147.38 199.098 147.38H199.051C197.843 147.38 197.361 146.592 197.208 146.253C196.968 145.713 196.867 145.262 196.867 143.868V142.263H190.013C190.055 143.88 190.171 145.123 190.362 145.954C190.592 146.967 191.101 147.935 191.869 148.825C192.634 149.712 193.636 150.379 194.846 150.806C196.082 151.238 197.532 151.459 199.156 151.459C200.78 151.459 202.232 151.238 203.467 150.806C204.679 150.379 205.678 149.712 206.444 148.825C207.214 147.935 207.789 146.98 207.95 145.954C209.576 135.571 196.867 136.721 196.867 132.876Z" fill="#03071F"/>
<path d="M66.961 107.33C64.6612 104.792 57.8853 100.509 55.8481 98.8278C52.9834 96.462 52.4655 93.1582 54.6856 89.9658C54.9825 89.5384 55.3166 89.1374 55.821 88.4791C53.0559 88.8087 50.863 90.9491 49.6072 92.9645C47.9231 95.6644 48.413 98.5426 49.4669 101.295C50.5443 104.11 52.0925 106.735 52.6602 109.757C53.0577 111.873 52.7752 113.225 51.3492 114.697C51.0386 115.017 50.4374 115.437 49.8272 115.688C49.5773 115.791 49.2804 115.686 49.1681 115.441C39.531 94.5969 12.15 111.396 22.1709 132.052C22.1039 119.27 28.6409 117.602 28.6409 117.602C28.6409 117.602 20.3728 127.249 27.2674 138.579C26.9623 131.331 27.7962 127.348 32.5504 124.076C30.3947 128.467 28.42 137.028 33.9637 143.876C33.9637 143.876 32.4309 136.594 36.5016 132.523C39.1951 130.008 43.8253 130.311 46.1386 133.307C49.7104 137.934 48.3424 146.022 42.8584 157.182C42.6039 157.699 42.3513 158.215 42.0797 158.746H43.9086C44.2943 158.208 44.6574 157.705 45.034 157.182C58.347 138.669 65.4534 129.023 69.1493 121.421C71.4082 116.904 71.2951 112.115 66.961 107.33Z" fill="#03071F"/>
<path d="M53.8578 82C53.7446 83.4776 54.6771 85.321 55.6323 85.8181C51.8143 88.938 43.3298 89.5565 38.5366 84.9371C44.0695 85.4957 50.0388 84.5813 53.8578 82Z" fill="#03071F"/>
<path d="M60.4552 95.0333C59.4511 95.5348 58.877 96.5027 58.7521 97.6508C55.8476 96.5742 54.6896 92.3814 56.4144 90.3315C56.9594 92.9183 58.8599 94.5308 60.4552 95.0333Z" fill="#03071F"/>
</g>
<defs>
<clipPath id="clip0_4880_19035">
<rect width="280" height="76.7461" fill="white" transform="translate(20 82)"/>
</clipPath>
</defs>
</svg>
