<svg width="320" height="240" viewBox="0 0 320 240" fill="none" xmlns="http://www.w3.org/2000/svg">
<g clip-path="url(#clip0_4880_19197)">
<path d="M10.5011 105.515H27.2955C29.4937 105.515 32.6977 106.19 33.8253 108.622C34.9536 111.057 39.1656 119.956 39.1656 119.956C39.1656 119.956 43.8546 110.222 44.686 108.561C45.5179 106.9 47.4759 105.515 50.2054 105.515H58.3365C62.2549 105.515 65.2806 107.611 65.2806 112.18C65.2806 116.753 65.4013 124.171 65.4013 128.98C65.4013 133.784 66.2892 134.321 66.7069 134.797C67.12 135.272 66.7646 135.566 66.3487 135.566H49.8499C49.1969 135.566 49.1373 135.153 49.1373 134.797V122.452C49.1373 122.452 44.7451 131.649 43.7968 133.607C42.8467 135.566 40.7108 135.742 38.7526 135.742C36.7943 135.742 34.8939 135.684 33.7077 133.251C32.5202 130.817 28.4237 122.273 28.4237 122.273V130.462C28.4237 132.954 29.4937 134.358 29.969 134.734C30.4419 135.11 30.2645 135.566 29.9068 135.566H13.0517C12.3994 135.566 12.2216 135.272 12.2216 134.797C12.2216 134.321 11.9262 115.386 11.9262 112.362C11.9262 109.334 10.7984 107.198 10.2037 106.483C9.61071 105.772 10.5011 105.515 10.5011 105.515Z" fill="#E60012"/>
<path d="M77.8637 112.796H102.613C103.207 112.796 103.8 113.016 103.8 113.668V128.624C103.8 132.599 104.75 134.024 105.105 134.436C105.46 134.854 105.282 135.566 104.63 135.566H93.7699C90.8611 135.566 89.8516 134.379 89.1412 132.42C85.5794 135.862 82.7306 135.805 79.4648 135.805C70.5032 135.805 67.13 130.47 67.2389 122.745C67.3405 115.705 73.2132 112.796 77.8637 112.796ZM83.7387 120.018C82.8481 120.849 82.1236 121.626 82.3157 125.36C82.4329 127.674 84.0363 128.98 85.9344 128.98C87.3598 128.98 88.9628 127.831 88.9628 126.129V119.659C88.9628 119.125 88.6652 118.891 88.1904 118.948C85.7565 119.245 84.629 119.187 83.7387 120.018Z" fill="#E60012"/>
<path d="M108.073 112.796H124.216C130.033 112.796 133.598 115.514 134.187 119.543C134.542 121.976 134.307 123.219 134.247 123.694C134.187 124.171 133.831 124.347 133.415 124.468C133.002 124.587 124.573 127.319 124.156 127.435C123.742 127.553 123.385 127.435 123.563 126.843C123.742 126.248 124.808 124.823 124.75 122.155C124.691 119.48 123.8 119.245 123.325 118.948C122.85 118.651 122.257 118.535 122.197 118.948C122.139 119.365 122.02 119.6 122.02 120.018C122.02 120.431 121.902 124.823 121.902 128.98C121.902 133.131 122.673 133.883 122.91 134.499C123.147 135.11 123.207 135.566 122.436 135.566H108.073C107.361 135.566 107.241 135.153 107.241 134.436V113.547C107.241 113.131 107.538 112.796 108.073 112.796Z" fill="#E60012"/>
<path d="M133.772 112.796H143.684C148.076 112.796 149.679 114.258 149.679 118.828V129.277C149.679 131.412 150.569 131.888 151.696 131.888C154.308 131.888 156.621 129.632 156.621 127.137V117.999C156.621 115.506 155.851 114.024 155.553 113.726C155.257 113.428 155.196 112.796 155.792 112.796H170.273C171.163 112.796 171.4 113.073 171.4 113.845C171.4 114.614 171.46 133.131 171.46 133.904C171.46 134.676 171.52 135.566 170.392 135.566H144.396C138.995 135.566 134.96 132.657 134.96 126.248V118.415C134.96 115.032 133.712 114.201 133.357 113.845C133.002 113.49 133.002 112.796 133.772 112.796Z" fill="#E60012"/>
<path d="M291.502 135.566H281.589C277.196 135.566 275.205 134.102 275.205 129.533V119.089C275.205 116.948 274.706 116.478 273.577 116.478C270.966 116.478 268.451 118.729 268.451 121.225V130.363C268.451 132.854 269.423 134.338 269.718 134.636C270.015 134.933 270.076 135.566 269.483 135.566H255.002C254.109 135.566 253.874 135.288 253.874 134.52C253.874 133.748 253.815 115.229 253.815 114.457C253.815 113.684 253.754 112.796 254.882 112.796H280.878C286.277 112.796 289.984 115.705 289.984 122.113V129.946C289.984 133.33 291.563 134.16 291.918 134.52C292.274 134.875 292.274 135.566 291.502 135.566Z" fill="#E60012"/>
<path d="M308.441 130.363C308.441 132.854 309.485 134.338 309.782 134.636C310.077 134.933 310.138 135.566 309.544 135.566H295.061C294.174 135.566 293.933 135.288 293.933 134.52C293.933 133.748 293.931 119.345 293.931 118.572C293.931 115.527 292.337 113.784 292.021 113.506C291.704 113.231 291.744 112.796 292.287 112.796H307.205C307.906 112.796 308.417 113.217 308.417 114.007C308.417 114.8 308.441 127.872 308.441 130.363Z" fill="#E60012"/>
<path d="M173.004 105.515H187.604C188.493 105.515 188.91 105.83 188.91 106.78V111.826C188.91 112.3 189.087 112.796 189.681 112.796H198.999C206.18 112.796 211.225 115.266 211.7 122.332C212.174 129.392 209.147 134.145 202.916 135.387C196.684 136.635 191.819 133.965 189.145 131.888C188.85 134.436 186.534 135.566 183.568 135.566H175.615C174.784 135.566 174.131 135.33 174.131 134.379V114.024C174.131 109.512 173.181 107.553 172.588 106.722C171.996 105.893 172.291 105.515 173.004 105.515ZM188.91 126.484C188.91 128.264 190.274 129.512 192.174 129.512C195.794 129.512 196.21 126.666 196.21 123.873C196.21 121.084 195.084 119.068 192.766 119.068H188.91V126.484Z" fill="#E60012"/>
<path d="M221.374 112.796H241.554C246.797 112.796 250.831 114.142 250.751 119.758V124.744C250.751 125.617 250.278 126.014 249.565 126.014H234.766C232.788 126.014 232.076 125.298 231.285 124.666C230.494 124.033 228.912 122.844 228.912 122.844V126.644C228.912 129.123 230.494 130.598 232.236 130.598C234.608 130.598 235.266 129.83 236.35 128.384C236.588 128.071 236.904 127.909 237.141 127.909H249.724C250.04 127.909 250.515 128.149 250.515 128.624C250.515 131.789 249.388 135.566 240.92 135.566H222.402C217.099 135.566 214.113 132.657 214.113 126.566V120.786C214.113 116.411 216.473 112.796 221.374 112.796ZM228.912 119.48V120.786C228.912 121.439 229.386 121.621 229.684 121.737C230.355 122.006 233.005 122.273 233.836 122.273C234.669 122.273 235.974 122.273 235.974 120.786C235.974 119.303 234.847 118.891 233.659 118.891H229.564C229.149 118.891 228.912 119.187 228.912 119.48Z" fill="#E60012"/>
<path d="M300.804 105C295.582 105 293.81 106.107 293.81 108.284C293.81 110.462 295.582 111.49 300.804 111.49C306.581 111.49 307.966 110.499 307.966 108.284C307.966 106.069 306.345 105 300.804 105Z" fill="#E60012"/>
</g>
<defs>
<clipPath id="clip0_4880_19197">
<rect width="300" height="30.805" fill="white" transform="translate(10 105)"/>
</clipPath>
</defs>
</svg>
