<svg width="320" height="240" viewBox="0 0 320 240" fill="none" xmlns="http://www.w3.org/2000/svg">
<g clip-path="url(#clip0_4880_19132)">
<path d="M8.11502 136.427H5V104.239H10.4123L17.4121 131.497V104.239H20.3606V136.427H15.8703L8.12121 108.452L8.11502 136.427Z" fill="#231815"/>
<path d="M54.4602 104.239H38.917V107.186H45.0135V136.427H48.454V107.185H54.4602V104.239Z" fill="#231815"/>
<path d="M59.3123 104.095H55.9487V130.009C55.9487 132.03 56.7723 134.027 57.8077 134.958C58.7013 135.762 60.4146 136.566 63.2458 136.566C66.1219 136.566 67.6845 135.823 68.6595 134.917C69.8922 133.774 70.5407 132.011 70.5407 130.003V104.095H67.3241V129.712C67.3241 130.226 67.2005 131.673 66.5211 132.537C65.7683 133.496 65.0171 133.909 63.2609 133.909C61.5063 133.909 60.6831 133.44 59.9615 132.613C59.3741 131.94 59.3123 130.362 59.3123 129.69C59.3123 129.02 59.2955 104.095 59.2955 104.095" fill="#231815"/>
<path d="M83.3534 117.894C82.8601 118.369 82.1955 118.904 80.6877 118.904H76.6809V107.06C77.5981 107.05 80.4633 107.068 81.1327 107.068C82.3692 107.068 83.1931 107.68 83.5412 108.164C84.1677 109.027 84.2927 110.296 84.2927 111.481C84.2927 112.614 84.2806 114.651 84.2806 115.051C84.2806 115.448 84.0657 117.2 83.3534 117.894ZM87.7706 133.719C87.6374 132.444 87.5491 124.891 87.5491 124.891C87.5491 124.891 87.5563 122.628 86.131 121.2C85.797 120.862 85.2484 120.498 84.43 120.194V120.035C86.9889 118.926 87.5478 116.587 87.5478 114.704C87.5478 112.423 87.5536 112.81 87.5536 109.38C87.5536 107.054 86.2171 105.577 85.7743 105.195C85.383 104.857 83.8848 104.126 81.9967 104.126C80.7433 104.126 73.2441 104.129 73.2441 104.129V136.427H76.6263C76.6263 136.427 76.6575 122.814 76.6575 121.807C77.3956 121.807 79.2562 121.785 80.284 121.785C81.5326 121.785 82.4887 122.359 83.1272 123.052C83.695 123.67 84.1001 125.1 84.1262 125.796C84.1938 127.531 84.3541 133.698 84.3651 133.988C84.3733 134.277 84.4756 135.706 84.7338 136.423L88.1605 136.345C88.1605 136.345 87.9034 134.995 87.7706 133.719Z" fill="#231815"/>
<path d="M95.2515 124.498L98.6618 107.796H99.2021L102.487 124.498H95.2515ZM101.412 104.239H96.7211L89.522 136.427H92.5358L94.7483 127.345H102.989L104.864 136.427H108.217L101.412 104.239Z" fill="#231815"/>
<path d="M113.073 104.239H109.539V136.427H121.597V133.596H113.073V104.239Z" fill="#231815"/>
<path d="M186.48 104.092H183.116V130.004C183.116 132.025 183.939 134.023 184.977 134.957C185.87 135.761 187.582 136.566 190.411 136.566C193.292 136.566 194.853 135.82 195.831 134.913C197.06 133.771 197.709 132.008 197.709 129.999V104.092H194.492V129.709C194.492 130.228 194.368 131.67 193.689 132.533C192.936 133.493 192.187 133.904 190.43 133.904C188.673 133.904 187.848 133.436 187.13 132.61C186.543 131.935 186.48 130.357 186.48 129.687C186.48 129.018 186.463 104.092 186.463 104.092" fill="#231815"/>
<path d="M142.962 132.838C142.261 133.533 141.461 133.794 140.32 133.794H136.163V121.515H140.512C141.963 121.517 142.722 122.247 143.095 122.749C143.488 123.288 143.835 124.914 143.835 126.312C143.835 126.93 143.839 129.156 143.839 129.819C143.839 131.062 143.43 132.372 142.962 132.838ZM136.163 106.993H139.983C141.642 107.068 142.513 107.576 142.896 108.13C143.255 108.645 143.539 109.793 143.539 110.915C143.539 111.499 143.525 113.134 143.525 113.758C143.525 115.056 143.306 116.539 142.62 117.403C142.039 118.134 141.068 118.526 139.418 118.526H136.163V106.993ZM147.117 125.43C147.117 123.354 146.564 122.178 146.104 121.547C145.642 120.91 144.795 120.291 143.947 119.932V119.73C144.528 119.549 145.076 119.082 145.391 118.699C145.703 118.323 146.725 117.505 146.725 114.156C146.725 114.074 146.715 109.987 146.715 109.975C146.661 108.951 146.555 108.111 146.311 107.43C146.029 106.641 145.642 106.103 145.366 105.754C144.819 105.069 143.469 104.237 141.258 104.237H132.745V136.427H140.953C142.507 136.427 144.049 136.27 145.232 135.256C146.366 134.424 147.165 132.631 147.165 129.819C147.165 128.063 147.117 127.143 147.117 125.43Z" fill="#231815"/>
<path d="M161.884 104.244H149.859L149.875 136.427H162.23V133.864H153.132V121.245H161.663V118.506H153.132V106.759H161.884V104.244Z" fill="#231815"/>
<path d="M226.45 136.427H223.303V124.445L215.932 104.236H219.214L224.909 119.971L230.269 104.236H233.282L226.443 124.46L226.45 136.427Z" fill="#231815"/>
<path d="M251.747 132.839C251.05 133.534 250.245 133.795 249.106 133.795H244.953V121.515H249.298C250.749 121.516 251.507 122.245 251.88 122.753C252.273 123.287 252.62 124.915 252.62 126.311C252.62 126.93 252.628 129.155 252.628 129.82C252.628 131.062 252.218 132.372 251.747 132.839ZM244.953 106.993H248.771C250.428 107.066 251.301 107.576 251.685 108.129C252.042 108.644 252.328 109.79 252.328 110.914C252.328 111.497 252.313 113.133 252.313 113.759C252.313 115.055 252.093 116.536 251.409 117.402C250.828 118.134 249.856 118.523 248.205 118.523H244.953V106.993ZM255.905 125.43C255.905 123.356 255.351 122.178 254.891 121.546C254.431 120.912 253.584 120.291 252.734 119.934V119.73C253.316 119.551 253.863 119.081 254.177 118.7C254.488 118.321 255.513 117.505 255.513 114.156C255.513 114.077 255.503 109.988 255.503 109.976C255.451 108.949 255.342 108.111 255.099 107.43C254.816 106.641 254.429 106.105 254.155 105.758C253.607 105.066 252.257 104.236 250.044 104.236H241.532V136.427H249.742C251.297 136.427 252.836 136.27 254.022 135.255C255.152 134.425 255.95 132.633 255.95 129.82C255.95 128.063 255.905 127.143 255.905 125.43Z" fill="#231815"/>
<path d="M279.533 127.237L276.406 127.234C276.406 127.234 276.359 131.301 276.518 132.53C276.667 133.689 277.428 134.86 278.435 135.567C279.315 136.181 280.335 136.705 283.237 136.705C285.783 136.705 287.145 136.07 287.906 135.567C289.09 134.785 290.226 132.887 290.427 131.31C290.741 128.812 290.816 127.571 289.931 125.177C289.292 123.441 287.277 121.562 286.901 121.185C286.343 120.629 282.5 116.852 280.692 114.665C280.392 114.299 279.957 113.412 279.891 112.68C279.763 111.201 279.935 109.918 279.979 109.527C280.022 109.127 280.396 108.107 280.849 107.675C281.383 107.161 282.308 106.759 283.749 106.759C284.979 106.759 286.12 107.116 286.552 107.933C286.944 108.669 287.011 109.555 287.051 110.134C287.126 111.143 287.072 111.138 287.079 112.885L290.203 112.95C290.203 112.95 290.417 110.721 290.301 109.401C290.182 108.071 289.971 106.96 288.872 105.766C287.728 104.526 286.029 104 283.72 104C281.65 104 280.916 104.302 280.179 104.655C279.321 105.071 278.389 105.713 277.639 106.734C276.886 107.762 276.495 109.305 276.495 111.177C276.495 112.747 276.538 113.659 277.227 115.001C278.064 116.631 279.139 117.578 279.689 118.192C280.233 118.808 285.184 123.652 286.106 124.971C286.923 126.143 287.031 126.626 287.212 127.705C287.419 128.937 287.385 130.279 287.057 131.456C286.834 132.263 285.761 133.894 283.216 133.894C280.357 133.894 279.91 132.373 279.66 131.283C279.397 130.119 279.533 127.237 279.533 127.237Z" fill="#231815"/>
<path d="M296.972 104.201H293.756V136.427H296.972V104.201Z" fill="#231815"/>
<path d="M314.925 113.325L311.823 113.292C311.823 113.292 311.891 108.99 311.221 108.121C310.59 107.302 309.926 106.757 308.093 106.757C307.4 106.757 305.771 106.98 305.039 108.39C304.288 109.838 304.362 112.592 304.291 114.938C304.222 117.28 304.239 129.068 304.376 130.408C304.565 132.286 305.08 133.376 306.049 133.724C306.463 133.912 307.134 134.07 307.914 134.07C308.74 134.07 309.301 133.919 309.829 133.736C310.631 133.456 311.35 132.558 311.511 131.502C311.809 129.534 311.714 127.014 311.714 127.014L314.954 127.018C314.954 127.018 315.105 130.309 314.861 131.746C314.666 132.9 314.373 134.806 312.215 135.867C310.877 136.524 309.456 136.705 307.914 136.705C306.228 136.705 304.616 136.433 303.226 135.564C302.041 134.828 301.416 133.645 301.039 131.815C300.905 131.175 300.83 129.628 300.83 128.335C300.83 128.335 300.836 114.439 300.836 112.339C300.836 110.352 301.028 107.548 302.51 106.064C303.94 104.636 305.683 104.035 308.093 104.035C310.147 104.035 311.02 104.3 312.136 104.791C313.253 105.285 314.415 106.577 314.683 107.875C314.952 109.167 314.978 109.716 314.925 113.325Z" fill="#231815"/>
<path d="M169.151 124.498L172.562 107.796H173.102L176.387 124.498H169.151ZM175.312 104.239H170.621L163.422 136.427H166.436L168.648 127.345H176.889L178.764 136.427H182.116L175.312 104.239Z" fill="#231815"/>
<path d="M262.499 124.498L265.909 107.796H266.449L269.734 124.498H262.499ZM268.659 104.239H263.968L256.769 136.427H259.783L261.995 127.345H270.236L272.111 136.427H275.464L268.659 104.239Z" fill="#231815"/>
<path d="M27.9805 124.498L31.3908 107.796H31.9311L35.2157 124.498H27.9805ZM34.1409 104.239H29.4502L22.251 136.427H25.2647L27.4773 127.345H35.7183L37.5927 136.427H40.9456L34.1409 104.239Z" fill="#231815"/>
<path d="M215.074 104.239H199.53V107.186H205.627V136.427H209.067V107.185H215.074V104.239Z" fill="#231815"/>
</g>
<defs>
<clipPath id="clip0_4880_19132">
<rect width="310" height="32.7047" fill="white" transform="translate(5 104)"/>
</clipPath>
</defs>
</svg>
