<svg width="320" height="240" viewBox="0 0 320 240" fill="none" xmlns="http://www.w3.org/2000/svg">
<g clip-path="url(#clip0_4880_19089)">
<path fill-rule="evenodd" clip-rule="evenodd" d="M161.386 105.943L170.677 89.8214L202.126 87.8054L203.214 85.8507L174.134 83.8166L180.932 72.0058L234.881 72C251.463 72 263.726 77.928 258.963 95.3724C257.524 100.658 250.785 113.955 231.013 119.533C235.207 120.033 245.654 124.661 243.854 136.665C240.664 157.96 213.092 168.097 197.765 168.105L134.081 168.135L130.933 155.809L164.299 153.465L165.429 151.51L129.251 149.305L125.35 134.698L176.83 131.701L177.943 129.763L85.4721 123.933L89.9004 116.236L189.444 109.777L190.566 107.84L161.386 105.943ZM203.038 109.146L212.238 109.082C218.357 109.045 224.744 106.25 227.071 100.569C229.238 95.2972 226.342 90.8061 222.5 90.8189L213.602 90.8104L203.038 109.146ZM192.466 127.503L181.4 146.701H191.939C196.827 146.701 205.591 144.261 208.287 137.297C210.781 130.839 206.186 127.491 202.988 127.499L192.466 127.503ZM112.141 157.136L105.754 168.105L60 168.164L64.4283 160.471L112.141 157.136ZM115.372 72.0058L152.153 72.0306L154.932 82.4607L110.944 79.6967L115.372 72.0058ZM157.033 90.696L161.043 105.943L98.2122 101.812L102.64 94.1195L157.033 90.696ZM125.015 134.723L117.013 148.539L72.7405 146.048L77.1685 138.356L125.015 134.723Z" fill="#E1002A"/>
</g>
<defs>
<clipPath id="clip0_4880_19089">
<rect width="200" height="96.164" fill="white" transform="translate(60 72)"/>
</clipPath>
</defs>
</svg>
