<svg width="320" height="240" viewBox="0 0 320 240" fill="none" xmlns="http://www.w3.org/2000/svg">
<g clip-path="url(#clip0_4880_19267)">
<path d="M134.269 89.934C134.368 89.1953 134.468 88.4615 134.567 87.7409C136.012 77.0305 137.182 66.3741 138.781 55.6863C140.484 44.3236 142.573 31.9051 144.793 24.8867C145.564 22.463 146.841 20.0388 147.955 20.0388C149.279 20.0388 150.334 21.8922 150.787 22.9931C151.856 25.6028 152.509 28.7064 153.207 31.4972C155.033 38.814 157.148 51.6271 158.376 60.3894C159.083 65.4411 159.903 71.3266 160.392 75.0824C160.297 75.7303 160.206 76.3738 160.116 77.0168C159.323 83.0928 158.562 89.1727 157.737 95.2487C156.428 104.844 155.119 114.445 153.415 123.982C152.427 129.51 151.426 135.037 149.586 140.365C149.025 141.991 147.788 144.846 146.705 144.846C145.468 144.841 144.861 143.922 144.394 143.057C142.79 140.075 142.111 137.058 141.359 133.8C139.451 125.527 138.142 117.145 136.937 108.746C135.972 101.999 134.799 93.9391 134.269 89.934Z" fill="#B5B1D1"/>
<path d="M216.523 103.839H208.785C208.785 103.839 207.086 115.55 206.221 120.761C205.174 127.068 204.078 133.369 202.143 139.486C201.531 141.416 200.321 144.832 198.767 144.832C197.73 144.832 197.136 143.835 196.76 143.228C195.714 141.516 194.794 138.43 194.146 135.893C192.207 128.286 190.961 120.543 189.792 112.791C188.587 104.79 186.489 89.2542 186.489 89.2542C186.539 88.8875 186.589 88.5204 186.639 88.1488C188.546 74.1852 190.141 60.9966 192.42 47.0825C193.562 40.1054 194.799 32.2403 196.933 25.4757C197.626 23.2738 198.962 20.0388 200.245 20.0388C201.645 20.0029 202.591 21.874 203.031 22.8979C204.172 25.5891 204.889 28.4388 205.563 31.4928C207.48 40.205 209.125 50.1497 210.344 58.7039C211.363 65.8759 212.31 73.0479 213.297 80.2199C214.285 87.3969 216.428 103.159 216.523 103.839Z" fill="#B5B1D1"/>
<path d="M104.228 103.838C103.498 108.971 102.783 113.955 102.416 116.425C101.319 123.76 99.8785 132.286 97.6904 139.395C97.0606 141.456 95.81 144.882 94.5142 144.882C93.3814 144.882 92.6294 144.102 91.9771 142.802C90.6042 140.088 89.8386 136.93 89.1136 133.754C87.0747 124.838 83.9756 103.838 83.9756 103.838H104.228Z" fill="#B5B1D1"/>
<path d="M77 180.551V180.497C77 174.933 81.39 170.375 87.4252 170.375C93.4644 170.375 97.796 174.874 97.796 180.438V180.497C97.796 186.056 93.4099 190.614 87.3707 190.614C81.3311 190.614 77 186.115 77 180.551ZM93.297 180.551V180.497C93.297 177.139 90.8365 174.344 87.3707 174.344C83.9045 174.344 81.4989 177.085 81.4989 180.438V180.497C81.4989 183.849 83.959 186.645 87.4252 186.645C90.891 186.645 93.297 183.904 93.297 180.551Z" fill="#1D2088"/>
<path d="M99.0415 188.294L100.859 185.499C102.48 186.672 104.184 187.289 105.584 187.289C106.812 187.289 107.373 186.84 107.373 186.17V186.115C107.373 185.191 105.919 184.883 104.27 184.38C102.173 183.763 99.7984 182.785 99.7984 179.881V179.827C99.7984 176.778 102.258 175.074 105.276 175.074C107.178 175.074 109.245 175.717 110.867 176.805L109.245 179.74C107.763 178.875 106.282 178.34 105.19 178.34C104.157 178.34 103.627 178.789 103.627 179.378V179.432C103.627 180.27 105.054 180.664 106.671 181.222C108.769 181.919 111.202 182.926 111.202 185.666V185.721C111.202 189.051 108.715 190.56 105.47 190.56C103.373 190.56 101.026 189.862 99.0415 188.294Z" fill="#1D2088"/>
<path d="M113.003 185.974V185.92C113.003 182.649 115.49 181.14 119.038 181.14C120.551 181.14 121.639 181.389 122.703 181.752V181.502C122.703 179.74 121.612 178.761 119.487 178.761C117.865 178.761 116.719 179.069 115.35 179.572L114.29 176.328C115.935 175.603 117.556 175.128 120.103 175.128C122.422 175.128 124.099 175.744 125.164 176.804C126.278 177.923 126.781 179.572 126.781 181.584V190.278H122.672V188.656C121.639 189.803 120.216 190.559 118.145 190.559C115.323 190.559 113.003 188.937 113.003 185.974ZM122.758 184.995V184.239C122.033 183.903 121.082 183.682 120.044 183.682C118.227 183.682 117.113 184.406 117.113 185.752V185.806C117.113 186.953 118.059 187.623 119.432 187.623C121.417 187.623 122.758 186.531 122.758 184.995Z" fill="#1D2088"/>
<path d="M129.952 169.872H134.202V180.746L139.176 175.295H144.264L138.56 181.194L144.459 190.278H139.539L135.711 184.13L134.202 185.72V190.278H129.952V169.872Z" fill="#1D2088"/>
<path d="M145.059 185.974V185.92C145.059 182.649 147.546 181.14 151.093 181.14C152.607 181.14 153.694 181.389 154.759 181.752V181.502C154.759 179.74 153.667 178.761 151.542 178.761C149.92 178.761 148.774 179.069 147.406 179.572L146.346 176.328C147.99 175.603 149.612 175.128 152.158 175.128C154.478 175.128 156.154 175.744 157.219 176.804C158.334 177.923 158.837 179.572 158.837 181.584V190.278H154.727V188.656C153.694 189.803 152.271 190.559 150.201 190.559C147.378 190.559 145.059 188.937 145.059 185.974ZM154.813 184.995V184.239C154.088 183.903 153.137 183.682 152.104 183.682C150.282 183.682 149.168 184.406 149.168 185.752V185.806C149.168 186.953 150.115 187.623 151.488 187.623C153.472 187.623 154.813 186.531 154.813 184.995Z" fill="#1D2088"/>
<path d="M166.566 170.711H171.206L176.348 178.984L181.495 170.711H186.134V190.279H181.858V177.502L176.348 185.861H176.24L170.789 177.588V190.279H166.566V170.711Z" fill="#1D2088"/>
<path d="M188.689 182.873V182.814C188.689 178.537 191.734 175.017 196.097 175.017C201.099 175.017 203.391 178.899 203.391 183.149C203.391 183.485 203.364 183.879 203.337 184.269H192.907C193.329 186.199 194.67 187.204 196.573 187.204C197.995 187.204 199.033 186.756 200.206 185.668L202.635 187.82C201.239 189.551 199.228 190.616 196.514 190.616C192.015 190.616 188.689 187.458 188.689 182.873ZM199.255 181.613C199.001 179.71 197.887 178.428 196.097 178.428C194.334 178.428 193.188 179.683 192.853 181.613H199.255Z" fill="#1D2088"/>
<path d="M206.701 186.03V178.93H204.911V175.297H206.701V171.464H210.951V175.297H214.471V178.93H210.951V185.332C210.951 186.311 211.368 186.786 212.319 186.786C213.103 186.786 213.801 186.587 214.417 186.252V189.663C213.524 190.193 212.487 190.529 211.064 190.529C208.463 190.529 206.701 189.496 206.701 186.03Z" fill="#1D2088"/>
<path d="M217.753 175.295H222.003V178.313C222.868 176.247 224.268 174.905 226.783 175.014V179.459H226.556C223.734 179.459 222.003 181.167 222.003 184.742V190.278H217.753V175.295Z" fill="#1D2088"/>
<path d="M227.744 182.871V182.816C227.744 178.512 231.21 175.014 235.877 175.014C240.52 175.014 243.959 178.453 243.959 182.757V182.816C243.959 187.12 240.489 190.614 235.822 190.614C231.183 190.614 227.744 187.175 227.744 182.871ZM239.764 182.871V182.816C239.764 180.605 238.169 178.675 235.822 178.675C233.389 178.675 231.935 180.551 231.935 182.757V182.816C231.935 185.022 233.53 186.953 235.877 186.953C238.31 186.953 239.764 185.077 239.764 182.871Z" fill="#1D2088"/>
<path d="M134.269 89.934C134.368 89.1953 134.468 88.4615 134.567 87.7409C136.012 77.0305 137.182 66.3741 138.781 55.6863C140.484 44.3236 142.573 31.9051 144.793 24.8867C145.564 22.463 146.841 20.0388 147.955 20.0388C149.279 20.0388 150.334 21.8922 150.787 22.9931C151.856 25.6028 152.509 28.7064 153.207 31.4972C155.033 38.814 157.148 51.6271 158.376 60.3894C159.083 65.4411 159.903 71.3266 160.392 75.0824C160.297 75.7303 160.206 76.3738 160.116 77.0168C159.323 83.0928 158.562 89.1727 157.737 95.2487C156.428 104.844 155.119 114.445 153.415 123.982C152.427 129.51 151.426 135.037 149.586 140.365C149.025 141.991 147.788 144.846 146.705 144.846C145.468 144.841 144.861 143.922 144.394 143.057C142.79 140.075 142.111 137.058 141.359 133.8C139.451 125.527 138.142 117.145 136.937 108.746C135.972 101.999 134.799 93.9391 134.269 89.934Z" fill="#9D96BF"/>
<path d="M216.523 103.839H208.785C208.785 103.839 207.086 115.55 206.221 120.761C205.174 127.068 204.078 133.369 202.143 139.486C201.531 141.416 200.321 144.832 198.767 144.832C197.73 144.832 197.136 143.835 196.76 143.228C195.714 141.516 194.794 138.43 194.146 135.893C192.207 128.286 190.961 120.543 189.792 112.791C188.587 104.79 186.489 89.2542 186.489 89.2542C186.539 88.8875 186.589 88.5204 186.639 88.1488C188.546 74.1852 190.141 60.9966 192.42 47.0825C193.562 40.1054 194.799 32.2403 196.933 25.4757C197.626 23.2738 198.962 20.0388 200.245 20.0388C201.645 20.0029 202.591 21.874 203.031 22.8979C204.172 25.5891 204.889 28.4388 205.563 31.4928C207.48 40.205 209.125 50.1497 210.344 58.7039C211.363 65.8759 212.31 73.0479 213.297 80.2199C214.285 87.3969 216.428 103.159 216.523 103.839Z" fill="#9D96BF"/>
<path d="M104.228 103.838C103.498 108.971 102.783 113.955 102.416 116.425C101.319 123.76 99.8785 132.286 97.6904 139.395C97.0606 141.456 95.81 144.882 94.5142 144.882C93.3814 144.882 92.6294 144.102 91.9771 142.802C90.6042 140.088 89.8386 136.93 89.1136 133.754C87.0747 124.838 83.9756 103.838 83.9756 103.838H104.228Z" fill="#9D96BF"/>
<path d="M134.565 87.739C136.011 77.033 137.18 66.3721 138.779 55.6887C140.482 44.3211 142.576 31.9026 144.796 24.8847C145.561 22.4605 146.839 20.0412 147.954 20.0368L120.806 20.055C120.258 20.055 118.853 20.0731 117.725 22.7369C115.613 27.7026 113.756 36.0526 111.749 49.7536C110.816 56.1099 109.864 62.3989 108.985 68.7645C108.056 75.5148 107.209 82.329 106.294 89.0799C105.628 94.0049 103.209 111.095 102.416 116.423C101.319 123.762 99.8784 132.289 97.6947 139.398C97.0606 141.455 95.81 144.884 94.5142 144.884H121.526C122.391 144.884 123.547 144.495 124.666 142.234C126.474 138.569 128.481 128.234 129.822 120.659C130.932 114.366 132.4 103.252 133.306 96.9273C133.736 93.9278 134.158 90.7379 134.565 87.739Z" fill="#1D2088"/>
<path d="M186.639 88.1508C188.546 74.1827 190.141 60.9981 192.42 47.0845C193.561 40.1073 194.798 32.2418 196.932 25.4777C197.625 23.2758 198.962 20.0407 200.244 20.0407L172.996 20C171.814 20 170.65 20.9743 169.694 23.3165C167.134 29.5781 165.598 39.5228 164.356 47.4649C162.825 57.2334 161.511 67.2233 160.116 77.0187C159.323 83.0942 158.562 89.1746 157.737 95.2457C156.428 104.846 155.118 114.447 153.41 123.984C152.423 129.512 151.426 135.039 149.586 140.367C149.025 141.989 147.788 144.848 146.705 144.848L173.808 144.825C174.696 144.825 175.787 144.621 177.115 141.676C178.379 138.876 179.67 133.104 180.649 128.043C182.04 120.848 183.141 113.613 184.187 106.364C185.062 100.302 185.828 94.2219 186.639 88.1508Z" fill="#1D2088"/>
<path d="M198.77 144.832C200.319 144.832 201.529 141.416 202.141 139.486C204.079 133.369 205.171 127.067 206.222 120.76C207.088 115.55 208.782 103.838 208.782 103.838H236.814C234.87 116.782 233.982 122.364 233.099 127.022C231.064 137.768 229.845 140.496 229.297 141.801C228.396 143.962 227.2 144.787 226.244 144.791L198.77 144.832Z" fill="#1D2088"/>
<path d="M118.045 206.201V206.147C118.045 200.741 122.254 196.311 128.013 196.311C131.438 196.311 133.504 197.235 135.484 198.92L132.851 202.101C131.383 200.877 130.079 200.17 127.877 200.17C124.837 200.17 122.417 202.862 122.417 206.092V206.147C122.417 209.626 124.81 212.177 128.176 212.177C129.698 212.177 131.057 211.796 132.118 211.035V208.321H127.904V204.706H136.163V212.965C134.21 214.623 131.519 215.983 128.04 215.983C122.118 215.983 118.045 211.824 118.045 206.201Z" fill="#1D2088"/>
<path d="M139.752 201.094H143.88V204.03C144.722 202.018 146.082 200.713 148.528 200.822V205.14H148.311C145.565 205.14 143.88 206.798 143.88 210.278V215.656H139.752V201.094Z" fill="#1D2088"/>
<path d="M149.316 208.456V208.402C149.316 204.22 152.683 200.822 157.223 200.822C161.73 200.822 165.07 204.165 165.07 208.347V208.402C165.07 212.583 161.703 215.981 157.168 215.981C152.656 215.981 149.316 212.638 149.316 208.456ZM160.997 208.456V208.402C160.997 206.254 159.447 204.383 157.168 204.383C154.803 204.383 153.39 206.2 153.39 208.347V208.402C153.39 210.549 154.939 212.42 157.223 212.42C159.583 212.42 160.997 210.604 160.997 208.456Z" fill="#1D2088"/>
<path d="M167.633 210.521V201.092H171.76V209.215C171.76 211.173 172.684 212.179 174.261 212.179C175.838 212.179 176.844 211.173 176.844 209.215V201.092H180.971V215.654H176.844V213.592C175.892 214.811 174.669 215.926 172.576 215.926C169.454 215.926 167.633 213.86 167.633 210.521Z" fill="#1D2088"/>
<path d="M184.669 201.093H188.796V203.187C189.803 201.828 191.189 200.822 193.332 200.822C196.73 200.822 199.96 203.486 199.96 208.347V208.402C199.96 213.263 196.784 215.927 193.332 215.927C191.135 215.927 189.775 214.921 188.796 213.752V220H184.669V201.093ZM195.833 208.402V208.347C195.833 205.928 194.202 204.328 192.271 204.328C190.346 204.328 188.742 205.928 188.742 208.347V208.402C188.742 210.821 190.346 212.42 192.271 212.42C194.202 212.42 195.833 210.848 195.833 208.402Z" fill="#1D2088"/>
</g>
<defs>
<clipPath id="clip0_4880_19267">
<rect width="166.959" height="200" fill="white" transform="translate(77 20)"/>
</clipPath>
</defs>
</svg>
