<svg width="320" height="240" viewBox="0 0 320 240" fill="none" xmlns="http://www.w3.org/2000/svg">
<g clip-path="url(#clip0_4880_19174)">
<path d="M0 99L0 141.587H118.928V99H0Z" fill="#004831"/>
<path d="M7.72217 119.269V133.866L13.6956 131.331V116.726L7.72217 119.269Z" fill="#C4D700"/>
<path d="M21.2192 107.189V121.797L27.1982 119.269V104.652L21.2192 107.189Z" fill="#C4D700"/>
<path d="M14.4678 116.401V131.001L20.4469 122.127V107.511L14.4678 116.401Z" fill="#C4D700"/>
<path d="M38.3679 115.216C38.3679 116.968 38.9443 118.597 41.76 120.902L42.9128 121.855C45.155 123.709 45.7756 124.659 45.7756 126.302C45.7756 127.889 44.5841 129.502 42.3089 129.502C41.3685 129.502 39.1621 129.272 38.7154 127.055C38.6492 126.712 38.6492 126.372 38.6492 126.146C38.6492 126.006 38.6492 125.677 38.2741 125.677C37.9211 125.677 37.9018 126.069 37.8852 126.263L37.8604 126.568C37.819 127.092 37.7583 127.952 37.7583 128.98C37.7583 129.676 37.7721 129.888 38.2327 130.123C39.2229 130.594 40.3757 130.83 41.7518 130.83C43.3017 130.83 44.6752 130.446 45.7122 129.721C47.3723 128.54 47.9625 126.687 47.9625 125.331C47.9625 123.329 47.3421 121.684 44.165 119.179L43.4506 118.614C41.0099 116.614 40.4032 115.802 40.4032 114.481C40.4032 112.822 41.5973 111.701 43.3541 111.701C45.4721 111.701 46.181 112.583 46.385 112.956C46.5201 113.207 46.6718 113.869 46.6995 114.16C46.7076 114.355 46.7518 114.672 47.091 114.672C47.4579 114.672 47.4579 114.16 47.4579 113.894C47.4579 112.529 47.5158 111.721 47.5378 111.38L47.5543 111.175C47.5543 110.935 47.4082 110.809 47.113 110.809C46.9365 110.809 46.7518 110.8 46.2637 110.685C45.5218 110.513 44.7579 110.434 43.8422 110.434C40.5632 110.434 38.3679 112.354 38.3679 115.216Z" fill="white"/>
<path d="M69.5539 110.96C69.5594 110.98 62.7972 126.535 62.7585 126.608C62.7171 126.561 55.6928 110.929 55.6928 110.929C55.5936 110.695 55.4612 110.438 55.1688 110.438C54.8296 110.438 54.7524 110.863 54.7139 111.05C54.7139 111.06 52.9984 127.809 52.9984 127.809C52.9156 128.702 52.8384 129.543 52.2206 129.675C51.8814 129.742 51.7739 129.742 51.545 129.742C51.3051 129.742 51.123 129.874 51.123 130.048C51.123 130.205 51.1975 130.458 51.7049 130.458C52.1214 130.458 52.8687 130.423 53.1694 130.409C53.481 130.394 53.5693 130.394 53.5693 130.394H54.1595C54.4463 130.394 55.2958 130.444 55.9052 130.458C56.1065 130.467 56.5091 130.458 56.5091 130.048C56.5091 129.874 56.3354 129.736 56.1259 129.736C55.8858 129.736 55.668 129.721 55.2819 129.622C55.0033 129.564 54.8048 129.306 54.8048 129.005C54.8048 128.567 54.8048 128.119 54.8323 127.716C54.8323 127.716 55.7038 116.442 55.726 116.442C55.668 116.442 61.4651 129.234 61.4651 129.234C61.945 130.205 62.0443 130.409 62.3172 130.409C62.6262 130.409 62.7171 130.204 63.095 129.324C63.1088 129.319 68.8314 116.202 68.8314 116.202L69.9208 128.793C69.9318 128.951 69.9318 129.075 69.9456 129.19C69.9511 129.396 69.9511 129.636 69.9043 129.654C69.7001 129.73 69.6615 129.87 69.6615 129.992C69.6615 130.317 70.0256 130.394 70.4806 130.423C71.4017 130.476 73.9473 130.458 74.4602 130.458C75.089 130.458 75.1387 130.145 75.1387 130.048C75.1387 129.956 75.1056 129.742 74.7691 129.742C74.5374 129.742 73.9473 129.742 73.2882 129.528C72.3698 129.199 72.2208 127.809 72.1326 126.975L70.5441 111.295C70.5192 110.935 70.4668 110.438 70.0724 110.438C69.7636 110.438 69.6285 110.766 69.5539 110.96Z" fill="white"/>
<path d="M81.7821 112.101C81.7821 112.06 81.7821 112.045 81.9366 112.005C82.2896 111.915 82.8025 111.885 83.1196 111.885C85.5218 111.885 86.3794 114.054 86.3794 116.085C86.3794 117.012 86.0623 117.904 85.5052 118.539C85.0199 119.09 84.733 119.141 83.3238 119.141C82.4384 119.141 81.9917 119.073 81.8207 119.044C81.8015 119.036 81.7711 119.012 81.7711 118.946C81.7711 118.89 81.7821 112.101 81.7821 112.101ZM81.5698 110.837L80.6155 110.863L80.2873 110.854C79.7358 110.831 78.5967 110.791 77.7307 110.791C77.5874 110.791 77.1406 110.791 77.1406 111.175C77.1406 111.38 77.3006 111.534 77.5295 111.534C77.7446 111.534 78.161 111.546 78.3458 111.595C79.0518 111.745 79.2503 112.019 79.3 112.876C79.3551 113.686 79.3551 114.41 79.3551 118.382V122.874C79.3551 125.269 79.3551 127.334 79.2338 128.395C79.118 129.157 79.0049 129.564 78.6436 129.636C78.3596 129.704 78.0921 129.736 77.9155 129.736C77.637 129.736 77.5128 129.909 77.5128 130.074C77.5128 130.476 77.9679 130.476 78.1169 130.476C78.6629 130.476 79.4517 130.423 80.0253 130.396L80.6155 130.394L81.5973 130.437C82.4523 130.487 83.6381 130.547 84.0105 130.547C88.4121 130.547 90.715 127.654 90.715 124.799C90.715 121.691 88.2217 119.879 86.4512 119.321C87.7474 118.451 88.6988 116.857 88.6988 114.809C88.6988 113.315 87.5847 110.791 83.4037 110.791C82.7197 110.791 82.0828 110.809 81.5698 110.837ZM82.5626 128.993C81.8897 128.661 81.8841 128.424 81.8015 127.26V127.155C81.7821 126.783 81.7821 123.568 81.7821 121.655V120.208C82.8467 120.208 83.4948 120.223 83.7017 120.258H83.7182C84.3139 120.328 84.9205 120.408 85.7535 120.967C87.9074 122.456 88.1363 124.92 88.1363 125.911C88.1363 129.25 85.0805 129.352 84.7303 129.352C84.4959 129.352 83.2796 129.331 82.5626 128.993Z" fill="white"/>
<path d="M96.9698 113.388C95.0476 115.591 94.416 118.527 94.4822 120.551C94.5623 123.775 95.6129 126.334 97.6042 128.156C99.6285 130.017 102.174 130.83 105.618 130.742C107.039 130.709 108.914 130.489 109.937 130.021C110.409 129.778 110.489 129.683 110.638 129.151C110.853 128.253 111.068 126.015 111.065 125.826C111.052 125.309 110.812 125.263 110.696 125.263C110.376 125.269 110.348 125.6 110.293 125.811C110.186 126.302 109.971 127.354 109.518 127.889C108.644 128.92 107.312 129.164 105.577 129.208C103.247 129.272 101.085 128.345 99.4657 126.604C97.9434 124.935 97.0333 122.634 96.9698 120.277C96.9119 118.104 97.0884 115.62 98.87 113.683C99.9952 112.427 101.713 111.792 104.129 111.733C106.247 111.678 108.026 112.354 108.774 113.011C109.353 113.509 109.675 114.386 109.783 115.454C109.805 115.76 109.802 116.171 110.164 116.161C110.53 116.151 110.541 115.727 110.541 115.443V114.548C110.541 113.995 110.539 113.307 110.541 112.817C110.558 112.256 110.585 111.927 110.608 111.711L110.63 111.372C110.624 111.092 110.467 110.953 110.133 110.924C109.419 110.897 108.677 110.771 107.833 110.626L107.737 110.608C106.316 110.368 104.833 110.375 104.262 110.396C101.049 110.487 98.6687 111.462 96.9698 113.388Z" fill="white"/>
<path d="M299.776 118.656H282.923V121.484H299.776V118.656Z" fill="#004831"/>
<path d="M306.172 106.998H302.223V132.745H306.172V119.778C307.479 119.492 313.373 121.453 316.922 123.792L318.32 121.83C316.737 120.193 311.409 117.72 306.172 116.592V106.998Z" fill="#004831"/>
<path d="M315.047 107.207C315.985 108.328 316.829 109.919 317.659 111.695L320 110.904C319.81 109.877 318.417 107.536 317.289 106.414L315.047 107.207Z" fill="#004831"/>
<path d="M316.354 112.118C316.175 110.993 314.854 108.937 313.649 107.621L311.357 108.516C312.107 109.263 313.18 111.184 314.018 112.86L316.354 112.118Z" fill="#004831"/>
<path d="M269.018 106.64H264.845V110.62H259.078V113.355H264.828C264.657 119.332 263.425 125.906 258.507 130.775L259.486 132.755C266.861 127.687 268.678 119.526 268.973 113.355H276.566V123.959C276.566 127.516 275.093 130.298 270.854 130.298L271.061 132.623C276.839 132.623 280.689 129.131 280.689 123.636V110.62H269.018V106.64Z" fill="#004831"/>
<path d="M183.289 113.108V121.786H174.665C174.698 121.414 174.745 120.185 174.745 119.84V113.108H183.289ZM183.289 106.05V110.34H174.745V106.05H170.55V110.34H165.067V113.108H170.55V119.051C170.55 119.607 170.487 121.059 170.398 121.786H165.067V124.512H169.921C169.224 127.605 166.896 130.152 165.746 131.291L167.106 133.953C168.471 133.108 173.2 129.425 174.199 124.512H183.289V133.34H187.379V124.512H192.415V121.786H187.379V113.108H192.415V110.34H187.379V106.05H183.289Z" fill="#004831"/>
<path d="M216.96 129.818V122.194H223.774V119.537H216.96V113.01H224.445V110.342H216.003L216.033 110.325L218.25 108.901C216.894 107.443 214.205 105.296 213.339 104.738L210.335 106.666C211.35 107.475 213.261 109.201 214.376 110.342H205.509V113.01H213.005V119.537H206.171V122.194H213.005V129.818H204.861V132.482H225.109V129.818H216.96Z" fill="#004831"/>
<path d="M205.846 106.739L202.103 105.206C201.634 106.714 199.445 113.686 195.749 118.096L197.04 120.27C197.87 119.619 198.741 118.694 199.588 117.694V133.34H203.344V112.572C204.301 110.746 205.633 107.763 205.846 106.739Z" fill="#004831"/>
<path d="M158.407 118.319H135.897V121.678H158.407V118.319Z" fill="#004831"/>
<path d="M159.637 108.344H134.67V111.701H159.637V108.344Z" fill="#004831"/>
<path d="M160.724 129.126H133.583V132.485H160.724V129.126Z" fill="#004831"/>
<path d="M239.511 118.559H247.937C247.402 121.027 246.337 123.327 244.423 125.343C242.035 123.591 240.17 121.249 239.511 118.559ZM255.824 130.04C253.742 129.512 250.659 128.713 247.402 127.113C250.159 124.326 252.225 120.089 252.768 115.984H239.095C239.395 114.743 239.633 113.45 239.82 112.103H255.672V109.327H240.14C240.264 107.973 240.355 106.566 240.427 105.107H236.097C236.072 105.797 235.976 107.781 235.838 109.327H228.513V112.103H235.529C234.776 117.685 232.994 124.396 228.124 130.698L229.539 133.058C230.002 132.802 234.616 128.02 237.578 120.66C238.383 123.33 240.063 125.586 242.035 127.388C239.986 128.831 237.316 130.066 233.86 131.037L235.168 133.328C236.985 132.916 241.034 131.67 244.583 129.36C247.904 131.533 251.784 132.828 253.836 133.347L255.824 130.04Z" fill="#004831"/>
</g>
<defs>
<clipPath id="clip0_4880_19174">
<rect width="320" height="42.5872" fill="white" transform="translate(0 99)"/>
</clipPath>
</defs>
</svg>
