<svg width="320" height="240" viewBox="0 0 320 240" fill="none" xmlns="http://www.w3.org/2000/svg">
<g clip-path="url(#clip0_4880_19094)">
<path d="M141.578 124.042C141.578 119.946 137.168 116.144 132.035 116.144C125.937 116.144 121.804 120.466 121.804 125.416C121.804 126.269 122.498 126.962 123.353 126.962H139.209C140.921 126.962 141.578 125.75 141.578 124.042ZM160.009 132.834C160.009 134.541 158.621 135.924 156.908 135.924H123.044C121.551 135.924 120.701 137.184 120.701 138.174C120.701 143.212 125.256 145.815 130.485 145.815C134.1 145.815 137.937 144.308 139.476 142.106C139.759 141.731 140.21 141.488 140.717 141.488H155.944C156.8 141.488 157.494 142.157 157.494 143.034C157.494 146.03 149.108 156.633 128.624 156.633C110.577 156.633 102.098 143.743 102.098 133.452C102.098 116.682 114.982 105.635 132.345 105.635C160.345 105.635 160.009 127.579 160.009 132.834ZM254.954 134.689C254.954 133.835 254.26 133.143 253.405 133.143C251.544 133.143 244.309 135.616 238.798 137.318C236.848 137.92 235.387 139.351 235.387 141.389C235.387 143.837 237.471 145.822 240.043 145.822C246.314 145.822 254.954 140.313 254.954 134.689ZM275.314 120.78C274.279 127.054 271.812 144.911 271.284 148.597C270.756 152.283 271.525 153.353 271.525 154.16C271.525 155.014 270.831 155.706 269.975 155.706H256.505C254.792 155.706 253.405 154.322 253.405 152.615V149.833C253.405 150.772 245.331 156.633 231.7 156.633C222.598 156.633 216.508 150.648 216.508 143.222C216.508 136.806 221.071 131.785 227.016 130.099C236.206 127.492 245.336 126.427 254.334 123.754C255.923 123.282 257.125 121.89 257.125 120.162C257.125 118.114 255.562 116.453 251.854 116.453C244.39 116.453 244.035 120.891 243.482 121.442C242.929 121.994 242.157 122.325 241.312 122.325H226.12C225.263 122.325 224.569 121.634 224.569 120.78C224.569 116.35 233.027 105.635 249.994 105.635C273.229 105.635 276.322 114.673 275.314 120.78ZM279.974 87.297L278.622 97.2902C278.485 98.1212 277.956 100.381 275.831 100.381H245.033C233.417 100.381 223.081 106.84 218.579 116.144C214.137 125.326 201.935 151.379 201.935 151.379C200.006 155.328 199.03 155.706 197.284 155.706H175.581C174.081 155.706 172.85 154.639 172.542 153.233C172.237 151.836 167.811 128.257 165.784 120.461C165.597 119.74 165.328 119.021 165 118.307C161.732 109.485 153.681 100.381 133.841 100.381H102.098C101.489 100.381 100.065 100.69 99.7722 102.52L92.5057 152.615C92.227 154.458 91.0391 155.706 89.3169 155.706H75.9844C74.2721 155.706 72.6886 154.355 72.8835 152.615C73.112 150.581 79.7984 104.235 80.0153 102.699C80.1928 101.441 78.9738 100.381 77.6893 100.381H43.1183C41.406 100.381 39.8121 98.943 40.018 97.2902C40.2563 95.3829 41.2111 89.1175 41.5684 87.0905C41.8333 85.588 42.9466 84 45.4674 84H135.046C170.517 84 181.325 103.527 184.56 118.241C184.565 118.259 184.577 118.275 184.581 118.293C186.668 127.281 187.804 133.753 188.469 137.591C188.614 138.429 189.761 138.57 190.105 137.792L202.57 109.653C208.917 94.6502 224.895 84 242.242 84H276.9C278.612 84 280.226 85.3324 279.974 87.297Z" fill="#C8922C"/>
</g>
<defs>
<clipPath id="clip0_4880_19094">
<rect width="240" height="72.6326" fill="white" transform="translate(40 84)"/>
</clipPath>
</defs>
</svg>
