<svg width="320" height="240" viewBox="0 0 320 240" fill="none" xmlns="http://www.w3.org/2000/svg">
<g clip-path="url(#clip0_4880_19363)">
<path d="M157.469 176.809C157.469 180.476 154.502 183.444 150.84 183.444H36.6278C32.9661 183.444 30 180.476 30 176.809V62.6316C30 58.9686 32.9661 56 36.6278 56H150.84C154.502 56 157.469 58.9686 157.469 62.6316V176.809Z" fill="#00A2D9"/>
<path d="M93.7424 142.528C104.25 142.528 108.595 139.006 108.595 133.695C108.595 127.446 102.337 119.808 97.8014 115.091C106.315 107.407 117.365 101.732 121.712 106.082C126.749 111.112 121.83 126.01 109.962 142.481L125.641 146.938C138.876 123.276 141.664 99.9876 132.482 93.7301C125.323 88.8535 107.312 98.6897 93.7424 111.146C80.1687 98.6897 62.1586 88.8535 55.0004 93.7301C45.8186 99.9876 48.6073 123.276 61.8398 146.938L77.5201 142.481C65.6525 126.01 60.7327 111.112 65.772 106.082C70.1177 101.732 81.1683 107.407 89.6809 115.091C85.1463 119.808 78.8869 127.446 78.8869 133.695C78.8869 139.006 83.2318 142.528 93.7424 142.528ZM93.7424 133.937C90.2524 133.937 87.3326 133.04 87.3326 130.082C87.3326 127.33 89.6578 123.175 93.7424 118.66C97.8233 123.175 100.15 127.33 100.15 130.082C100.15 133.04 97.2306 133.937 93.7424 133.937Z" fill="white"/>
<path d="M290 176.809C290 180.476 287.032 183.446 283.371 183.446H169.158C165.497 183.446 162.53 180.476 162.53 176.809V62.6323C162.53 58.9699 165.497 56.0019 169.158 56.0019H283.371C287.032 56.0019 290 58.9699 290 62.6323V176.809Z" fill="#00467E"/>
<path d="M183.625 114.327L183.624 113.075H175.284V111.144L183.624 111.146L183.625 109.763H186.359V111.146L194.699 111.144V113.075H186.356L186.358 114.327L192.614 114.337C193.037 114.337 193.308 114.616 193.308 115.032V121.861C193.308 122.263 193.023 122.555 192.614 122.555H189.932C191.083 123.988 193.176 125.62 194.716 126.017V128.15C191.162 127.49 187.709 124.952 186.359 122.337V128.439H183.624V122.337C182.274 124.952 178.836 127.49 175.281 128.15V126.017C176.82 125.62 178.903 123.995 180.053 122.561L177.39 122.563C176.973 122.563 176.694 122.273 176.694 121.869V115.032C176.694 114.63 176.975 114.337 177.39 114.337L183.625 114.327ZM186.359 120.709H190.712V119.236H186.359V120.709ZM183.625 116.179H179.266V117.523H183.625V116.179ZM183.625 119.236H179.266V120.709H183.625V119.236ZM186.359 117.523H190.712V116.179H186.359V117.523Z" fill="white"/>
<path d="M246.204 118.734C249.768 119.397 254.236 120.338 257.345 121.164V118.642C254.87 117.84 249.945 116.567 246.183 115.798L246.198 110.339H242.848V127.863H246.206L246.204 118.734Z" fill="white"/>
<path d="M260.53 126.212C260.53 126.775 260.981 127.253 261.584 127.253H276.196C276.796 127.253 277.249 126.775 277.249 126.212V112.118C277.249 111.555 276.796 111.076 276.196 111.076H261.584C260.981 111.076 260.53 111.555 260.53 112.118V126.212ZM274.143 124.711H263.64L263.642 113.603H274.146L274.143 124.711Z" fill="white"/>
<path d="M217.658 111.144L209.306 111.146L209.304 109.763H206.575V111.136L198.218 111.144V113.247H217.658V111.144Z" fill="white"/>
<path d="M201.634 123.021C200.997 124.3 199.516 125.635 198.226 126.012V128.15C201.667 127.718 204.105 125.143 204.766 123.021H201.634Z" fill="white"/>
<path d="M214.243 123.021H211.123C211.785 125.143 214.215 127.718 217.658 128.15V126.012C216.409 125.662 214.895 124.332 214.243 123.021Z" fill="white"/>
<path d="M215.145 121.666C215.552 121.666 215.842 121.38 215.842 120.971V115.492C215.842 115.098 215.554 114.798 215.145 114.798L200.715 114.8C200.292 114.8 200.021 115.073 200.021 115.484V120.961C200.021 121.367 200.292 121.655 200.715 121.655L206.575 121.661L206.571 126.16H204.594V128.373H206.74C208.185 128.373 209.312 128.377 209.312 126.184L209.309 121.668L215.145 121.666ZM202.782 119.668L202.774 116.788H213.081V119.668H202.782Z" fill="white"/>
<path d="M232.315 121.008C234.336 122.1 236.103 123.091 237.443 123.82V120.57C236.42 120.01 235.177 119.352 233.776 118.619C235.114 116.085 236.005 113.252 236.41 110.331L232.88 110.315C232.507 112.825 231.82 115.111 230.856 117.125C227.942 115.68 224.733 114.196 222.08 113.113V115.71C224.408 116.682 227.026 118.144 229.538 119.452C227.656 122.416 224.397 124.834 220.998 125.651L220.993 127.961C225.816 127.466 229.602 124.875 232.315 121.008Z" fill="white"/>
</g>
<defs>
<clipPath id="clip0_4880_19363">
<rect width="260" height="127.446" fill="white" transform="translate(30 56)"/>
</clipPath>
</defs>
</svg>
