<svg width="320" height="240" viewBox="0 0 320 240" fill="none" xmlns="http://www.w3.org/2000/svg">
<path d="M159.512 74.4332C143.132 74.4332 129.847 85.2412 129.847 98.5689C129.847 111.894 143.132 122.699 159.512 122.699C175.903 122.699 189.183 111.894 189.183 98.5689C189.183 85.2412 175.903 74.4332 159.512 74.4332ZM159.763 122.034C159.763 122.034 158.542 98.4116 134.637 86.0929C134.637 86.0929 157.566 97.6526 183.904 85.8367C183.904 85.8367 162.928 95.1416 159.763 122.034Z" fill="#44B13F"/>
<path d="M159.948 125.218C125.32 125.135 122.97 98.8336 122.97 98.8336L122.502 98.8446C122.502 98.8446 122.992 128.188 160.181 128.993" fill="#44B13F"/>
<path d="M160.004 131.303C118.235 130.267 115.375 98.9289 115.375 98.9289L114.912 98.9375C114.912 98.9375 117.138 134.224 160.236 135.083" fill="#44B13F"/>
<path d="M159.771 137.477C111.467 136.109 107.693 98.9289 107.693 98.9289L107.232 98.9375C107.232 98.9375 108.422 139.631 160.004 141.252" fill="#44B13F"/>
<path d="M159.263 137.477C207.563 136.109 211.334 98.9289 211.334 98.9289L211.799 98.9375C211.799 98.9375 210.609 139.631 159.028 141.252" fill="#44B13F"/>
<path d="M159.149 131.303C200.918 130.267 203.775 98.9289 203.775 98.9289L204.243 98.9375C204.243 98.9375 202.017 134.224 158.913 135.083" fill="#44B13F"/>
<path d="M159.326 125.218C193.956 125.135 196.309 98.8336 196.309 98.8336L196.77 98.8446C196.77 98.8446 196.281 128.188 159.089 128.993" fill="#44B13F"/>
<path d="M109.716 89.1945L109.106 91.2748L108.372 91.0613L109.836 86.0686L110.572 86.2832L109.961 88.3648L115.78 90.073L115.535 90.904L109.716 89.1945Z" fill="#44B13F"/>
<path d="M111.08 82.9815C111.974 81.1134 113.979 80.917 115.652 81.7174C117.325 82.5228 118.428 84.2114 117.533 86.0734C116.639 87.939 114.63 88.1404 112.961 87.3387C111.285 86.5371 110.182 84.8507 111.08 82.9815ZM116.841 85.744C117.526 84.32 116.522 83.095 115.278 82.502C114.037 81.9053 112.454 81.8833 111.771 83.3147C111.083 84.741 112.088 85.9647 113.331 86.5615C114.575 87.1519 116.156 87.1764 116.841 85.744Z" fill="#44B13F"/>
<path d="M113.472 78.8916L113.979 78.1913L116.739 80.1825L115.909 75.5142L116.565 74.6064L117.193 78.4414L122.166 78.5195L121.526 79.4052L117.352 79.2856L117.576 80.7841L119.517 82.1897L119.009 82.8864L113.472 78.8916Z" fill="#44B13F"/>
<path d="M121.97 74.8029L123.983 76.7453L123.379 77.3676L121.369 75.4288L116.715 74.4332L117.43 73.6938L121.129 74.5478L120.104 70.9167L120.789 70.2114L121.97 74.8029Z" fill="#44B13F"/>
<path d="M128.153 69.9089C129.222 71.2571 129.054 72.5541 127.78 73.562C126.467 74.6064 125.182 74.5808 124.055 73.163L121.345 69.7441L122.023 69.2036L124.735 72.6249C125.48 73.5643 126.406 73.6767 127.309 72.9641C128.162 72.2832 128.223 71.3926 127.473 70.4506L124.762 67.0304L125.441 66.4937L128.153 69.9089Z" fill="#44B13F"/>
<path d="M129.533 63.9081L130.3 63.4982L133.159 68.8472L136.195 67.2232L136.551 67.898L132.757 69.9284L129.533 63.9081Z" fill="#44B13F"/>
<path d="M136.791 60.4209L137.683 60.0707L142.526 65.5187L141.638 65.8641L140.226 64.2046L137.666 65.2039L137.732 67.3844L136.899 67.7089L136.791 60.4209ZM137.64 64.3925L139.693 63.5934L137.529 61.0139L137.513 61.0225L137.64 64.3925Z" fill="#44B13F"/>
<path d="M141.132 58.8323L142.02 58.5968L146.742 63.0895L146.76 63.0845L145.355 57.722L146.145 57.517L147.879 64.1254L146.964 64.3645L142.284 59.928L142.27 59.9293L143.657 65.2307L142.863 65.4382L141.132 58.8323Z" fill="#44B13F"/>
<path d="M147.924 57.1632L150.132 56.8434C152.122 56.5604 153.377 57.4389 153.693 59.6218C154.02 61.8826 153.257 63.2931 151.108 63.6044L148.902 63.9252L147.924 57.1632ZM149.647 63.0442L151.074 62.8417C151.655 62.7526 153.213 62.3549 152.856 59.8669C152.621 58.2564 151.913 57.3608 150.334 57.5915L148.891 57.8001L149.647 63.0442Z" fill="#44B13F"/>
<path d="M162.02 58.2467C161.849 57.2791 161.12 56.7824 160.221 56.7691C158.67 56.7483 158 58.0807 157.978 59.5058C157.954 61.0603 158.596 62.3757 160.15 62.3915C161.29 62.4085 161.963 61.5752 162.055 60.4453L162.922 60.46C162.734 62.1584 161.709 63.1761 160.07 63.1577C158.051 63.1321 157.085 61.5484 157.114 59.5558C157.137 57.5828 158.238 55.9747 160.236 56.0003C161.597 56.0198 162.703 56.8019 162.886 58.2564L162.02 58.2467Z" fill="#44B13F"/>
<path d="M167.208 56.4676C169.262 56.7177 170.094 58.5541 169.868 60.3978C169.643 62.239 168.392 63.8228 166.341 63.5714C164.285 63.3187 163.455 61.4824 163.682 59.6388C163.905 57.8001 165.155 56.2163 167.208 56.4676ZM166.432 62.8136C168.009 63.0004 168.84 61.6581 169.007 60.2867C169.179 58.925 168.687 57.4205 167.114 57.2277C165.538 57.0338 164.709 58.3783 164.541 59.745C164.372 61.1115 164.856 62.6172 166.432 62.8136Z" fill="#44B13F"/>
<path d="M171.546 57.2705L174.525 57.972C175.715 58.2564 176.29 59.1056 176.038 60.1684C175.849 60.9712 175.358 61.5508 174.542 61.5948L174.536 61.6143C175.237 61.9351 175.252 62.5378 175.159 63.2053C175.061 63.8704 174.852 64.5865 175.095 65.1307L174.16 64.9013C173.986 64.578 174.287 63.896 174.317 63.2139C174.383 62.5378 174.357 61.9559 173.547 61.7619L171.486 61.275L170.817 64.1131L169.974 63.9167L171.546 57.2705ZM173.419 60.9444C174.207 61.1322 174.934 61.0774 175.159 60.1086C175.313 59.4595 175.093 58.8982 174.308 58.7066L172.211 58.2124L171.666 60.5333L173.419 60.9444Z" fill="#44B13F"/>
<path d="M178.069 58.9298L180.757 59.8889C181.979 60.3208 182.384 61.2702 181.962 62.4586C181.537 63.647 180.616 64.1314 179.401 63.6909L177.531 63.0222L176.59 65.6529L175.777 65.3626L178.069 58.9298ZM177.785 62.2999L179.383 62.8722C180.296 63.2053 180.873 62.9333 181.143 62.1706C181.419 61.4031 181.143 60.8357 180.224 60.5088L178.631 59.9378L177.785 62.2999Z" fill="#44B13F"/>
<path d="M186.368 62.1266C188.221 63.0479 188.392 65.0526 187.563 66.7132C186.746 68.3787 185.04 69.4562 183.187 68.5361C181.329 67.6187 181.161 65.6102 181.987 63.9484C182.81 62.2877 184.51 61.2092 186.368 62.1266ZM183.527 67.8529C184.95 68.5557 186.18 67.5662 186.79 66.3362C187.405 65.1002 187.449 63.5176 186.023 62.8136C184.605 62.1097 183.375 63.098 182.759 64.3339C182.148 65.57 182.108 67.1464 183.527 67.8529Z" fill="#44B13F"/>
<path d="M190.165 64.329L192.716 66.0263C193.729 66.7023 193.972 67.7027 193.369 68.6081C192.911 69.2963 192.244 69.6647 191.465 69.4256L191.454 69.4403C192.002 69.987 191.809 70.5603 191.49 71.1509C191.163 71.7415 190.721 72.3369 190.766 72.9288L189.959 72.3942C189.907 72.0294 190.431 71.495 190.694 70.8629C190.988 70.2578 191.173 69.7026 190.475 69.2377L188.718 68.0615L187.1 70.4921L186.38 70.0137L190.165 64.329ZM190.646 68.4252C191.319 68.8741 192.017 69.0779 192.569 68.2483C192.941 67.6881 192.924 67.0854 192.253 66.6364L190.46 65.443L189.142 67.4259L190.646 68.4252Z" fill="#44B13F"/>
<path d="M197.5 69.7527L198.212 70.3933L195.529 77.1663L194.818 76.5294L195.663 74.5222L193.621 72.6822L191.705 73.7205L191.042 73.1252L197.5 69.7527ZM194.338 72.2979L195.978 73.7755L197.304 70.6824L197.284 70.6702L194.338 72.2979Z" fill="#44B13F"/>
<path d="M200.915 74.2404L199.499 72.6005L200.071 72.0978L203.486 76.0327L202.904 76.5343L201.485 74.8967L196.897 78.8684L196.329 78.2082L200.915 74.2404Z" fill="#44B13F"/>
<path d="M204.01 76.8661L204.513 77.5763L198.949 81.5369L198.448 80.8366L204.01 76.8661Z" fill="#44B13F"/>
<path d="M207.064 81.416C208.045 83.2377 207.018 84.9753 205.387 85.8562C203.752 86.7323 201.737 86.6261 200.765 84.8069C199.782 82.9791 200.803 81.2416 202.438 80.363C204.074 79.4883 206.087 79.5931 207.064 81.416ZM201.434 84.4396C202.183 85.8318 203.759 85.744 204.976 85.0949C206.192 84.4396 207.14 83.1742 206.392 81.7748C205.636 80.385 204.061 80.4753 202.847 81.1282C201.634 81.7748 200.683 83.0426 201.434 84.4396Z" fill="#44B13F"/>
<path d="M209.008 85.8257L209.273 86.7103L204.962 91.5909L204.965 91.6056L210.266 90.0059L210.51 90.7904L203.966 92.7647L203.695 91.8593L207.961 87.0214L207.954 87.0056L202.706 88.5893L202.468 87.8035L209.008 85.8257Z" fill="#44B13F"/>
<path d="M195.521 179.126C196.553 179.126 197.389 178.29 197.389 177.258C197.389 176.228 196.553 175.393 195.521 175.393H190.675V174.166H194.767C196.156 174.166 196.859 173.47 196.859 172.07V163.792C196.859 162.399 196.161 161.706 194.767 161.706H190.675V160.531H195.311C196.341 160.531 197.181 159.695 197.181 158.665C197.181 157.633 196.341 156.797 195.311 156.797H190.675V155.136L195.541 154.886C196.624 154.809 197.444 153.853 197.372 152.768C197.303 151.678 196.361 150.858 195.274 150.93L181.13 151.688C180.042 151.757 179.218 152.696 179.294 153.782C179.367 154.87 180.306 155.693 181.394 155.621L185.946 155.382V156.797H181.253C180.223 156.797 179.387 157.633 179.387 158.665C179.387 159.695 180.223 160.531 181.253 160.531H185.946V161.706H181.799C180.405 161.706 179.714 162.399 179.714 163.797V172.07C179.714 173.458 180.405 174.166 181.799 174.166H185.946V175.393H181.253C180.223 175.393 179.387 176.228 179.387 177.258C179.387 178.29 180.223 179.126 181.253 179.126H185.946V180.506L181.13 180.762C180.042 180.838 179.218 181.777 179.294 182.865C179.367 183.949 180.306 184.771 181.394 184.697L195.541 183.962C196.624 183.893 197.444 182.931 197.372 181.843C197.303 180.756 196.361 179.937 195.274 180.01L190.675 180.256V179.126H195.521ZM190.675 165.137H192.39C192.573 165.137 192.733 165.272 192.733 165.486V166.159C192.733 166.345 192.604 166.507 192.39 166.507H190.675V165.137ZM190.675 169.401H192.39C192.573 169.401 192.733 169.532 192.733 169.749V170.422C192.733 170.609 192.604 170.775 192.39 170.775H190.675V169.401ZM185.932 170.775H184.212C183.998 170.775 183.865 170.609 183.865 170.422V169.749C183.865 169.532 184.029 169.401 184.212 169.401H185.932V170.775ZM185.932 166.507H184.212C183.998 166.507 183.865 166.345 183.865 166.159V165.486C183.865 165.272 184.029 165.137 184.212 165.137H185.932V166.507ZM211.943 158.853C211.943 158.843 211.948 158.831 211.948 158.821C211.948 157.698 211.034 156.786 209.908 156.786H205.905L206.375 152.801C206.544 151.437 205.57 150.195 204.203 150.031C202.841 149.865 201.581 150.834 201.418 152.201L200.873 156.786H199.553C198.426 156.786 197.512 157.698 197.512 158.821C197.512 159.949 198.426 160.863 199.553 160.863H200.398L197.888 182.133C197.718 183.498 198.691 184.74 200.057 184.901C201.424 185.069 202.66 184.097 202.828 182.734L205.421 160.863H206.941V180.067H205.936C204.744 180.067 203.775 181.032 203.775 182.229C203.775 183.424 204.744 184.389 205.936 184.389H209.781C210.971 184.389 211.932 183.436 211.943 182.248C211.943 182.236 211.948 182.233 211.948 182.229C211.948 182.224 211.943 182.221 211.943 182.214V158.853Z" fill="#231815"/>
<path d="M102.74 180.315L95.309 173.624H100.559C101.951 173.624 102.657 172.926 102.657 171.53V160.451C102.657 159.057 101.956 158.365 100.564 158.365H90.5438V156.896H101.504C102.703 156.896 103.669 155.925 103.669 154.734C103.669 153.54 102.703 152.572 101.504 152.572H90.5413C90.4968 151.166 89.3028 149.995 87.8234 149.995C86.3483 149.995 85.1531 151.166 85.1116 152.572H74.1674C72.9717 152.572 72.0048 153.54 72.0048 154.734C72.0048 155.925 72.9717 156.896 74.1674 156.896H85.1031V158.365H75.0484C73.6593 158.365 72.9662 159.057 72.9662 160.457V171.53C72.9662 172.919 73.6593 173.624 75.0484 173.624H80.2451L72.8107 180.315C71.8065 181.221 71.7236 182.768 72.627 183.771C73.5336 184.779 75.0789 184.858 76.0843 183.956L85.1031 175.837V182.212C85.1031 183.783 86.3232 184.998 87.8234 184.998C89.3267 184.998 90.5438 183.783 90.5438 182.212V175.925L99.4674 183.956C100.473 184.858 102.02 184.779 102.925 183.771C103.834 182.768 103.747 181.221 102.74 180.315ZM97.1118 168.956C97.1118 169.307 96.9069 169.485 96.5591 169.485H90.5438V168.005H96.5591C96.9069 168.005 97.1118 168.207 97.1118 168.556V168.956ZM96.5591 162.535C96.9069 162.535 97.1118 162.738 97.1118 163.084V163.49C97.1118 163.836 96.9069 164.017 96.5591 164.017H90.5438V162.535H96.5591ZM78.5387 163.084C78.5387 162.738 78.7413 162.535 79.0932 162.535H85.1031V164.017H79.0921C78.7413 164.017 78.5387 163.836 78.5387 163.49V163.084ZM78.5387 168.956V168.556C78.5387 168.207 78.7413 168.005 79.0932 168.005H85.1031V169.485H79.0921C78.7413 169.485 78.5387 169.307 78.5387 168.956Z" fill="#231815"/>
<path d="M115.756 175.07C114.575 174.139 112.862 174.341 111.929 175.52L108.166 180.291C107.234 181.473 107.436 183.188 108.617 184.12C109.798 185.056 111.511 184.849 112.446 183.666L116.205 178.898C117.138 177.719 116.934 176.006 115.756 175.07ZM137.19 180.136C137.276 180.093 137.37 180.052 137.448 179.998C138.465 179.353 138.758 178.006 138.11 176.994L136.467 174.417C136.231 174.049 135.899 173.774 135.53 173.607C137.215 173.568 138.244 172.509 138.244 170.793V160.415C138.244 158.67 137.18 157.623 135.436 157.623H133.181L135.931 154.147C136.808 153.023 136.604 151.4 135.481 150.524C134.355 149.651 132.732 149.853 131.858 150.978L131.247 151.753H118.72C118.565 151.498 118.366 151.266 118.113 151.068C117.034 150.229 115.476 150.42 114.634 151.503L111.763 155.058C111.17 155.815 111.092 156.808 111.471 157.623H109.317C108.1 157.623 107.107 158.614 107.107 159.836C107.107 161.054 108.1 162.05 109.317 162.05H132.088C132.43 162.05 132.668 162.249 132.668 162.596V162.993C132.668 163.333 132.446 163.55 132.097 163.55H109.168C108.027 163.55 107.101 164.481 107.101 165.622C107.101 166.761 108.027 167.687 109.168 167.687H132.125C132.475 167.687 132.69 167.894 132.69 168.243V168.621C132.69 168.969 132.475 169.18 132.125 169.18H109.316C108.096 169.18 107.101 170.171 107.101 171.399C107.101 172.621 108.096 173.607 109.316 173.607H118.881V181.711C118.881 183.664 119.668 184.518 121.667 184.518H136.892C138.105 184.518 139.091 183.534 139.091 182.316C139.091 181.201 138.266 180.284 137.19 180.136ZM126.626 157.582C126.614 157.596 126.608 157.613 126.601 157.623H116.066L117.358 156.027H127.861L126.626 157.582ZM124.458 180.113V173.607H127.125C127.033 173.655 126.943 173.697 126.852 173.756C125.842 174.403 125.544 175.75 126.193 176.757L127.841 179.337C128.062 179.682 128.371 179.944 128.713 180.113H124.458ZM130.637 180.113C130.706 180.079 130.776 180.04 130.843 179.998C131.857 179.353 132.151 178.006 131.507 176.994L129.86 174.417C129.625 174.05 129.296 173.78 128.929 173.607H133.73C133.641 173.655 133.546 173.697 133.46 173.756C132.446 174.403 132.151 175.75 132.798 176.757L134.447 179.337C134.669 179.682 134.974 179.944 135.318 180.113H130.637Z" fill="#231815"/>
<path d="M174.929 154.978C174.929 153.64 173.848 152.559 172.507 152.559H145.449C144.112 152.559 143.027 153.64 143.027 154.978C143.027 156.313 144.112 157.399 145.449 157.399H153.488L142.643 178.616C142.008 179.854 142.493 181.379 143.736 182.024C144.978 182.66 146.497 182.172 147.137 180.933L156.32 162.951V182.177C156.32 183.71 157.562 184.954 159.097 184.954C160.629 184.954 161.872 183.71 161.872 182.177V157.399H172.507C173.848 157.399 174.929 156.313 174.929 154.978ZM176.098 177.624L167.844 161.95C167.186 160.708 165.648 160.233 164.409 160.888C163.168 161.542 162.687 163.081 163.346 164.324L171.599 179.993C172.257 181.238 173.794 181.711 175.036 181.06C176.28 180.401 176.756 178.863 176.098 177.624Z" fill="#231815"/>
<path d="M245.695 164.402C246.968 164.402 248 163.367 248 162.096C248 160.821 246.968 159.79 245.695 159.79H239.243L240.41 156.829H244.258C245.459 156.829 246.429 155.854 246.429 154.656C246.429 153.453 245.459 152.484 244.258 152.484H234.296V152.439C234.299 151.076 233.203 149.975 231.845 149.97C230.484 149.968 229.38 151.066 229.376 152.428V152.484H219.451C218.25 152.484 217.278 153.453 217.278 154.656C217.278 155.854 218.25 156.829 219.451 156.829H223.301L224.47 159.79H218.564C217.287 159.79 216.254 160.821 216.254 162.096C216.254 163.269 217.134 164.236 218.264 164.383L215.822 182.419C215.641 183.717 216.548 184.92 217.849 185.101C219.154 185.281 220.353 184.376 220.537 183.071L223.085 164.402H245.695ZM235.522 156.829L234.353 159.79H229.357L228.192 156.829H235.522ZM245.818 180.284H237.661V178.195H243.48C244.666 178.195 245.63 177.233 245.63 176.047C245.63 174.863 244.666 173.9 243.48 173.9H237.661V171.921H245.19C246.379 171.921 247.336 170.959 247.336 169.778C247.336 168.592 246.379 167.633 245.19 167.633H237.661V167.465C237.661 166.003 236.477 164.817 235.012 164.817C233.55 164.817 232.362 166.003 232.362 167.465V167.633H228.336L228.386 167.262C228.538 166.085 227.7 165.01 226.523 164.867C225.349 164.719 224.278 165.552 224.126 166.725L223.357 172.565C223.218 173.683 223.959 174.701 225.04 174.935C224.843 175.258 224.726 175.637 224.726 176.047C224.726 177.233 225.686 178.195 226.869 178.195H232.362V180.284H224.657C223.473 180.284 222.516 181.243 222.516 182.429C222.516 183.615 223.473 184.574 224.657 184.574H245.818C247.001 184.574 247.961 183.615 247.961 182.429C247.961 181.243 247.001 180.284 245.818 180.284ZM232.362 173.9H227.344C227.482 173.661 227.581 173.392 227.614 173.106L227.766 171.921H232.362V173.9Z" fill="#231815"/>
</svg>
