<svg width="320" height="240" viewBox="0 0 320 240" fill="none" xmlns="http://www.w3.org/2000/svg">
<g clip-path="url(#clip0_4880_19100)">
<path d="M160 23C119.777 23 87.0522 55.7239 87.0522 95.9474C87.0522 136.171 119.777 168.895 160 168.895C200.224 168.895 232.947 136.171 232.947 95.9474C232.947 55.7238 200.224 23 160 23ZM161.05 28.2195C178.383 28.4851 194.155 35.2831 206.007 46.2675L158.924 93.351H95.9176L161.05 28.2195ZM162.596 97.0235L209.68 49.94C220.664 61.7925 227.462 77.5642 227.728 94.898L162.596 160.03V97.0235ZM153.405 28.5186L92.5709 89.3527C95.6873 57.2473 121.3 31.6349 153.405 28.5186ZM92.3109 98.5438H157.404V163.637C122.107 162.298 93.6495 133.841 92.3109 98.5438ZM166.595 163.377L227.429 102.542C224.313 134.647 198.7 160.26 166.595 163.377Z" fill="#0055B8"/>
<path d="M20 192.541H25.5735L30.4715 208.553L35.775 192.474H40.2341L45.5375 208.553L50.4355 192.541H55.8742L47.8007 216.357H43.2742L37.9369 200.885L32.5995 216.357H28.0734L20 192.541Z" fill="#0055B8"/>
<path d="M61.1787 192.541H66.3808V201.898H75.9745V192.541H81.1766V216.188H75.9745V206.696H66.3808V216.188H61.1787V192.541Z" fill="#0055B8"/>
<path d="M87.5801 204.432V204.364C87.5801 197.643 92.8835 192.136 100.18 192.136C107.476 192.136 112.712 197.575 112.712 204.297V204.364C112.712 211.086 107.409 216.593 100.112 216.593C92.8156 216.593 87.5801 211.154 87.5801 204.432ZM107.273 204.432V204.364C107.273 200.311 104.301 196.933 100.112 196.933C95.9236 196.933 93.0183 200.243 93.0183 204.297V204.364C93.0183 208.419 95.9911 211.796 100.18 211.796C104.369 211.796 107.273 208.486 107.273 204.432Z" fill="#0055B8"/>
<path d="M119.057 192.541H124.259V211.458H136.048V216.188H119.057V192.541Z" fill="#0055B8"/>
<path d="M141.334 192.541H159.17V197.169H146.503V201.966H157.65V206.594H146.503V211.56H159.339V216.188H141.334V192.541Z" fill="#0055B8"/>
<path d="M177.814 192.541H195.65V197.169H182.983V201.966H194.13V206.594H182.983V211.56H195.819V216.188H177.814L177.814 192.541Z" fill="#0055B8"/>
<path d="M210.606 192.373H215.403L225.537 216.188H220.098L217.936 210.884H207.937L205.776 216.188H200.472L210.606 192.373ZM216.078 206.29L212.937 198.622L209.795 206.29H216.078Z" fill="#0055B8"/>
<path d="M230.71 192.541H241.519C244.526 192.541 246.857 193.387 248.411 194.94C249.728 196.257 250.437 198.115 250.437 200.345V200.413C250.437 204.23 248.377 206.628 245.37 207.743L251.147 216.188H245.066L240 208.621H235.912V216.188H230.71V192.541ZM241.182 204.027C243.715 204.027 245.168 202.676 245.168 200.682V200.615C245.168 198.385 243.614 197.237 241.081 197.237H235.912V204.027L241.182 204.027Z" fill="#0055B8"/>
<path d="M262.286 197.338H255.09V192.541H274.683V197.338H267.488V216.188H262.286V197.338Z" fill="#0055B8"/>
<path d="M280.002 192.541H285.204V201.898H294.798V192.541H300V216.188H294.798V206.696H285.204V216.188H280.002V192.541Z" fill="#0055B8"/>
</g>
<defs>
<clipPath id="clip0_4880_19100">
<rect width="280" height="193.593" fill="white" transform="translate(20 23)"/>
</clipPath>
</defs>
</svg>
