<svg width="320" height="240" viewBox="0 0 320 240" fill="none" xmlns="http://www.w3.org/2000/svg">
<g clip-path="url(#clip0_4880_19103)">
<path d="M206.099 121.702H205.776L192.141 121.663L193.097 118.095L205.328 118.165H205.52L205.571 117.976L207.934 109.166L208.018 108.851H207.688L195.789 108.872L196.712 105.363L210.32 105.322H210.512L210.563 105.14L213.013 95.985L213.101 95.6663H212.774L184.793 95.6697L191.276 89.4416L191.723 89.0109H172.42L172.349 89.0791L160.468 100.489L156.214 92.8278L156.14 92.6999H137.328L137.537 93.0702L148.206 112.267L128.782 130.922L128.333 131.356H147.638L147.708 131.285L154.925 124.356L158.743 131.226L158.815 131.356H172.938L172.918 131.431H173.244L203.242 131.437H203.433L203.481 131.253L206.015 122.017L206.099 121.702ZM167.185 112.577L181.774 98.5677L174.469 125.677L167.185 112.577Z" fill="#004098"/>
<path d="M184.52 98.4904H209.546L208.482 102.461H194.517H194.325L194.278 102.648L191.965 111.271L191.878 111.591H192.204H204.409L203.41 115.317H191.154H190.962L190.912 115.502L188.599 124.126L188.515 124.442H188.845H202.511L201.4 128.581H176.455L184.52 98.4904Z" fill="white"/>
<path d="M155.622 120.241L146.849 128.621H134.45L151.327 112.503L151.469 112.364L151.374 112.191L141.79 95.4486H154.333L159.422 104.339L159.58 104.617L159.815 104.394L173.618 91.2144H186.011L164.109 112.136L163.964 112.272L164.058 112.442L173.305 128.582H160.757L156.015 120.298L155.853 120.019L155.622 120.241Z" fill="white"/>
<path d="M308.67 103.788C306.957 100.136 303.241 97.1563 298.471 95.6171C291.13 93.27 281.369 94.7262 273.603 99.3307C270.954 100.909 268.675 102.786 266.811 104.82L269.177 96.0053L269.265 95.691H253.125L253.074 95.875L247.097 118.104C246.703 115.689 244.677 113.822 241.432 112.85C243.084 112.157 244.205 111.375 245.646 110.325C248.308 108.217 250.005 104.382 249.429 101.772C248.699 98.0719 244.676 95.8031 238.675 95.7055C238.668 95.7055 214.851 95.6776 214.851 95.6776H214.655L214.608 95.8638L205.116 131.127L205.029 131.443L205.355 131.446L227.022 131.478C231.485 131.605 236.1 131.738 240.361 129.629C242.569 128.494 244.128 126.871 245.208 125.125L243.589 131.15L243.505 131.467H259.641L259.692 131.283L262.065 122.476C264.081 127.957 270.305 132.207 277.7 132.877C287.35 133.55 297.088 129.928 303.745 123.182C309.515 117.307 311.625 108.964 308.67 103.788Z" fill="#004098"/>
<path d="M301.662 121.642C295.832 127.417 287.265 130.521 278.74 129.939C271.56 129.312 265.599 124.96 264.569 119.592C263.068 113.353 267.275 106.132 275.03 101.616C281.856 97.6723 290.45 96.4193 296.929 98.4243C301.1 99.7258 304.351 102.23 305.852 105.29C308.451 109.657 306.643 116.677 301.662 121.642Z" fill="white"/>
<path d="M257.592 128.686H247.181L255.289 98.4185H265.703L257.592 128.686Z" fill="white"/>
<path d="M234.898 128.346C231.259 128.878 230.32 128.602 230.31 128.599L230.273 128.585H208.674L216.735 98.4938H238.267C238.311 98.4962 243.569 98.6174 245.582 101.162C246.305 102.077 246.534 103.213 246.248 104.537C246.235 104.615 245.477 109.881 236.157 112.321C236.174 112.318 233.094 112.887 233.094 112.887L232.155 113.061L233.057 113.371C233.114 113.394 234.508 113.866 235.612 114.031C236.675 114.19 240.23 115.314 240.267 115.326C240.246 115.317 240.354 115.364 240.354 115.364C241.505 115.851 245.003 117.327 243.815 121.217C243.801 121.277 242.418 127.246 234.898 128.346Z" fill="white"/>
<path d="M282.866 104.878L282.86 104.885L282.843 104.888C277.979 107.164 275.101 111.621 274.956 117.111L274.953 117.124L274.956 117.138C275.158 119.406 276.855 122.21 280.106 123.001C284.142 123.918 288.393 122.926 291.48 120.355C295.27 116.879 296.946 111.484 295.378 107.793C293.698 103.602 287.811 103.153 282.866 104.878Z" fill="#004098"/>
<path d="M283.617 107.556C287.141 106.359 291.321 106.626 292.51 109.461C293.641 112.018 292.452 115.777 289.756 118.198C287.541 120.005 284.479 120.699 281.56 120.059C279.328 119.529 278.147 117.656 277.992 116.138C278.036 114.303 278.672 109.824 283.617 107.556Z" fill="white"/>
<path d="M229.061 111.596C232.687 111.596 234.918 109.963 235.874 106.612C236.248 105.32 236.12 104.244 235.507 103.414C234.306 101.797 231.684 101.738 231.572 101.737H225.925L225.874 101.925L223.366 111.28L223.286 111.596H229.061Z" fill="#004098"/>
<path d="M232.151 107.867C231.115 108.905 229.778 108.863 228.358 108.817C227.897 108.8 227.412 108.796 226.938 108.818L228.072 104.591C228.429 104.595 228.786 104.595 229.139 104.588C230.829 104.56 232.424 104.535 232.909 105.752C233.141 106.325 232.704 107.048 232.151 107.867Z" fill="white"/>
<path d="M229.072 114.997H222.451L222.401 115.182L219.741 125.112L219.657 125.425H226.248C230.152 125.425 232.805 123.54 233.724 120.117C234.121 118.629 233.966 117.433 233.259 116.551C231.933 114.896 229.18 114.996 229.072 114.997Z" fill="#004098"/>
<path d="M230.166 121.366C228.489 122.87 226.093 122.756 223.979 122.651C223.723 122.638 223.481 122.63 223.238 122.621L224.544 117.639C225.066 117.663 225.615 117.663 226.157 117.656C228.176 117.628 230.263 117.606 231.017 118.874C231.226 119.629 230.721 120.651 230.166 121.366Z" fill="white"/>
<path d="M36.5314 112.411C35.167 112.035 34.6398 111.685 33.6355 111.446C31.9492 111.059 29.6515 110.527 27.7014 111.347C27.0519 111.783 26.5986 112.364 26.7534 112.893C28.1132 114.485 31.1986 114.101 33.2361 114.918C35.7056 115.495 37.5176 117.619 37.6758 119.692C37.6613 123.312 35.4677 126.832 31.1549 129.151C24.7305 132.669 15.7658 131.9 10.8998 129.151L10 128.521L14.2512 121.768C16.9147 123.601 19.8398 125.583 24.2076 124.617C25.2185 124.183 26.0657 123.458 25.8109 122.638C24.7912 121.335 22.2823 121.575 20.4345 121.143C17.5879 120.658 14.8402 118.683 14.6057 116.219C13.965 113.275 16.1607 110.191 19.1397 107.971C24.3367 104.354 31.3882 103.822 36.7423 105.174C37.9854 105.659 39.3352 105.945 40.4179 106.573L36.5314 112.411Z" fill="#E60020"/>
<path d="M126.9 115.436C126.14 116.71 125.2 117.922 124.397 119.194C123.723 119.134 123.177 118.73 122.528 118.575C121.445 118.324 119.963 117.98 118.708 118.512C118.289 118.79 117.998 119.163 118.099 119.508C118.976 120.53 120.959 120.285 122.275 120.813C123.864 121.184 125.031 122.55 125.134 123.887C125.123 126.216 123.709 128.488 120.932 129.979C116.795 132.248 111.019 131.749 107.89 129.979L107.304 129.575L110.043 125.223C111.763 126.408 113.644 127.68 116.456 127.057C117.109 126.775 117.654 126.312 117.49 125.785C116.83 124.941 115.22 125.098 114.028 124.819C112.192 124.509 110.421 123.231 110.273 121.648C109.861 119.753 111.276 117.767 113.194 116.337C116.542 114.004 121.083 113.664 124.534 114.536C125.332 114.848 126.204 115.031 126.9 115.436Z" fill="#E60020"/>
<path d="M110.79 119.588L106.216 119.599L103.11 131.049L95.762 131.059L98.8519 119.521L94.5962 119.538L95.9774 114.385L112.215 114.395L110.79 119.588Z" fill="#E60020"/>
<path d="M41.5087 131.038H34.0273L38.4827 114.41L51.1365 114.431C53.3468 114.627 55.4235 115.899 55.5851 117.736C55.8982 120.002 54.8154 122.89 52.2102 124.604C49.4569 126.435 45.9899 125.909 42.8597 125.998L41.5087 131.038ZM44.868 118.79L44.1006 121.648C45.043 121.716 46.1672 121.806 47.0895 121.369C47.7626 120.874 48.124 120.097 48.0218 119.474C47.7369 118.39 45.9732 118.949 44.868 118.79Z" fill="#E60020"/>
<path d="M82.1973 125.563L80.7084 131.074H73.6611L78.1267 114.412H89.3656C91.8473 114.596 94.3034 115.314 94.8015 117.33C95.1292 119.104 94.4325 121.555 92.2647 122.924C91.3224 123.577 90.3093 123.918 89.2488 124.169L92.4667 131.038H84.4849L82.1973 125.563ZM84.0171 118.916L83.2563 121.742C84.3109 121.682 85.4622 121.959 86.3699 121.311C86.8962 120.901 87.1407 120.285 87.1305 119.753C86.9386 118.602 85.2288 118.976 84.0171 118.916Z" fill="#E60020"/>
<path d="M75.8885 118.168C77.327 120.687 76.122 124.603 73.5908 127.181C70.4335 130.379 65.8479 132.028 61.4027 131.719C57.6193 131.379 54.4183 129.014 53.882 125.998C53.1078 122.584 55.4135 118.575 59.5211 116.118C63.034 114.038 67.6532 113.259 71.1527 114.378C73.2699 115.059 75.0606 116.398 75.8885 118.168ZM64.1413 119.784C62.1757 120.687 61.4452 122.395 61.4116 123.95C61.4935 124.789 62.1431 125.657 63.19 125.909C64.4589 126.186 65.9769 125.967 67.154 125.007C68.4645 123.824 69.0366 121.991 68.4835 120.75C67.9012 119.352 65.8726 119.194 64.1413 119.784Z" fill="#E60020"/>
<path d="M31.3309 102.763L28.3218 102.751L30.108 96.1131L33.0779 96.1016L32.4821 98.3525L34.3591 98.3377L34.9617 96.1016L37.9202 96.1131L36.1408 102.766H33.172L33.8082 100.402H31.966L31.3309 102.763Z" fill="#004098"/>
<path d="M40.7883 98.5927L43.0973 98.586L42.6497 100.252L40.3002 100.262L40.1027 101.021L42.7339 101.009L42.2772 102.753H36.6011L38.3715 96.1016H44.0712L43.6056 97.8274L40.9902 97.8353L40.7883 98.5927Z" fill="#004098"/>
<path d="M29.1598 98.1706L27.3052 98.1761L26.0722 102.778H23.1202L24.3566 98.1539L22.6636 98.1661L23.1976 96.1016H29.7039L29.1598 98.1706Z" fill="#004098"/>
<path d="M67.4612 93.9161C65.9768 93.4203 65.5685 93.1902 64.562 92.9512C62.8767 92.5651 60.5801 92.0333 58.6313 92.8556C57.9782 93.2913 57.5249 93.8665 57.6853 94.3985C59.0419 95.9905 62.1251 95.6058 64.166 96.4248C66.6332 97.0039 68.4474 99.1244 68.6045 101.199C68.5878 104.817 66.3976 108.34 62.0813 110.655C55.6591 114.179 46.6932 113.407 41.8318 110.655L40.9297 110.029L45.1787 103.276C47.8433 105.108 50.7695 107.086 55.1351 106.12C56.1472 105.687 56.9954 104.963 56.7396 104.143C55.7174 102.838 53.212 103.083 51.3608 102.647C48.5132 102.164 45.7699 100.189 45.5343 97.7285C44.8926 94.7843 47.0894 91.6958 50.066 89.4763C55.263 85.8581 62.3169 85.3294 67.6698 86.6794C68.9119 87.1618 70.264 87.4513 71.3511 88.0771L67.4612 93.9161Z" fill="#004098"/>
<path d="M87.3967 95.8359L84.6916 106.029C84.005 108.172 82.937 110.439 80.0936 111.745C76.2161 113.61 70.604 113.516 67.6454 111.807C65.8311 110.564 65.3497 108.639 65.9163 106.527L68.7426 95.8359H76.031L73.2878 106.075C73.078 107.007 73.5604 107.489 74.0181 107.645C74.651 107.861 75.5587 107.768 76.2251 107.428C76.7872 107.055 77.2854 106.478 77.3977 105.919L80.0589 95.8359H87.3967Z" fill="#004098"/>
<path d="M91.183 112.498H83.9194L88.3555 95.8359L100.851 95.8402C103.056 96.0545 105.133 97.3257 105.294 99.1611C105.607 101.428 104.526 104.32 101.918 106.029C99.1648 107.861 95.6967 107.334 92.5675 107.428L91.183 112.498ZM94.5792 100.22L93.8097 103.075C94.7544 103.139 95.8786 103.231 96.8008 102.798C97.4682 102.301 97.832 101.523 97.7309 100.9C97.455 99.9915 95.6843 100.372 94.5792 100.22Z" fill="#004098"/>
<path d="M125.133 106.988L123.644 112.499H116.603L121.064 95.8403H132.305C134.789 96.0208 137.244 96.7367 137.739 98.7551C138.071 100.527 137.375 102.981 135.204 104.352C134.262 105.002 133.251 105.342 132.187 105.594L135.405 112.459L127.419 112.465L125.133 106.988ZM126.956 100.343L126.199 103.169C127.25 103.106 128.404 103.386 129.303 102.734C129.838 102.329 130.081 101.709 130.066 101.18C129.876 100.032 128.168 100.402 126.956 100.343Z" fill="#004098"/>
<path d="M111.855 102.09L117.673 102.103L116.556 106.207L110.68 106.231L110.187 108.13L116.765 108.11L115.63 112.465H101.437L105.859 95.8359L120.11 95.8727L118.945 100.15L112.402 100.171L111.855 102.09Z" fill="#004098"/>
<path d="M39.6213 150.978H35.3185L33.7705 142.232H33.7305L32.2224 150.978H27.8996L23.999 136.623H28.342L30.0911 145.489H30.1314L31.8606 136.623H35.7609L37.4498 145.61H37.4902L39.2795 136.623H43.6425L39.6213 150.978Z" fill="#231815"/>
<path d="M47.2045 146.655C47.3049 147.842 47.9884 148.686 49.235 148.686C49.8784 148.686 50.5822 148.445 50.9039 147.942H54.6235C53.8192 150.194 51.6276 151.24 49.2552 151.24C45.9175 151.24 43.4043 149.269 43.4043 145.791C43.4043 142.755 45.616 140.282 48.9135 140.282C53.0554 140.282 54.8446 142.594 54.8446 146.655H47.2045ZM51.0245 144.584C51.0245 143.619 50.3009 142.835 49.2754 142.835C48.0891 142.835 47.4055 143.459 47.2247 144.584H51.0245Z" fill="#231815"/>
<path d="M73.4019 148.646C73.4019 149.43 73.442 150.315 73.8844 150.978H69.823C69.7226 150.696 69.6624 150.274 69.6821 149.993H69.6421C68.7975 150.958 67.5712 151.24 66.2842 151.24C64.2737 151.24 62.605 150.274 62.605 148.083C62.605 144.786 66.4654 144.906 68.496 144.524C69.039 144.423 69.5818 144.263 69.5818 143.599C69.5818 142.896 68.9181 142.634 68.275 142.634C67.0484 142.634 66.8072 143.257 66.787 143.7H63.0874C63.2081 140.765 65.9828 140.282 68.4559 140.282C73.442 140.282 73.4019 142.352 73.4019 144.363V148.646ZM69.5818 146.294C69.0993 146.535 68.5563 146.675 68.0135 146.796C67.1289 146.997 66.6664 147.218 66.6664 147.922C66.6664 148.405 67.1892 148.887 67.9128 148.887C68.8177 148.887 69.5216 148.344 69.5818 147.259V146.294Z" fill="#231815"/>
<path d="M75.5132 140.543H79.3333V142.212H79.3737C80.017 140.965 80.8615 140.282 82.3091 140.282C82.711 140.282 83.0931 140.342 83.4751 140.443V143.961C83.0731 143.82 82.711 143.7 81.9069 143.7C80.3386 143.7 79.4943 144.625 79.4943 146.857V150.978H75.5132V140.543Z" fill="#231815"/>
<path d="M87.4392 146.655C87.5397 147.842 88.2232 148.686 89.47 148.686C90.1132 148.686 90.8171 148.445 91.1387 147.942H94.8584C94.0541 150.194 91.8624 151.24 89.49 151.24C86.1524 151.24 83.6392 149.269 83.6392 145.791C83.6392 142.755 85.8508 140.282 89.1482 140.282C93.2901 140.282 95.0794 142.594 95.0794 146.655H87.4392ZM91.2594 144.584C91.2594 143.619 90.5358 142.835 89.5101 142.835C88.324 142.835 87.6404 143.459 87.4593 144.584H91.2594Z" fill="#231815"/>
<path d="M107.042 146.153C107.042 146.515 107.103 146.836 107.203 147.098C107.525 147.962 108.49 148.143 109.314 148.143C110.038 148.143 111.144 147.902 111.144 146.836C111.144 146.092 110.521 145.891 108.048 145.188C105.776 144.544 103.182 143.921 103.182 141.026C103.182 137.708 106.017 136.281 108.972 136.281C112.089 136.281 114.843 137.467 114.964 140.965H110.782C110.862 140.423 110.621 140.061 110.259 139.82C109.897 139.558 109.395 139.458 108.953 139.458C108.349 139.458 107.364 139.618 107.364 140.423C107.445 141.448 109.495 141.669 111.526 142.232C113.557 142.795 115.567 143.74 115.567 146.374C115.567 150.113 112.129 151.32 108.932 151.32C107.304 151.32 102.659 150.737 102.619 146.153H107.042Z" fill="#231815"/>
<path d="M116.874 140.543H120.714V141.689H120.754C121.257 141.026 121.86 140.282 123.81 140.282C126.766 140.282 128.193 143.197 128.193 145.811C128.193 148.264 127.248 151.24 123.75 151.24C122.564 151.24 121.498 150.717 120.895 149.832H120.855V154.356H116.874V140.543ZM122.463 148.344C123.891 148.344 124.212 146.997 124.212 145.771C124.212 144.524 123.891 143.177 122.463 143.177C121.036 143.177 120.714 144.524 120.714 145.771C120.714 146.997 121.036 148.344 122.463 148.344Z" fill="#231815"/>
<path d="M135.15 151.24C131.229 151.24 129.46 148.646 129.46 145.751C129.46 142.855 131.229 140.282 135.15 140.282C139.071 140.282 140.84 142.855 140.84 145.751C140.84 148.646 139.071 151.24 135.15 151.24ZM135.15 143.177C133.642 143.177 133.441 144.645 133.441 145.751C133.441 146.857 133.642 148.344 135.15 148.344C136.658 148.344 136.859 146.857 136.859 145.751C136.859 144.645 136.658 143.177 135.15 143.177Z" fill="#231815"/>
<path d="M142.569 140.543H146.389V142.212H146.429C147.073 140.965 147.917 140.282 149.365 140.282C149.767 140.282 150.149 140.342 150.531 140.443V143.961C150.129 143.82 149.767 143.7 148.963 143.7C147.394 143.7 146.55 144.625 146.55 146.857V150.978H142.569V140.543Z" fill="#231815"/>
<path d="M156.281 140.543H158.412V142.996H156.281V146.635C156.281 147.6 156.502 148.022 157.507 148.022C157.809 148.022 158.111 148.002 158.412 147.962V150.978C157.608 150.978 156.703 151.099 155.859 151.099C154.17 151.099 152.3 150.837 152.3 147.982V142.996H150.531V140.543H152.3V137.366H156.281V140.543Z" fill="#231815"/>
<path d="M165.71 143.579C165.69 143.237 165.509 142.976 165.248 142.795C165.007 142.594 164.685 142.493 164.363 142.493C163.8 142.493 163.157 142.614 163.157 143.298C163.157 143.599 163.398 143.74 163.62 143.841C164.283 144.122 165.791 144.202 167.118 144.645C168.445 145.067 169.611 145.851 169.611 147.56C169.611 150.455 166.836 151.24 164.303 151.24C161.85 151.24 159.156 150.254 159.096 147.56H162.896C162.916 147.922 163.076 148.224 163.378 148.485C163.579 148.666 163.961 148.787 164.444 148.787C164.966 148.787 165.791 148.586 165.791 147.982C165.791 147.379 165.449 147.198 163.599 146.876C160.563 146.354 159.337 145.389 159.337 143.599C159.337 140.965 162.172 140.282 164.263 140.282C166.515 140.282 169.229 140.905 169.33 143.579H165.71Z" fill="#231815"/>
<path d="M178.015 136.623H182.539L186.721 144.303H186.761V136.623H190.943V150.978H186.641L182.237 143.137H182.197V150.978H178.015V136.623Z" fill="#231815"/>
<path d="M203.369 148.646C203.369 149.43 203.409 150.315 203.851 150.978H199.79C199.689 150.696 199.629 150.274 199.649 149.993H199.609C198.765 150.958 197.538 151.24 196.251 151.24C194.241 151.24 192.572 150.274 192.572 148.083C192.572 144.786 196.432 144.906 198.463 144.524C199.006 144.423 199.549 144.263 199.549 143.599C199.549 142.896 198.885 142.634 198.242 142.634C197.015 142.634 196.774 143.257 196.754 143.7H193.054C193.175 140.765 195.95 140.282 198.423 140.282C203.409 140.282 203.369 142.352 203.369 144.363V148.646ZM199.549 146.294C199.066 146.535 198.523 146.675 197.98 146.796C197.096 146.997 196.633 147.218 196.633 147.922C196.633 148.405 197.156 148.887 197.88 148.887C198.784 148.887 199.488 148.344 199.549 147.259V146.294Z" fill="#231815"/>
<path d="M212.315 150.978H207.611L204.193 140.543H208.395L210.024 146.897H210.064L211.712 140.543H215.774L212.315 150.978Z" fill="#231815"/>
<path d="M220.72 139.417H216.739V136.623H220.72V139.417ZM216.739 140.543H220.72V150.978H216.739V140.543Z" fill="#231815"/>
<path d="M233.628 149.631C233.628 151.702 233.085 154.617 228.199 154.617C225.726 154.617 223.112 153.954 222.75 151.139H226.691C226.731 151.24 226.832 151.38 226.912 151.501C227.153 151.863 227.576 152.265 228.078 152.265C229.365 152.265 229.647 150.737 229.647 149.872V148.907H229.606C228.963 149.832 227.998 150.355 226.812 150.355C223.736 150.355 222.348 148.063 222.348 145.268C222.348 142.554 223.896 140.282 226.872 140.282C228.038 140.282 229.144 140.744 229.606 141.81H229.647V140.543H233.628V149.631ZM228.118 147.801C229.586 147.801 229.747 146.394 229.747 145.228C229.747 144.082 229.184 143.177 228.018 143.177C226.892 143.177 226.329 144.142 226.329 145.248C226.329 146.434 226.691 147.801 228.118 147.801Z" fill="#231815"/>
<path d="M245.832 148.646C245.832 149.43 245.872 150.315 246.314 150.978H242.253C242.152 150.696 242.092 150.274 242.112 149.993H242.072C241.227 150.958 240.001 151.24 238.714 151.24C236.704 151.24 235.035 150.274 235.035 148.083C235.035 144.786 238.895 144.906 240.926 144.524C241.469 144.423 242.011 144.263 242.011 143.599C242.011 142.896 241.348 142.634 240.705 142.634C239.478 142.634 239.237 143.257 239.217 143.7H235.517C235.638 140.765 238.412 140.282 240.885 140.282C245.872 140.282 245.832 142.352 245.832 144.363V148.646ZM242.011 146.294C241.529 146.535 240.986 146.675 240.443 146.796C239.559 146.997 239.096 147.218 239.096 147.922C239.096 148.405 239.619 148.887 240.343 148.887C241.247 148.887 241.951 148.344 242.011 147.259V146.294Z" fill="#231815"/>
<path d="M252.728 140.543H254.859V142.996H252.728V146.635C252.728 147.6 252.949 148.022 253.954 148.022C254.256 148.022 254.557 148.002 254.859 147.962V150.978C254.055 150.978 253.15 151.099 252.306 151.099C250.617 151.099 248.746 150.837 248.746 147.982V142.996H246.978V140.543H248.746V137.366H252.728V140.543Z" fill="#231815"/>
<path d="M261.374 151.24C257.453 151.24 255.684 148.646 255.684 145.751C255.684 142.855 257.453 140.282 261.374 140.282C265.294 140.282 267.064 142.855 267.064 145.751C267.064 148.646 265.294 151.24 261.374 151.24ZM261.374 143.177C259.866 143.177 259.665 144.645 259.665 145.751C259.665 146.857 259.866 148.344 261.374 148.344C262.881 148.344 263.083 146.857 263.083 145.751C263.083 144.645 262.881 143.177 261.374 143.177Z" fill="#231815"/>
<path d="M268.792 140.543H272.612V142.212H272.653C273.296 140.965 274.14 140.282 275.588 140.282C275.99 140.282 276.372 140.342 276.754 140.443V143.961C276.352 143.82 275.99 143.7 275.186 143.7C273.618 143.7 272.773 144.625 272.773 146.857V150.978H268.792V140.543Z" fill="#231815"/>
<path d="M283.751 143.579C283.731 143.237 283.55 142.976 283.289 142.795C283.047 142.594 282.726 142.493 282.404 142.493C281.841 142.493 281.198 142.614 281.198 143.298C281.198 143.599 281.439 143.74 281.66 143.841C282.324 144.122 283.831 144.202 285.158 144.645C286.485 145.067 287.652 145.851 287.652 147.56C287.652 150.455 284.877 151.24 282.344 151.24C279.891 151.24 277.197 150.254 277.136 147.56H280.936C280.956 147.922 281.117 148.224 281.419 148.485C281.62 148.666 282.002 148.787 282.484 148.787C283.007 148.787 283.831 148.586 283.831 147.982C283.831 147.379 283.49 147.198 281.64 146.876C278.604 146.354 277.377 145.389 277.377 143.599C277.377 140.965 280.213 140.282 282.303 140.282C284.555 140.282 287.27 140.905 287.37 143.579H283.751Z" fill="#231815"/>
<path d="M293.422 140L292.316 145.811H290.365L289.239 140V136.623H293.422V140ZM289.239 146.997H293.422V150.978H289.239V146.997Z" fill="#231815"/>
</g>
<defs>
<clipPath id="clip0_4880_19103">
<rect width="300" height="68.6173" fill="white" transform="translate(10 86)"/>
</clipPath>
</defs>
</svg>
