<svg width="320" height="240" viewBox="0 0 320 240" fill="none" xmlns="http://www.w3.org/2000/svg">
<g clip-path="url(#clip0_4880_19104)">
<path fill-rule="evenodd" clip-rule="evenodd" d="M102.748 75.9051L92.9198 90.856C90.2496 86.7919 83.9625 77.2128 83.0881 75.9023C81.8279 74.0231 80.4085 73.0006 78.1767 73.0006H61.5322C62.3748 73.5135 63.0898 74.2113 63.6231 75.0412C64.6153 76.5037 80.4555 98.6918 84.2311 103.982V122.906C84.2559 124.378 84.0597 125.847 83.6491 127.261H102.191C101.783 125.846 101.588 124.379 101.611 122.906V103.982C105.384 98.6924 121.226 76.5037 122.213 75.0401C122.753 74.2392 123.5 73.2769 124.307 73.0006H107.658C105.425 73.0006 103.998 74.0203 102.748 75.9012M179.417 119.913L163.786 98.7012L178.042 80.89C180.398 77.9197 183.692 74.4232 186.04 73.0006H169.474C167.25 73.0006 163.957 74.2243 162.481 76.1079C161.413 77.472 149.645 92.7999 145.402 98.3204V77.3565C145.375 75.8826 145.575 74.4134 145.995 73.0006H127.435C127.85 74.4141 128.047 75.8825 128.019 77.3554V122.906C128.045 124.379 127.848 125.847 127.435 127.261H145.995C145.577 125.848 145.378 124.38 145.404 122.906V99.7757C161.536 122.424 161.4 122.208 162.628 123.922C163.992 125.801 167.581 127.259 169.805 127.259H186.292C184.72 126.092 181.415 122.636 179.413 119.913M241.794 119.913L226.167 98.7012L240.412 80.8894C242.782 77.9192 246.075 74.4227 248.421 73H231.856C229.633 73 226.342 74.2237 224.864 76.1074L207.799 98.3204V77.3565C207.775 75.8844 207.97 74.4168 208.376 73.0017H189.837C190.248 74.4158 190.442 75.8841 190.414 77.3565V122.906C190.442 124.379 190.247 125.847 189.837 127.261H208.375C207.971 125.845 207.777 124.378 207.798 122.906V99.7757C223.919 122.424 223.783 122.208 225.011 123.922C226.375 125.801 229.964 127.259 232.187 127.259H248.675C247.114 126.092 243.797 122.636 241.795 119.913" fill="#0082BE"/>
<path d="M300.639 160.501H297.622L301.546 155.605C301.91 155.151 302.461 154.887 303.043 154.887H306.06L302.136 159.782C301.772 160.236 301.221 160.501 300.639 160.501Z" fill="#0082BE"/>
<path d="M304.577 149.264H301.562L305.487 154.167C305.851 154.621 306.401 154.885 306.984 154.885H310L306.076 149.981C305.712 149.527 305.161 149.263 304.579 149.263" fill="#0082BE"/>
<path d="M296.705 149.264H293.691L297.616 154.167C297.98 154.621 298.53 154.885 299.112 154.885H302.127L298.203 149.983C297.839 149.527 297.288 149.263 296.705 149.264Z" fill="#0082BE"/>
<path d="M292.773 160.501H289.756L293.68 155.605C294.044 155.151 294.594 154.887 295.176 154.887H298.193L294.272 159.782C293.908 160.236 293.357 160.501 292.775 160.501" fill="#0082BE"/>
<path d="M288.838 149.264H285.824L289.748 154.167C290.112 154.621 290.663 154.885 291.245 154.885H294.261L290.337 149.983C289.973 149.529 289.423 149.264 288.84 149.264" fill="#0082BE"/>
<path d="M284.909 160.501H281.895L285.819 155.605C286.183 155.151 286.733 154.887 287.316 154.887H290.331L286.407 159.782C286.043 160.236 285.492 160.501 284.91 160.501" fill="#0082BE"/>
<path d="M280.974 149.264H277.961L281.885 154.167C282.249 154.621 282.799 154.885 283.381 154.885H286.399L282.474 149.983C282.11 149.527 281.558 149.263 280.975 149.264" fill="#0082BE"/>
<path fill-rule="evenodd" clip-rule="evenodd" d="M112.391 151.162C113.085 151.22 113.736 151.526 114.223 152.025L115.534 150.713C114.699 149.815 113.537 149.292 112.311 149.262C111.344 149.227 110.4 149.558 109.668 150.189C108.993 150.776 108.614 151.632 108.632 152.526C108.615 153.087 108.772 153.639 109.082 154.107C109.532 154.639 110.088 155.072 110.713 155.378C111.164 155.62 111.526 155.83 111.787 156.001C111.983 156.124 112.171 156.261 112.348 156.412C112.578 156.62 112.705 156.918 112.695 157.229C112.706 157.585 112.555 157.927 112.285 158.159C111.981 158.405 111.598 158.531 111.208 158.513C110.351 158.463 109.562 158.03 109.059 157.334L107.536 158.393C108.376 159.651 109.787 160.409 111.299 160.413C112.288 160.457 113.259 160.143 114.035 159.529C114.716 158.935 115.092 158.065 115.058 157.162C115.084 156.568 114.907 155.983 114.555 155.504C114.025 154.902 113.382 154.41 112.661 154.059C112.18 153.821 111.731 153.522 111.327 153.169C111.108 152.951 110.988 152.652 110.995 152.343C110.993 152.015 111.141 151.703 111.397 151.497C111.676 151.268 112.03 151.148 112.391 151.16M14.8628 142.835H10C10.5671 143.18 11.0485 143.649 11.4078 144.207C11.484 144.322 11.7035 144.632 12.0224 145.085C12.0938 145.205 12.1246 145.346 12.1103 145.485L10.3139 160.077H20.2932L20.5668 157.816H13.0261L14.8628 142.835ZM94.7753 150.504L94.6371 150.636L94.7637 149.612H92.4141L91.1274 160.078H93.4759L94.1203 154.847C94.1738 154.335 94.2662 153.827 94.3967 153.329C94.4908 152.958 94.6417 152.603 94.8438 152.279C95.0043 152.023 95.2283 151.814 95.4938 151.671C95.762 151.537 96.0587 151.47 96.3583 151.477C96.8637 151.495 97.3466 151.691 97.7224 152.029L99.2258 150.089C98.6907 149.602 97.9944 149.33 97.2708 149.326C96.3177 149.379 95.4225 149.8 94.7731 150.5M41.2997 144.691H38.949L38.341 149.611H37.2107V149.606H35.4973V149.611H33.8187L34.4267 144.691H32.076L31.468 149.611H30.0624L29.7977 151.781H31.2065L30.1802 160.077H32.5286L33.555 151.782H38.0801L37.0543 160.077H39.4027L40.4258 151.782H41.8037C42.2556 151.781 42.6828 151.575 42.9644 151.222L44.2489 149.611H40.6911L41.2997 144.691ZM119.223 157.354C118.837 157.349 118.466 157.504 118.198 157.781C117.928 158.067 117.782 158.447 117.793 158.84C117.783 159.253 117.943 159.652 118.235 159.945C118.508 160.237 118.892 160.401 119.292 160.396C119.693 160.397 120.077 160.238 120.36 159.954C120.656 159.691 120.825 159.314 120.824 158.919C120.828 158.5 120.656 158.099 120.35 157.813C120.054 157.512 119.647 157.345 119.224 157.352M55.3397 149.262C53.8302 149.223 52.3767 149.834 51.3486 150.94C50.2856 152.079 49.7139 153.59 49.7573 155.148C49.6917 156.57 50.2131 157.956 51.1993 158.982C52.2455 159.966 53.6464 160.483 55.081 160.415C55.9632 160.444 56.8398 160.265 57.6395 159.892C58.403 159.464 59.06 158.869 59.5613 158.152L57.8253 157.195C57.1962 158.047 56.1839 158.529 55.1264 158.48C54.3399 158.508 53.5729 158.232 52.9851 157.709C52.4356 157.201 52.1321 156.481 52.1528 155.732V155.664H60.3517C60.3711 155.301 60.3816 155.029 60.3816 154.854C60.4561 153.369 59.9678 151.911 59.0141 150.77C58.0734 149.747 56.7273 149.194 55.3391 149.261M52.2672 153.797L52.2898 153.711C52.7403 152.049 53.7269 151.206 55.2164 151.206C56.795 151.206 57.7302 152.051 57.9994 153.718L58.0099 153.797L52.2672 153.797ZM104.668 149.611L105.276 144.691H102.926L102.318 149.611H100.912L100.648 151.781H102.056L101.031 160.077H103.381L104.405 151.781H105.777C106.229 151.781 106.656 151.576 106.938 151.223L108.227 149.611L104.668 149.611ZM86.9616 151.094L86.8621 150.983C86.4058 150.458 85.8513 150.028 85.2299 149.716C84.6283 149.457 83.9776 149.333 83.3231 149.351C81.8438 149.308 80.4193 149.912 79.422 151.006C78.3974 152.18 77.86 153.701 77.9197 155.259C77.8661 156.601 78.3364 157.912 79.2313 158.914C80.1019 159.851 81.3354 160.365 82.6134 160.323C83.8345 160.28 84.9968 159.788 85.8777 158.942L86.0148 158.823L85.854 160.074H88.2047L89.4903 149.608H87.1418L86.9616 151.094ZM85.5903 157.264C84.9894 157.983 84.1014 158.399 83.1644 158.402C82.3708 158.423 81.609 158.088 81.0884 157.489C80.5366 156.841 80.2488 156.009 80.282 155.159C80.2558 154.157 80.5971 153.18 81.2415 152.412C81.8295 151.697 82.71 151.287 83.6359 151.297C84.45 151.271 85.2342 151.604 85.7815 152.207C86.3478 152.849 86.6447 153.684 86.6106 154.539C86.6243 155.543 86.2599 156.515 85.5898 157.263M77.3941 145.306C77.0543 144.602 76.5251 144.007 75.8658 143.587C74.8024 143.023 73.6039 142.762 72.402 142.834H66.5056C67.0721 143.179 67.5528 143.648 67.9117 144.206C67.9891 144.321 68.2069 144.631 68.5286 145.084C68.5974 145.203 68.6267 145.341 68.612 145.477L66.8063 160.076H69.246L70.1126 153.041H72.0792C74.2729 153.041 75.9023 152.342 76.9199 150.964C77.6094 150.023 77.9721 148.883 77.9523 147.718C77.9554 146.882 77.7663 146.057 77.3996 145.306M74.62 150.059C73.9348 150.654 73.043 150.954 72.1378 150.896H70.3768L71.0954 145.095H72.245C74.4006 145.095 75.49 145.955 75.49 147.652C75.5484 148.541 75.2315 149.414 74.6162 150.059M26.5527 143.115C25.8242 143.12 25.2367 143.713 25.2367 144.441C25.2346 144.806 25.3759 145.158 25.6302 145.42C26.1414 145.949 26.9846 145.964 27.5137 145.452C27.5193 145.447 27.5249 145.441 27.5304 145.436C27.7854 145.192 27.9282 144.854 27.9251 144.502C27.9059 143.749 27.3032 143.141 26.5505 143.116M23.4343 160.077H25.785L27.0706 149.611H24.7221L23.4343 160.077ZM44.5645 160.077H46.913L49.2261 141.202H46.8876L44.5645 160.077ZM178.011 143.76C177.396 143.402 176.722 143.157 176.021 143.036C175.012 142.881 173.992 142.813 172.972 142.835H167.427C167.993 143.18 168.474 143.649 168.833 144.206C168.911 144.321 169.129 144.632 169.45 145.084C169.521 145.205 169.551 145.346 169.535 145.486V145.493L167.741 160.077H171.721C172.511 160.077 173.307 160.058 173.897 160.022C174.375 159.994 174.851 159.939 175.323 159.856C176.126 159.696 176.898 159.405 177.609 158.997C178.225 158.621 178.784 158.158 179.267 157.622C179.769 157.052 180.197 156.421 180.538 155.742C181.271 154.278 181.647 152.66 181.634 151.023C181.654 149.517 181.322 148.028 180.663 146.675C180.088 145.462 179.164 144.449 178.01 143.765M177.638 155.814C177.11 156.533 176.383 157.08 175.547 157.388C174.444 157.715 173.296 157.861 172.146 157.821H170.453L172.014 145.098H173.171C174.332 145.037 175.492 145.235 176.568 145.679C177.41 146.135 178.083 146.848 178.491 147.715C178.97 148.714 179.208 149.812 179.184 150.921C179.245 152.682 178.699 154.41 177.637 155.816M231.379 149.267C229.869 149.228 228.415 149.839 227.387 150.945C226.324 152.084 225.753 153.596 225.796 155.153C225.73 156.575 226.252 157.962 227.238 158.988C228.284 159.972 229.685 160.489 231.119 160.421C232.001 160.45 232.878 160.271 233.677 159.897C234.441 159.47 235.098 158.875 235.598 158.158L233.864 157.201C233.235 158.052 232.222 158.534 231.164 158.486C230.378 158.514 229.612 158.238 229.025 157.715C228.475 157.206 228.171 156.486 228.191 155.738V155.669H236.389C236.408 155.307 236.419 155.034 236.419 154.86C236.493 153.375 236.005 151.916 235.051 150.775C234.111 149.752 232.765 149.199 231.378 149.266M228.306 153.802L228.328 153.717C228.778 152.055 229.761 151.212 231.255 151.212C232.832 151.212 233.767 152.057 234.037 153.723L234.048 153.803L228.306 153.802ZM221.09 150.508L220.952 150.64L221.078 149.616H218.729L217.443 160.077H219.792L220.436 154.846C220.49 154.334 220.584 153.826 220.716 153.328C220.809 152.957 220.96 152.603 221.162 152.278C221.322 152.023 221.546 151.813 221.812 151.67C222.081 151.536 222.378 151.47 222.678 151.476C223.183 151.495 223.665 151.691 224.04 152.029L225.544 150.089C225.009 149.602 224.312 149.33 223.589 149.325C222.636 149.379 221.741 149.8 221.092 150.499M244.587 149.349C243.493 149.393 242.451 149.825 241.649 150.569L241.516 150.68L241.64 149.605H239.301L238.013 160.071H240.361L240.984 155.022C241.039 154.583 241.098 154.211 241.165 153.885C241.219 153.596 241.304 153.315 241.417 153.044C241.6 152.594 241.893 152.198 242.269 151.891C242.739 151.491 243.339 151.278 243.956 151.291C245.033 151.291 245.578 151.798 245.578 152.799C245.578 152.934 245.573 153.088 245.561 153.287C245.552 153.457 245.53 153.66 245.499 153.911L244.743 160.071H247.08L247.78 154.433C247.864 153.793 247.909 153.149 247.916 152.504C247.96 151.642 247.636 150.801 247.025 150.191C246.352 149.604 245.478 149.301 244.586 149.344M266.024 149.252C264.514 149.214 263.06 149.825 262.032 150.93C260.969 152.07 260.398 153.581 260.441 155.138C260.375 156.56 260.897 157.947 261.883 158.973C262.929 159.957 264.33 160.474 265.764 160.406C266.646 160.435 267.523 160.256 268.323 159.882C269.086 159.455 269.743 158.861 270.243 158.143L268.514 157.196C267.884 158.047 266.872 158.529 265.815 158.481C265.029 158.509 264.261 158.233 263.674 157.71C263.124 157.202 262.821 156.481 262.841 155.733V155.664H271.04C271.059 155.302 271.07 155.029 271.07 154.855C271.145 153.369 270.656 151.911 269.702 150.77C268.761 149.747 267.416 149.194 266.028 149.261M262.956 153.797L262.979 153.712C263.428 152.05 264.412 151.207 265.905 151.207C267.484 151.207 268.418 152.052 268.686 153.718L268.7 153.798L262.956 153.797ZM275.865 157.817C275.569 157.515 275.161 157.348 274.738 157.356C274.352 157.351 273.982 157.506 273.714 157.784C273.443 158.068 273.297 158.449 273.308 158.842C273.298 159.255 273.458 159.655 273.75 159.947C274.024 160.24 274.408 160.403 274.808 160.398C275.209 160.399 275.593 160.24 275.876 159.956C276.171 159.693 276.339 159.316 276.338 158.921C276.343 158.503 276.171 158.102 275.866 157.816M138.371 151.242L138.198 151.199L138.355 151.115C139.891 150.399 140.867 148.851 140.85 147.155C140.875 146.094 140.518 145.06 139.844 144.24C139.441 143.745 138.91 143.37 138.309 143.157C137.517 142.919 136.692 142.811 135.866 142.835H130.267C130.833 143.18 131.314 143.649 131.673 144.206C131.75 144.321 131.969 144.632 132.289 145.084C132.36 145.205 132.391 145.346 132.375 145.486C132.373 145.496 132.373 145.507 132.375 145.518L130.583 160.077H135.089C135.687 160.077 136.215 160.059 136.659 160.025C137.038 160 137.415 159.954 137.789 159.886C138.377 159.769 138.932 159.523 139.415 159.168C140.04 158.709 140.537 158.098 140.857 157.393C141.213 156.654 141.396 155.844 141.391 155.024C141.391 153.012 140.374 151.741 138.371 151.242ZM134.859 145.095H135.807C137.526 145.095 138.399 145.83 138.399 147.279C138.399 149.371 137.262 150.433 135.02 150.433H134.211L134.859 145.095ZM137.805 157.322C137.312 157.653 136.429 157.819 135.11 157.819H133.298L133.97 152.357H135.584C136.093 152.349 136.602 152.395 137.102 152.494C137.478 152.565 137.834 152.715 138.147 152.936C138.416 153.134 138.624 153.403 138.748 153.713C138.884 154.072 138.949 154.454 138.94 154.838C139.025 155.809 138.593 156.754 137.804 157.325M251.407 150.922C250.374 152.035 249.82 153.51 249.863 155.028C249.806 156.464 250.321 157.864 251.296 158.921C252.276 159.926 253.636 160.47 255.039 160.42C255.962 160.404 256.873 160.212 257.723 159.854L258.023 157.44C257.285 158.072 256.358 158.439 255.387 158.486C254.521 158.513 253.686 158.164 253.096 157.53C252.492 156.836 252.18 155.936 252.223 155.017C252.184 154.022 252.515 153.047 253.152 152.281C253.745 151.584 254.62 151.191 255.534 151.212C256.116 151.198 256.69 151.346 257.193 151.639C257.721 151.99 258.187 152.427 258.571 152.932L258.861 150.602C257.853 149.762 256.588 149.291 255.276 149.267C253.809 149.239 252.4 149.843 251.407 150.925M210.374 149.267C208.865 149.228 207.411 149.839 206.383 150.945C205.321 152.084 204.75 153.596 204.793 155.153C204.727 156.575 205.248 157.962 206.235 158.987C207.281 159.972 208.681 160.489 210.116 160.42C210.998 160.449 211.874 160.27 212.674 159.897C213.437 159.469 214.094 158.874 214.595 158.157L212.86 157.2C212.23 158.052 211.218 158.534 210.16 158.485C209.374 158.513 208.607 158.237 208.02 157.714C207.47 157.206 207.167 156.486 207.187 155.737V155.669H215.387C215.405 155.306 215.416 155.034 215.416 154.859C215.491 153.374 215.003 151.916 214.049 150.775C213.109 149.752 211.763 149.199 210.374 149.266M207.301 153.802L207.326 153.716C207.774 152.054 208.759 151.211 210.251 151.211C211.829 151.211 212.765 152.056 213.034 153.723L213.046 153.802L207.301 153.802ZM146.784 143.115C146.431 143.112 146.093 143.254 145.849 143.509C145.597 143.754 145.459 144.092 145.466 144.443C145.464 144.809 145.606 145.16 145.861 145.422C146.109 145.684 146.456 145.831 146.817 145.827C147.55 145.824 148.146 145.234 148.157 144.501C148.137 143.749 147.536 143.141 146.784 143.115ZM143.663 160.078H146.013L147.301 149.612H144.952L143.663 160.078ZM201.459 145.481C201.495 144.878 201.657 144.29 201.933 143.753C202.178 143.417 202.579 143.231 202.993 143.26C203.447 143.289 203.878 143.466 204.221 143.763L204.471 141.749C203.841 141.423 203.148 141.237 202.44 141.202C201.605 141.15 200.789 141.467 200.208 142.069C199.603 142.86 199.252 143.817 199.2 144.812L198.605 149.612H197.633V149.607H195.378V149.612H193.901L194.405 145.481C194.442 144.879 194.604 144.29 194.88 143.754C195.125 143.418 195.525 143.232 195.939 143.261C196.393 143.29 196.825 143.466 197.169 143.763L197.418 141.749C196.788 141.424 196.096 141.237 195.388 141.203C194.552 141.151 193.736 141.468 193.154 142.069C192.55 142.861 192.199 143.818 192.147 144.813L191.552 149.612H189.931L189.668 151.783H191.289L190.265 160.078H192.614L193.627 151.783H198.342L197.318 160.078H199.665L200.679 151.783H202.193C202.645 151.782 203.072 151.576 203.354 151.223L204.637 149.612H200.952L201.459 145.481ZM158.66 151.012L158.56 150.908C158.101 150.4 157.547 149.988 156.928 149.696C156.331 149.446 155.687 149.329 155.04 149.353C153.515 149.315 152.044 149.916 150.983 151.011C149.905 152.119 149.323 153.616 149.369 155.161C149.329 156.532 149.827 157.864 150.756 158.874C151.67 159.835 152.95 160.363 154.276 160.327C155.467 160.307 156.618 159.887 157.543 159.136L157.674 159.036L157.474 160.651C157.424 161.618 157.062 162.543 156.441 163.286C155.796 163.879 154.936 164.182 154.062 164.123C153.283 164.186 152.511 163.933 151.922 163.421C151.411 162.819 151.133 162.054 151.139 161.265H148.862C148.84 161.964 148.945 162.66 149.172 163.321C149.4 163.893 149.773 164.396 150.256 164.779C151.385 165.675 152.8 166.133 154.241 166.069C155.654 166.129 157.037 165.652 158.114 164.735C158.621 164.272 159.015 163.7 159.266 163.061C159.411 162.677 159.525 162.281 159.606 161.879C159.705 161.41 159.799 160.852 159.88 160.218L161.177 149.615H158.828L158.66 151.012ZM157.444 157.313C156.779 158.028 155.837 158.421 154.861 158.393C154.011 158.428 153.185 158.108 152.582 157.508C152.002 156.86 151.697 156.011 151.73 155.142C151.698 154.137 152.051 153.158 152.717 152.405C153.349 151.687 154.265 151.284 155.221 151.303C156.095 151.269 156.944 151.597 157.568 152.211C158.178 152.844 158.503 153.699 158.465 154.578C158.496 155.589 158.13 156.572 157.444 157.315M183.55 160.082H185.9L187.188 149.616H184.838L183.55 160.082ZM186.671 143.119C185.942 143.124 185.353 143.716 185.353 144.446C185.351 144.811 185.493 145.162 185.747 145.424C185.995 145.686 186.342 145.833 186.703 145.83C187.437 145.827 188.033 145.237 188.044 144.503C188.025 143.751 187.423 143.144 186.671 143.117" fill="black"/>
</g>
<defs>
<clipPath id="clip0_4880_19104">
<rect width="300" height="93.0752" fill="white" transform="translate(10 73)"/>
</clipPath>
</defs>
</svg>
